<?xml version="1.0" encoding="utf-8"?>
<!-- Generator: Adobe Illustrator 26.5.0, SVG Export Plug-In . SVG Version: 6.00 Build 0)  -->
<svg version="1.1" id="レイヤー_1" xmlns="http://www.w3.org/2000/svg" xmlns:xlink="http://www.w3.org/1999/xlink" x="0px"
	 y="0px" viewBox="0 0 550 550" style="enable-background:new 0 0 550 550;" xml:space="preserve">
<g>
	<g>
		<path d="M9.43,241.48c0.42-0.07,0.88-0.1,1.77,0.01c3.4,0.4,6.41,2.98,5.79,7.97c-0.06,0.47-0.2,0.97-0.35,1.47
			c0.25,0.67,0.7,1.32,1.43,1.4c0.81,0.09,1.65-0.36,1.85-1.98c0.14-1.14,0.25-2.64,0.46-4.33c0.35-2.83,1.29-6.35,5.7-5.83
			c2.11,0.25,3.91,1.89,4.63,3.05c1.24,1.9,2.14,4.55,1.72,7.93c-0.69,5.54-3.59,7.03-5.69,6.79c-0.61-0.07-1.12-0.21-1.67-0.76
			c-0.36-0.4-1.07-2-1.52-2.65c-0.2-0.34-0.7-0.68-0.86-0.34c-0.66,1.32-2.1,2.38-3.68,2.2c-0.4-0.05-0.71-0.24-0.94-0.75
			c-0.25-0.63-1.27-2.7-1.83-2.77c-0.12-0.01-0.36-0.04-0.46,0.1c-0.73,1.27-2.55,2.65-5.18,2.34c-3.64-0.43-6.03-3.7-5.5-7.94
			c0.2-1.57,0.69-2.91,1.34-3.87c0.51-0.78,0.77-1.18,0.82-1.66l0.48-3.85c0.14-0.14,0.44-0.27,0.77-0.23
			c0.81,0.09,1.26,0.47,1.3,0.79L9.43,241.48z M15.53,248.57c0.18-1.49-1.01-2.75-3.85-3.08c-2.75-0.32-4.88,0.58-5.1,2.35
			c-0.17,1.37,1.01,2.75,3.81,3.08C13.51,251.28,15.35,250.07,15.53,248.57z M23.55,249.83c-0.17,1.37-0.15,2.21,0.15,2.73
			c0.44,0.73,1.11,1.32,2.12,1.44c2.47,0.29,4.35-1.64,4.73-4.67c0.42-3.34-0.77-5.39-3.12-5.67c-2.06-0.24-3.31,1.48-3.61,3.92
			L23.55,249.83z"/>
		<path d="M14.34,233.05c-0.14,0.74-0.12,0.82,0.36,0.91c3.61,0.67,6.97-1.21,7.65-4.67c0.31-1.56,0.04-2.93-1.27-4.1
			c-0.04-0.41,0.44-0.76,0.81-0.74c2.95,1.92,3.58,5.01,3.12,7.39c-0.89,4.51-4.92,6.87-9.49,6.02c-4.53-0.84-8.31-4.64-7.29-9.85
			c0.57-2.88,3.07-5.48,6.56-4.83c0.36,0.07,0.6,0.15,0.88,0.36c0.32,0.3,0.3,1.22-0.01,2.78L14.34,233.05z M13.44,229.17
			c0.22-1.13,0.2-1.65,0.09-1.96c-0.12-0.26-0.4-0.48-0.77-0.54c-1.44-0.27-2.78,0.41-3.11,2.08c-0.51,2.61,1.86,4.29,2.7,4.45
			c0.16,0.03,0.3-0.02,0.39-0.49L13.44,229.17z"/>
		<path d="M22.92,216.72c2.92,0.75,3.43,0.72,3.99-0.53l0.24-0.55c0.35-0.2,1.05,0.02,1.12,0.37c-0.45,1.32-0.84,2.61-1.23,4.02
			c-0.34,1.22-0.66,2.53-1.02,4.16c-0.24,0.26-0.96,0.12-1.16-0.22l0.11-0.87c0.16-1.35-0.23-1.62-3.15-2.37l-5.79-1.5
			c-1.77-0.46-2.25-0.58-3.1,0.22l-0.4,0.39c-0.19,0.07-0.74-0.07-0.9-0.27c-0.02-1.77-0.39-4.11-0.76-5.52
			c0.07-0.27,0.27-0.38,0.45-0.42c0.73,0.27,1.48,0.47,1.79,0.55c0.28,0.07,0.39-0.02,0.49-0.24c-0.53-2.06-1.18-3.38-0.53-5.75
			c0.85-3.1,3.46-3.98,6.53-3.18l6.11,1.58c2.92,0.76,3.43,0.73,3.95-0.53l0.36-0.85c0.35-0.2,1.05,0.03,1.12,0.37
			c-0.52,1.59-0.92,2.88-1.31,4.29c-0.35,1.26-0.67,2.57-0.96,3.93c-0.24,0.27-0.96,0.12-1.16-0.22l0.08-0.59
			c0.16-1.35-0.27-1.63-3.18-2.38l-5.44-1.41c-2.01-0.52-3.8-0.16-4.43,2.13c-0.33,1.18,0.04,2.3,0.53,2.84
			c0.57,0.68,0.92,0.81,2.37,1.19L22.92,216.72z"/>
		<path d="M23.76,197.43c-0.25,0.71-0.24,0.8,0.22,0.95c3.47,1.16,7.07-0.23,8.26-3.56c0.53-1.5,0.47-2.9-0.65-4.24
			c0.02-0.41,0.55-0.69,0.91-0.62c2.63,2.3,2.81,5.46,2,7.74c-1.54,4.34-5.88,6.11-10.28,4.64c-4.36-1.46-7.54-5.74-5.75-10.76
			c0.98-2.77,3.85-4.99,7.2-3.87c0.35,0.12,0.56,0.23,0.82,0.48c0.27,0.34,0.12,1.25-0.42,2.75L23.76,197.43z M23.44,193.48
			c0.39-1.08,0.44-1.61,0.38-1.92c-0.08-0.28-0.33-0.53-0.68-0.65c-1.39-0.46-2.81,0.02-3.38,1.63c-0.89,2.5,1.2,4.5,2.01,4.77
			c0.15,0.05,0.3,0.01,0.46-0.43L23.44,193.48z"/>
		<path d="M27.53,184c-1.7-0.68-2.15-0.86-3.1-0.17l-0.45,0.33c-0.2,0.05-0.73-0.16-0.85-0.38c0.14-1.79,0.13-4.06-0.08-5.43
			c0.09-0.22,0.3-0.39,0.56-0.38c0.7,0.32,1.33,0.61,1.67,0.75c0.26,0.11,0.51,0.03,0.61-0.19c-0.35-1.47-0.97-3.13-0.44-4.37
			c0.54-1.28,1.72-1.67,2.7-1.28c1.47,0.59,1.74,1.93,1.32,2.92c-0.16,0.37-0.41,0.65-0.72,0.87c-1.03,0.66-1.37,1.25-1.46,1.47
			c-0.36,0.84,0.42,1.41,2.27,2.14l5.17,2.06c2.79,1.11,3.27,1.13,3.96-0.09l0.76-1.37c0.37-0.15,1.04,0.16,1.06,0.51
			c-1.01,2.17-1.57,3.4-2.14,4.75c-0.51,1.21-0.99,2.43-1.5,3.85c-0.28,0.23-0.97,0-1.12-0.36l0.17-0.7
			c0.3-1.34-0.01-1.63-2.81-2.75L27.53,184z"/>
		<path d="M42.92,164.23c2.08,1.11,3.44,1.09,4.08-0.19c0.3-0.6,0.15-1.29,0.2-1.4c0.09-0.18,0.62-0.24,0.89,0.02
			c0.67,1.2,0.39,3.21-0.16,4.32c-0.44,0.89-1.2,1.77-2.31,2.08c-0.38,0.13-0.64,0.18-0.73,0.36c-0.09,0.18-0.03,0.51,0.04,1.2
			c0.1,0.88,0.08,2.19-0.56,3.47c-1.21,2.42-3.54,2.82-5.37,1.96c-1.32-0.62-2.28-1.69-1.94-4.56c0.18-1.45,0.34-3.05,0.49-4.61
			c0.1-0.83-0.18-1.1-0.55-1.27l-0.94-0.48c-1.84-0.95-3.7-1.21-4.57,0.54c-0.5,1-0.32,2,0.67,2.64c0.66,0.4,0.92,0.78,0.98,1.3
			c0.08,0.65-0.09,1.81-0.48,2.59c-0.23,0.46-0.59,0.56-0.92,0.4c-0.44-0.21-1.11-0.78-1.66-2.49c-0.51-1.6-0.48-4.75,0.42-6.57
			c1.4-2.81,3.63-3.92,6.79-2.26L42.92,164.23z M39.93,167.14c-0.4-0.19-0.68-0.19-0.77-0.01c-0.14,0.28-0.28,1.01-0.34,1.78
			c-0.13,1.17-0.08,2.33,1.5,3.08c0.95,0.45,2.45,0.36,3.12-0.99c0.64-1.28-0.05-2.09-0.91-2.54L39.93,167.14z"/>
		<path d="M31.42,149.79c-2.39-1.29-2.62-1.37-3.69-0.81l-0.47,0.25c-0.26,0.13-0.85-0.14-0.82-0.44c0.38-1.56,0.67-3.76,0.89-5.45
			c0.08-0.23,0.34-0.36,0.56-0.33c1.39,0.84,3.57,2.07,5.11,2.9l15.78,8.53c2.64,1.43,3.11,1.5,3.96,0.42l0.54-0.7
			c0.39-0.11,1.01,0.28,0.99,0.63c-0.89,1.38-1.6,2.53-2.33,3.81c-0.66,1.14-1.3,2.34-2.04,3.79c-0.3,0.2-0.96-0.11-1.07-0.49
			l0.31-0.78c0.5-1.27,0.19-1.62-2.45-3.05L31.42,149.79z"/>
		<path d="M54.4,125.7c0.7-0.16,1.4-0.03,2.18,0.48c1.08,0.71,1.19,1.6,1.01,1.86c-0.16,0.23-0.34,0.35-0.81,0.38
			c-1.48,0.07-3.25,0.34-4.15,1.61c-1.31,1.86-0.78,5.04,2.39,7.14c2.73,1.8,6.52,1.82,8.61-1.15c1.49-2.13,1.21-3.41,0.7-4.71
			c0.17-0.32,0.66-0.52,1.09-0.29c1.9,2.98,1.07,6.12-0.37,8.18c-1.22,1.73-3.12,2.96-5.01,3.34c-1.95,0.39-4.23-0.02-6.18-1.31
			c-3.94-2.61-5.59-7.77-1.89-13.03C52.61,127.25,53.42,126.39,54.4,125.7z"/>
		<path d="M73.66,114.01c4.54,3.49,4.37,8.41,1.36,12.1c-2.91,3.57-7.68,4.75-11.87,1.53c-4.28-3.29-4.39-8.52-1.42-12.15
			C64.59,111.99,69.5,110.81,73.66,114.01z M74.04,124.75c1.75-2.14-0.37-4.78-2.83-6.67c-2.69-2.06-6.59-3.6-8.46-1.3
			c-1.29,1.58-0.64,4.1,2.91,6.83C68.57,125.85,72.22,126.99,74.04,124.75z"/>
		<path d="M74.62,109.25c-1.36-1.19-1.73-1.51-2.86-1.17l-0.54,0.17c-0.2-0.02-0.63-0.39-0.67-0.64c0.75-1.63,1.53-3.77,1.81-5.13
			c0.16-0.18,0.42-0.27,0.65-0.17c0.55,0.53,1.03,1.01,1.31,1.25c0.21,0.19,0.47,0.2,0.64,0.02c0.18-1.49,0.17-3.26,1.1-4.26
			c0.96-1.03,2.2-1.01,2.99-0.32c1.18,1.03,0.96,2.39,0.23,3.18c-0.27,0.29-0.61,0.48-0.98,0.58c-1.2,0.28-1.72,0.73-1.89,0.91
			c-0.63,0.68-0.1,1.46,1.39,2.76l4.15,3.63c2.24,1.96,2.68,2.13,3.76,1.21l1.19-1.04c0.4-0.02,0.92,0.49,0.82,0.83
			c-1.7,1.71-2.66,2.68-3.67,3.77c-0.9,0.97-1.77,1.96-2.75,3.13c-0.34,0.13-0.91-0.32-0.93-0.71l0.4-0.61
			c0.75-1.16,0.55-1.54-1.69-3.5L74.62,109.25z"/>
		<path d="M84.43,98.88c-1.27-1.28-1.5-1.57-2.74-1.34l-0.58,0.1c-0.29-0.06-0.63-0.4-0.62-0.68c0.87-1.41,1.84-3.86,2.15-5.25
			c0.23-0.22,0.53-0.27,0.75-0.15c0.42,0.6,0.7,0.99,0.95,1.25c0.17,0.17,0.43,0.26,0.6,0.15c0.21-0.53,0.9-3.2,2.43-4.63
			c3.2-2.99,7.38-2.38,10.29,0.56c3.93,3.96,3.82,9.45-0.5,13.48c-0.35,0.33-1.09,0.9-1.41,1.09c-0.21,0.3-0.21,0.64,0.35,1.21
			l2.77,2.8c2.09,2.11,2.52,2.31,3.66,1.47l1.17-0.87c0.4,0.01,0.88,0.55,0.76,0.88c-1.59,1.37-2.76,2.41-3.85,3.43
			c-0.97,0.9-2.09,2-3.21,3.16c-0.35,0.11-0.89-0.38-0.88-0.77l0.68-0.8c0.89-1.05,0.66-1.5-1.43-3.61L84.43,98.88z M91.93,100.45
			c0.88,0.88,1.62,1.01,2.75,0.95c0.69-0.04,1.68-0.47,2.12-0.88c2.03-1.89,1.11-4.99-1.49-7.61c-2.69-2.71-5.97-3.22-8.26-1.08
			c-0.68,0.63-1.01,1.38-1.02,2.05c0.02,0.48,0.41,1.04,1.6,2.24L91.93,100.45z"/>
		<path d="M113.71,77.09c3.67,4.34,2.43,9.12-1.32,12.1c-3.63,2.89-8.54,3.06-11.93-0.95c-3.47-4.1-2.42-9.23,1.27-12.16
			C105.29,73.25,110.35,73.11,113.71,77.09z M111.73,87.67c2.17-1.73,0.69-4.74-1.31-7.1c-2.17-2.57-5.65-4.87-7.98-3.01
			c-1.61,1.28-1.52,3.87,1.35,7.27C106.15,87.61,109.46,89.47,111.73,87.67z"/>
		<path d="M115.65,72.64c-1.07-1.45-1.36-1.83-2.54-1.74l-0.56,0.05c-0.2-0.06-0.53-0.51-0.52-0.76c1.09-1.44,2.32-3.38,2.89-4.65
			c0.2-0.14,0.47-0.18,0.68-0.03c0.42,0.63,0.79,1.2,1.01,1.49c0.17,0.23,0.42,0.29,0.62,0.15c0.5-1.42,0.88-3.15,2.01-3.94
			c1.16-0.81,2.37-0.53,2.99,0.3c0.93,1.25,0.42,2.53-0.47,3.16c-0.33,0.23-0.7,0.34-1.09,0.37c-1.23,0.03-1.84,0.36-2.04,0.5
			c-0.76,0.53-0.41,1.41,0.76,2.98l3.26,4.4c1.77,2.38,2.16,2.64,3.41,1.96l1.39-0.77c0.4,0.06,0.8,0.66,0.63,0.98
			c-2.04,1.32-3.18,2.08-4.41,2.93c-1.09,0.76-2.16,1.56-3.37,2.5c-0.36,0.06-0.82-0.5-0.76-0.88l0.52-0.51
			c0.98-0.98,0.88-1.39-0.89-3.77L115.65,72.64z"/>
		<path d="M139.55,63.73c1.16,2,2.33,2.69,3.57,1.93c0.59-0.36,0.83-1.02,0.93-1.08c0.17-0.11,0.65,0.11,0.75,0.48
			c-0.08,1.36-1.43,2.93-2.49,3.58c-0.86,0.53-1.98,0.88-3.09,0.58c-0.39-0.09-0.64-0.17-0.81-0.06c-0.17,0.11-0.31,0.42-0.63,1.04
			c-0.39,0.8-1.13,1.9-2.37,2.66c-2.35,1.43-4.54,0.58-5.63-1.1c-0.78-1.21-1.02-2.6,0.84-4.86c0.95-1.14,1.95-2.41,2.92-3.66
			c0.54-0.65,0.45-1.02,0.23-1.35l-0.53-0.89c-1.04-1.75-2.48-2.93-4.17-1.89c-0.97,0.59-1.36,1.54-0.87,2.59
			c0.34,0.68,0.36,1.14,0.13,1.6c-0.29,0.6-1.06,1.49-1.82,1.95c-0.45,0.27-0.81,0.17-1-0.14c-0.26-0.4-0.51-1.23-0.05-2.96
			c0.44-1.62,2.18-4.28,3.94-5.35c2.72-1.67,5.22-1.46,7,1.57L139.55,63.73z M135.43,64.65c-0.24-0.37-0.47-0.51-0.65-0.4
			c-0.27,0.17-0.79,0.72-1.26,1.33c-0.75,0.93-1.34,1.94-0.41,3.38c0.57,0.87,1.88,1.56,3.19,0.76c1.24-0.76,1.1-1.79,0.61-2.62
			L135.43,64.65z"/>
		<path d="M144.81,50.67c-0.64,0.35-0.64,0.43-0.01,1.54l3.05,5.33c1.25,2.18,2.68,3.94,4.96,2.72c0.71-0.38,1-0.86,1.36-1.54
			c0.34-0.14,0.71,0.02,0.86,0.44c-0.16,1.35-1.27,3.17-3.44,4.34c-3.39,1.83-5.09,0.25-6.47-2.17l-4.02-7.03
			c-0.69-1.21-0.78-1.21-1.36-0.9l-1.25,0.67c-0.45,0.02-0.84-0.5-0.64-0.88c0.96-1.1,1.52-1.99,1.99-2.97c0.4-0.85,0.77-2,0.73-3.2
			c0.2-0.38,0.76-0.55,1.1-0.37l1.19,2.08c0.32,0.55,0.37,0.66,1.05,0.29l3.53-1.9c0.27-0.01,0.5,0.23,0.7,0.57
			c0.2,0.43,0.24,0.82,0.05,1.15L144.81,50.67z"/>
		<path d="M156.41,49.86c-0.7,0.33-0.75,0.4-0.54,0.82c1.6,3.2,5.15,4.7,8.42,3.17c1.47-0.69,2.45-1.72,2.63-3.43
			c0.31-0.28,0.9-0.11,1.09,0.19c0.17,3.43-2.01,5.78-4.25,6.83c-4.26,2-8.61,0.27-10.64-3.79c-2.01-4.02-1.12-9.23,3.8-11.54
			c2.72-1.28,6.36-0.88,7.91,2.22c0.16,0.32,0.23,0.55,0.22,0.91c-0.06,0.42-0.83,0.96-2.3,1.65L156.41,49.86z M159.08,46.85
			c1.06-0.5,1.49-0.83,1.68-1.09c0.15-0.25,0.15-0.6-0.01-0.92c-0.64-1.28-2-1.92-3.58-1.18c-2.46,1.16-2.44,4-2.07,4.75
			c0.07,0.14,0.2,0.22,0.64,0.01L159.08,46.85z"/>
		<path d="M185.58,45.62c0.99,2.56,1.53,4.6,1.44,6.28c-0.14,3.22-2.02,6.15-4.37,8.4c-0.45,0.08-0.86-0.32-0.9-0.86
			c0.79-0.88,1.47-1.93,1.7-2.91c0.37-1.62,0.1-4.35-1.59-8.68l-3.37-8.67c-0.65-1.67-0.82-2.11-1.99-2.32l-0.56-0.09
			c-0.17-0.11-0.37-0.62-0.29-0.86c1.77-1.28,3.36-2.79,4.19-3.81c0.24-0.05,0.46-0.04,0.65,0.1c0.4,1.25,1.05,3.04,1.64,4.56
			L185.58,45.62z M173.9,28.45c-0.49-1.26,0.09-2.57,1.47-3.07c1.37-0.5,2.7,0.11,3.19,1.37c0.49,1.26-0.09,2.57-1.47,3.07
			C175.72,30.32,174.39,29.71,173.9,28.45z"/>
		<path d="M203.33,36.07c0.68,2.11,1.32,3.99,2.26,3.71c0.54-0.16,1.09-0.45,1.59-0.77c0.37,0.1,0.7,0.87,0.3,1.32
			c-1.65,0.71-4.49,2.1-5.93,3.36c-0.21,0.02-0.37-0.09-0.47-0.27c-0.07-0.48-0.17-1.07-0.33-1.43c-0.14-0.29-0.29-0.37-0.52-0.3
			c-1.33,1.44-2.77,2.82-4.72,3.41c-3.5,1.06-5.24-0.49-6.25-3.62l-1.89-5.89c-0.85-2.64-1.1-2.9-2.16-2.87l-0.59,0.01
			c-0.29-0.12-0.51-0.8-0.24-1c2.32-0.74,4.44-1.75,5.19-2.32c0.21-0.02,0.4,0.05,0.5,0.22c0.07,0.48,0.32,1.4,0.91,3.25l1.87,5.82
			c0.71,2.23,1.81,4.18,4.57,3.34c0.89-0.27,1.8-0.91,2.27-1.72c0.27-0.5,0.24-0.86-0.21-2.26l-1.83-5.7
			c-0.78-2.42-1.06-2.5-2.68-2.5l-0.68,0c-0.33-0.11-0.55-0.79-0.29-1.03c2.6-0.83,5.24-1.91,5.9-2.53c0.21-0.02,0.4,0.05,0.5,0.22
			c0.15,0.74,0.47,1.85,0.91,3.25L203.33,36.07z"/>
		<path d="M223.3,30.83c0.81,3.51,1.37,4.65,2.05,4.5c0.44-0.1,1.05-0.35,1.59-0.71c0.37,0.16,0.67,1.07,0.28,1.4
			c-1.98,0.64-4.66,1.91-5.94,2.84c-0.21,0.01-0.44-0.11-0.58-0.32l-0.05-0.6c-0.06-0.6-0.17-0.9-0.29-1.07l-0.21,0
			c-1,1.11-2.26,2.32-4.17,2.74c-4.53,0.99-8.18-1.94-9.08-5.8c-1.29-5.56,2.51-9.87,7.49-10.96c1.03-0.23,1.82-0.28,2.37-0.23
			c0.15-0.07,0.19-0.25,0.1-0.67l-1.17-5.05c-0.6-2.58-0.73-2.8-1.69-3.16l-0.64-0.23c-0.27-0.1-0.46-0.71-0.21-0.89
			c1.45-0.76,3.33-2.02,4.78-2.99c0.23-0.09,0.5,0.01,0.63,0.19c0.28,1.56,0.8,3.96,1.18,5.62L223.3,30.83z M218.02,27
			c-0.18-0.77-0.42-1.29-0.95-1.74c-0.73-0.61-1.74-1-2.97-0.73c-2.71,0.59-3.82,3.55-3.06,6.79c0.92,3.98,3.68,6.13,6.51,5.51
			c0.95-0.21,1.91-0.95,2.15-1.36c0.15-0.24,0.15-0.6,0.03-1.14L218.02,27z"/>
		<path d="M234.91,30.75c0.47,2.89,0.7,3.26,2.11,3.28l0.74,0.01c0.33,0.23,0.4,0.94,0.11,1.15c-1.5,0.15-2.88,0.32-4.37,0.55
			c-1.33,0.2-2.69,0.45-4.21,0.77c-0.35-0.11-0.5-0.8-0.27-1.12l0.71-0.23c1.33-0.45,1.43-0.86,0.95-3.75l-0.94-5.74
			c-0.29-1.76-0.36-2.23-1.47-2.66l-0.53-0.2c-0.15-0.14-0.24-0.68-0.11-0.9c2-0.91,3.87-2.08,4.89-2.92c0.25,0,0.46,0.05,0.61,0.23
			c0.13,1.3,0.4,3.18,0.66,4.78L234.91,30.75z M227.49,14.23c-0.22-1.33,0.62-2.5,2.07-2.72c1.45-0.22,2.62,0.64,2.84,1.97
			c0.22,1.33-0.62,2.5-2.07,2.72C228.89,16.42,227.71,15.56,227.49,14.23z"/>
		<path d="M250.75,17.95c0.58,0.42,0.93,1.01,1.04,1.92c0.14,1.26-0.48,1.92-0.81,1.96c-0.28,0.03-0.49-0.03-0.82-0.35
			c-1.02-1.05-2.38-2.18-3.96-2.01c-2.31,0.24-4.46,2.7-4.05,6.39c0.35,3.19,2.8,5.99,6.49,5.61c2.63-0.28,3.46-1.32,4.15-2.54
			c0.36-0.08,0.84,0.15,0.93,0.62c-1.11,3.34-4.11,4.77-6.66,5.03c-2.15,0.22-4.35-0.38-5.87-1.53c-1.57-1.19-2.73-3.14-2.98-5.42
			c-0.51-4.6,2.47-9.17,9-9.85C248.38,17.64,249.57,17.68,250.75,17.95z"/>
		<path d="M261.11,28.28c0.16,2.92,0.35,3.31,1.75,3.47l0.74,0.08c0.3,0.26,0.3,0.98-0.02,1.15c-1.51,0-2.9,0.03-4.41,0.12
			c-1.34,0.07-2.73,0.19-4.27,0.34c-0.33-0.14-0.42-0.85-0.15-1.14l0.73-0.16c1.37-0.31,1.51-0.71,1.35-3.64l-0.33-5.81
			c-0.1-1.78-0.13-2.25-1.18-2.79l-0.5-0.25c-0.13-0.15-0.16-0.7-0.01-0.91c2.08-0.71,4.07-1.68,5.18-2.42
			c0.25,0.03,0.45,0.1,0.59,0.29c-0.01,1.31,0.06,3.21,0.15,4.83L261.11,28.28z M255.48,11.1c-0.08-1.34,0.88-2.42,2.35-2.5
			s2.54,0.89,2.62,2.24c0.08,1.34-0.88,2.42-2.35,2.5C256.63,13.42,255.56,12.45,255.48,11.1z"/>
		<path d="M278.01,27.72c-0.12,2.3,0.49,3.48,1.96,3.48c0.69,0,1.26-0.43,1.39-0.44c0.21,0,0.49,0.44,0.37,0.79
			c-0.82,1.11-2.81,1.74-4.08,1.74c-1.02,0-2.16-0.28-2.94-1.11c-0.28-0.28-0.45-0.47-0.65-0.48c-0.2,0-0.49,0.2-1.1,0.56
			c-0.78,0.48-2,1.03-3.47,1.03c-2.77,0-4.16-1.86-4.16-3.84c0-1.42,0.57-2.73,3.38-3.68c1.43-0.48,2.98-1.03,4.49-1.59
			c0.82-0.28,0.94-0.63,0.94-1.03l0.04-1.03c0.08-2.02-0.49-3.76-2.49-3.76c-1.14,0-2,0.59-2.16,1.74
			c-0.08,0.75-0.32,1.15-0.77,1.42c-0.57,0.36-1.71,0.71-2.61,0.71c-0.53,0-0.77-0.28-0.77-0.63c0-0.47,0.24-1.31,1.59-2.53
			c1.26-1.15,4.2-2.49,6.28-2.49c3.22,0,5.22,1.46,5.06,4.94L278.01,27.72z M274.01,26.38c0-0.44-0.12-0.67-0.33-0.67
			c-0.33,0-1.06,0.2-1.79,0.48c-1.14,0.4-2.2,0.95-2.2,2.65c0,1.03,0.73,2.29,2.28,2.29c1.47,0,1.92-0.95,1.96-1.9L274.01,26.38z"/>
		<path d="M286.36,11.39c0.16-2.65,0.13-2.89-0.85-3.57l-0.43-0.3c-0.24-0.17-0.24-0.81,0.05-0.91c1.61-0.35,3.78-1.06,5.44-1.6
			c0.25-0.02,0.48,0.15,0.55,0.35c-0.18,1.57-0.36,4.02-0.46,5.72l-1.03,17.49c-0.17,2.92-0.03,3.36,1.34,3.64l0.89,0.17
			c0.27,0.29,0.19,1-0.15,1.14c-1.66-0.17-3.05-0.29-4.55-0.37c-1.34-0.07-2.73-0.11-4.4-0.12c-0.32-0.18-0.32-0.89-0.01-1.15
			l0.86-0.07c1.4-0.12,1.58-0.54,1.76-3.47L286.36,11.39z"/>
		<path d="M306.51,24.22c0.29-1.76,0.38-2.1-0.56-2.93l-0.43-0.39c-0.12-0.26-0.05-0.73,0.19-0.89c1.68-0.18,4.28-0.91,5.61-1.5
			c0.32,0.05,0.54,0.24,0.58,0.49c-0.23,0.68-0.39,1.14-0.45,1.49c-0.04,0.23,0.04,0.49,0.24,0.56c0.56-0.16,3.17-1.24,5.27-0.92
			c4.39,0.67,6.41,4.26,5.76,8.29c-0.88,5.43-5.45,8.66-11.37,7.75c-0.48-0.07-1.4-0.29-1.75-0.43c-0.37,0.02-0.65,0.22-0.78,1
			l-0.62,3.83c-0.47,2.89-0.38,3.35,1.01,3.72l1.42,0.38c0.24,0.32,0.08,1.01-0.26,1.12c-2.08-0.4-3.65-0.68-5.14-0.91
			c-1.33-0.2-2.91-0.4-4.53-0.57c-0.3-0.2-0.22-0.91,0.1-1.15l1.07,0.04c1.4,0.05,1.63-0.39,2.1-3.28L306.51,24.22z M309.75,30.96
			c-0.2,1.21,0.15,1.86,0.88,2.7c0.45,0.51,1.4,1.01,2.01,1.11c2.78,0.42,4.77-2.16,5.35-5.75c0.6-3.71-0.96-6.55-4.1-7.03
			c-0.93-0.14-1.74,0.05-2.3,0.45c-0.38,0.3-0.61,0.95-0.87,2.59L309.75,30.96z"/>
		<path d="M329.89,29.44c-0.76-0.17-0.84-0.15-0.95,0.31c-0.83,3.47,0.97,6.8,4.51,7.59c1.59,0.36,3.02,0.15,4.28-1.07
			c0.42-0.03,0.77,0.46,0.73,0.81c-2.09,2.78-5.3,3.27-7.73,2.73c-4.61-1.04-6.88-5.04-5.83-9.43c1.04-4.36,5.11-7.87,10.43-6.67
			c2.94,0.66,5.52,3.19,4.72,6.54c-0.08,0.35-0.18,0.57-0.41,0.84c-0.32,0.29-1.27,0.24-2.86-0.12L329.89,29.44z M333.91,28.72
			c1.15,0.26,1.7,0.26,2.01,0.17c0.28-0.1,0.51-0.37,0.59-0.72c0.33-1.39-0.32-2.71-2.03-3.1c-2.66-0.6-4.49,1.63-4.69,2.44
			c-0.04,0.15,0.01,0.29,0.49,0.39L333.91,28.72z"/>
		<path d="M344.06,31.69c0.52-1.71,0.66-2.16-0.15-3.01l-0.39-0.4c-0.07-0.19,0.09-0.72,0.3-0.86c1.84-0.05,4.17-0.3,5.55-0.64
			c0.23,0.07,0.44,0.25,0.44,0.5c-0.26,0.71-0.49,1.34-0.59,1.69c-0.08,0.27,0.02,0.5,0.25,0.57c1.46-0.49,3.1-1.26,4.43-0.88
			c1.37,0.39,1.89,1.49,1.59,2.47c-0.45,1.48-1.8,1.88-2.86,1.58c-0.39-0.11-0.71-0.33-0.96-0.6c-0.78-0.93-1.43-1.19-1.66-1.26
			c-0.9-0.26-1.4,0.55-1.96,2.41l-1.58,5.2c-0.85,2.81-0.82,3.27,0.5,3.82l1.48,0.59c0.19,0.34-0.05,1.02-0.41,1.08
			c-2.32-0.75-3.64-1.16-5.09-1.58c-1.29-0.37-2.6-0.7-4.11-1.05c-0.27-0.24-0.1-0.94,0.25-1.12l0.74,0.09
			c1.4,0.15,1.67-0.18,2.52-2.99L344.06,31.69z"/>
		<path d="M352.95,44.56c-0.13-0.84,0.34-2.82,1-4.4c0.34-0.22,0.93-0.06,1.1,0.29c-0.07,2.33,0.63,4.79,2.67,5.49
			c1.19,0.41,2.44-0.04,2.92-1.35c0.5-1.38-0.44-2.71-1.55-3.81c-1.66-1.62-3.23-3.71-2.36-6.1c1.03-2.92,4.23-3.76,7.42-2.66
			c1.58,0.54,2.88,1.49,3.3,1.97c0.1,0.91-0.13,2.14-0.74,3.82c-0.22,0.26-0.92,0.15-1.11-0.17c0.05-1.91-0.66-3.75-2.16-4.27
			c-1.23-0.42-2.47,0.12-2.86,1.2c-0.4,1.08,0.43,2.25,1.65,3.42c1.72,1.68,3.45,3.7,2.38,6.65c-1.18,3.24-4.66,3.65-7.7,2.6
			C355.33,46.72,353.86,45.88,352.95,44.56z"/>
		<path d="M384.25,48.74c-2.28,5.16-7.22,6.29-11.68,4.44c-4.31-1.79-6.73-5.94-4.63-10.71c2.15-4.87,7.33-6.34,11.71-4.51
			C383.89,39.72,386.34,44.01,384.25,48.74z M373.66,51.91c2.59,1.08,4.65-1.59,5.89-4.39c1.35-3.05,1.85-7.1-0.92-8.26
			c-1.91-0.79-4.24,0.47-6.03,4.51C371.14,47.07,370.97,50.79,373.66,51.91z"/>
		<path d="M390.27,55.39c-1.4,2.59-1.48,3.09-0.35,3.89l0.5,0.35c0.12,0.37-0.26,0.99-0.62,0.98c-1.23-0.71-2.44-1.37-3.77-2.05
			c-1.16-0.59-2.4-1.18-3.96-1.88c-0.21-0.29,0.09-0.94,0.48-1.05l0.85,0.3c1.32,0.45,1.68,0.14,3.08-2.46l2.78-5.15
			c0.85-1.58,1.08-2,0.46-2.98l-0.3-0.47c-0.03-0.2,0.23-0.68,0.47-0.79c1.78,0.37,4.22,0.54,5.72,0.5
			c0.25,0.13,0.32,0.34,0.32,0.52c-0.43,0.63-0.79,1.29-0.94,1.57c-0.13,0.25-0.06,0.37,0.14,0.52c2.19-0.05,3.65-0.37,5.89,0.76
			c2.93,1.49,3.24,4.15,1.76,6.88l-2.93,5.43c-1.4,2.59-1.48,3.09-0.33,3.85l0.77,0.53c0.12,0.37-0.26,0.99-0.62,0.98
			c-1.48-0.84-2.69-1.5-4.02-2.18c-1.19-0.61-2.44-1.19-3.74-1.77c-0.21-0.29,0.09-0.94,0.48-1.05l0.58,0.21
			c1.32,0.45,1.69,0.1,3.09-2.49l2.61-4.83c0.97-1.79,1-3.55-1.17-4.66c-1.12-0.57-2.33-0.47-2.97-0.13
			c-0.81,0.39-1.02,0.69-1.72,1.98L390.27,55.39z"/>
	</g>
</g>
<path d="M113.78,480.6c-30.66-22.68-55.32-51.11-73.3-84.52c-17.98-33.4-27.94-69.29-29.59-106.65l1.85-0.08
	c1.64,37.1,11.53,72.73,29.38,105.9c17.85,33.17,42.34,61.4,72.78,83.92L113.78,480.6z"/>
<path d="M535.1,267.25l-1.85,0.08c-1.64-37.1-11.53-72.73-29.39-105.9s-42.34-61.4-72.78-83.92l1.12-1.43
	c30.66,22.68,55.32,51.11,73.3,84.52C523.49,194,533.45,229.88,535.1,267.25z"/>
<g>
	<path d="M163,507.31c-1.34-0.57-1.28-0.54-2.35,0.61l-4.75,5.11c-2.35,2.5-1.73,2.89,0.04,3.99l1.38,0.88
		c0.2,0.5-0.25,1.38-0.75,1.4c-1.6-0.8-3.55-1.62-5.63-2.56c-1.69-0.72-3.31-1.34-5.15-2c-0.25-0.4,0.04-1.17,0.6-1.47l1.65,0.4
		c1.6,0.38,2.35,0.22,3.86-1.09c1.2-1.03,2.96-2.78,5.25-5.01l15.03-14.76c1.33-1.33,2.39-2.31,2.61-3.22
		c1.96,0.41,4.57-0.91,4.67-0.87c0.41,0.17,0.6,0.43,0.69,0.77c-0.19,2.59-0.57,5.22-0.76,7.81l-2,24.01
		c-0.32,3.84-0.2,4.25,2.2,5.85l0.7,0.47c0.25,0.52-0.13,1.37-0.6,1.46c-2.06-0.99-3.94-1.85-6.61-2.98
		c-2.21-0.94-4.51-1.79-6.33-2.5c-0.3-0.42,0.05-1.34,0.5-1.51l1.2,0.33c1.96,0.53,2.35,0.34,2.53-2.08l0.64-7.8
		c0.14-1.54-0.06-1.63-1.5-2.24L163,507.31z M170.43,507.79c1.44,0.61,1.69,0.6,1.82-0.77l0.53-6.89c0.26-3.03,0.47-4.31,0.37-4.77
		l-0.1-0.04c-0.36,0.26-1.53,1.49-3.46,3.46l-4.94,4.85c-1.16,1.23-1.06,1.27,0.17,1.79L170.43,507.79z"/>
	<path d="M193.88,518.31c0.61-2.37,0.77-3.01-0.39-4.13l-0.56-0.53c-0.11-0.25,0.08-0.99,0.36-1.2c2.56-0.06,5.82-0.62,7.8-1.15
		c0.38,0.09,0.54,0.35,0.6,0.59c-0.37,0.98-0.62,1.98-0.73,2.4c-0.09,0.37,0.04,0.51,0.35,0.65c3.02-0.73,4.76-1.66,8.46-0.77
		c2.34,0.56,3.83,2.21,4.33,3.39c0.21,0.55,0.45,0.95,0.67,1c0.22,0.05,0.58-0.03,1.33-0.24c2.95-0.92,5.04-1.42,7.6-0.81
		c4.57,1.1,5.88,4.55,4.83,8.67l-2.09,8.18c-1,3.91-0.93,4.54,0.86,5.25l1.16,0.45c0.4,0.49-0.12,1.37-0.39,1.53
		c-2.31-0.67-4.15-1.17-6.16-1.65c-1.8-0.43-3.66-0.82-5.65-1.19c-0.38-0.32-0.19-1.28,0.28-1.56l0.91,0.05
		c1.93,0.13,2.28-0.35,3.28-4.25l1.84-7.18c0.71-2.8,0.27-5.14-3.15-5.97c-1.58-0.38-3.19,0.07-4.05,0.71
		c-0.71,0.5-0.98,1.11-1.35,2.59l-1.98,7.76c-1,3.91-0.94,4.59,0.84,5.3l0.79,0.3c0.29,0.46-0.01,1.4-0.5,1.51
		c-1.88-0.56-3.66-1.05-5.67-1.53c-1.8-0.43-3.66-0.82-5.48-1.15c-0.38-0.31-0.19-1.28,0.28-1.56l0.73,0.06
		c1.92,0.18,2.3-0.4,3.3-4.31l1.83-7.18c0.71-2.8,0.28-5.14-2.88-5.9c-1.85-0.45-3.48,0.06-4.28,0.71
		c-0.87,0.69-1.04,1.15-1.57,3.21l-1.81,7.07c-1,3.91-0.94,4.59,0.84,5.3l0.79,0.3c0.29,0.46-0.01,1.4-0.5,1.5
		c-1.88-0.56-3.71-1.06-5.73-1.54c-1.8-0.43-3.61-0.81-5.7-1.2c-0.38-0.32-0.19-1.28,0.28-1.56l1.02,0.08
		c1.93,0.13,2.28-0.35,3.28-4.25L193.88,518.31z"/>
	<path d="M253.45,536.72c-0.5,3.12,0.17,4.83,2.18,5.03c0.95,0.1,1.79-0.42,1.96-0.41c0.28,0.03,0.61,0.66,0.39,1.13
		c-1.27,1.4-4.1,2-5.83,1.83c-1.39-0.14-2.92-0.67-3.85-1.91c-0.35-0.42-0.55-0.71-0.82-0.74c-0.28-0.03-0.7,0.2-1.59,0.61
		c-1.13,0.54-2.88,1.14-4.89,0.94c-3.79-0.38-5.42-3.11-5.14-5.81c0.21-1.95,1.17-3.66,5.16-4.57c2.02-0.46,4.22-1,6.36-1.56
		c1.16-0.27,1.37-0.74,1.43-1.28l0.2-1.4c0.4-2.75-0.13-5.21-2.86-5.48c-1.56-0.16-2.82,0.54-3.21,2.09
		c-0.22,1.02-0.61,1.52-1.26,1.84c-0.83,0.41-2.45,0.74-3.67,0.62c-0.73-0.07-1.02-0.48-0.97-0.97c0.07-0.65,0.52-1.75,2.54-3.25
		c1.89-1.4,6.1-2.84,8.95-2.56c4.41,0.44,6.93,2.71,6.2,7.45L253.45,536.72z M248.18,534.34c0.06-0.6-0.07-0.94-0.35-0.96
		c-0.45-0.04-1.48,0.13-2.52,0.41c-1.62,0.39-3.15,1-3.39,3.33c-0.15,1.41,0.67,3.24,2.79,3.45c2.01,0.2,2.76-1.04,2.95-2.33
		L248.18,534.34z"/>
	<path d="M271.57,525.22c-1.01-0.02-1.07,0.09-1.1,1.83l-0.15,8.37c-0.06,3.43,0.39,6.48,3.98,6.54c1.12,0.02,1.8-0.35,2.71-0.93
		c0.5,0.06,0.83,0.5,0.71,1.1c-1.15,1.5-3.75,2.93-7.17,2.87c-5.32-0.09-6.23-3.09-6.16-6.9l0.19-11.04
		c0.03-1.9-0.08-1.96-0.98-1.97l-1.96-0.03c-0.56-0.28-0.65-1.15-0.14-1.47c1.92-0.68,3.22-1.36,4.47-2.21
		c1.08-0.74,2.33-1.86,3.14-3.32c0.51-0.32,1.29-0.14,1.56,0.3l-0.06,3.26c-0.01,0.87-0.02,1.03,1.05,1.05l5.55,0.09
		c0.33,0.17,0.44,0.61,0.43,1.15c-0.07,0.65-0.3,1.14-0.75,1.4L271.57,525.22z"/>
	<path d="M287.69,530.98c-1.06,0.07-1.17,0.13-1.13,0.79c0.35,4.88,4.09,8.56,9.07,8.23c2.24-0.15,4.03-0.98,5.18-3.07
		c0.55-0.2,1.2,0.3,1.29,0.79c-1.59,4.47-5.62,6.37-9.03,6.6c-6.49,0.43-11.13-3.95-11.57-10.13c-0.43-6.13,3.45-12.33,10.95-12.83
		c4.14-0.28,8.58,2.04,8.91,6.76c0.03,0.49,0,0.82-0.19,1.27c-0.3,0.51-1.57,0.81-3.81,0.96L287.69,530.98z M292.68,528.47
		c1.62-0.11,2.34-0.32,2.72-0.56c0.32-0.24,0.51-0.69,0.48-1.18c-0.14-1.95-1.54-3.44-3.94-3.28c-3.75,0.25-5.23,3.89-5.15,5.03
		c0.02,0.22,0.14,0.37,0.81,0.33L292.68,528.47z"/>
	<path d="M308.61,527.46c-0.39-2.42-0.5-3.06-2.01-3.66l-0.73-0.27c-0.2-0.19-0.32-0.94-0.14-1.24c2.26-1.12,5-2.75,6.5-3.97
		c0.33-0.05,0.69,0.06,0.85,0.36c0.11,1.03,0.2,1.95,0.28,2.43c0.06,0.38,0.33,0.61,0.66,0.56c1.52-1.44,3.09-3.34,4.97-3.62
		c1.94-0.3,3.25,0.77,3.47,2.16c0.34,2.09-1.1,3.36-2.59,3.59c-0.55,0.09-1.08,0-1.57-0.2c-1.53-0.7-2.49-0.66-2.82-0.61
		c-1.27,0.2-1.4,1.48-0.98,4.11l1.2,7.36c0.65,3.97,0.97,4.53,2.94,4.45l2.2-0.12c0.45,0.32,0.55,1.29,0.14,1.57
		c-3.34,0.4-5.23,0.64-7.28,0.95c-1.83,0.28-3.65,0.61-5.73,1.04c-0.48-0.15-0.69-1.11-0.36-1.54l0.97-0.31
		c1.83-0.61,1.97-1.18,1.32-5.15L308.61,527.46z"/>
	<path d="M345.76,527.64c0.64,3.1,1.87,4.48,3.82,4c0.92-0.23,1.53-1,1.7-1.04c0.27-0.07,0.8,0.42,0.76,0.93
		c-0.7,1.74-3.14,3.24-4.83,3.66c-1.36,0.34-2.98,0.34-4.3-0.51c-0.48-0.28-0.76-0.49-1.03-0.42c-0.27,0.07-0.58,0.42-1.27,1.1
		c-0.87,0.89-2.3,2.03-4.26,2.51c-3.7,0.91-6.19-1.11-6.88-3.75c-0.5-1.9-0.19-3.82,3.23-6.01c1.74-1.1,3.61-2.35,5.43-3.58
		c0.99-0.64,1.03-1.15,0.89-1.68l-0.3-1.38c-0.6-2.71-1.97-4.85-4.63-4.19c-1.52,0.37-2.45,1.45-2.27,3.03
		c0.15,1.03-0.03,1.64-0.54,2.15c-0.64,0.66-2.03,1.51-3.23,1.81c-0.71,0.17-1.13-0.11-1.25-0.59c-0.17-0.63-0.13-1.82,1.24-3.9
		c1.28-1.94,4.73-4.7,7.5-5.38c4.29-1.06,7.47,0.24,8.46,4.93L345.76,527.64z M339.96,527.16c-0.15-0.58-0.4-0.86-0.67-0.79
		c-0.43,0.11-1.34,0.61-2.23,1.22c-1.38,0.9-2.6,1.99-2.01,4.25c0.36,1.37,1.78,2.82,3.84,2.31c1.96-0.48,2.22-1.89,1.94-3.17
		L339.96,527.16z"/>
	<path d="M366.53,505.51c0.91,0.37,1.59,1.06,2.02,2.24c0.61,1.64-0.01,2.72-0.43,2.86c-0.37,0.13-0.67,0.12-1.21-0.21
		c-1.71-1.08-3.9-2.17-5.96-1.45c-3.01,1.05-5.06,5-3.28,9.81c1.54,4.14,5.74,7.13,10.54,5.46c3.43-1.19,4.19-2.85,4.69-4.7
		c0.46-0.22,1.17-0.06,1.45,0.53c-0.36,4.81-3.89,7.66-7.22,8.81c-2.8,0.97-5.94,0.86-8.36-0.21c-2.49-1.1-4.69-3.34-5.79-6.3
		c-2.22-5.99,0.24-13.02,8.73-15.98C363.26,505.84,364.86,505.51,366.53,505.51z"/>
	<path d="M381.22,508.52c-0.96,0.44-1.04,0.54-0.75,1.13c2.16,4.42,7.02,6.53,11.53,4.46c2.03-0.93,3.39-2.33,3.67-4.69
		c0.44-0.38,1.23-0.14,1.5,0.28c0.19,4.72-2.84,7.92-5.94,9.33c-5.88,2.69-11.84,0.25-14.57-5.35c-2.71-5.56-1.41-12.7,5.38-15.82
		c3.75-1.72,8.75-1.12,10.84,3.16c0.22,0.44,0.31,0.76,0.3,1.25c-0.09,0.58-1.16,1.31-3.19,2.24L381.22,508.52z M384.93,504.42
		c1.47-0.67,2.06-1.12,2.32-1.48c0.21-0.34,0.22-0.82,0-1.26c-0.86-1.77-2.72-2.66-4.9-1.66c-3.4,1.56-3.41,5.47-2.91,6.5
		c0.1,0.2,0.27,0.3,0.88,0.02L384.93,504.42z"/>
	<path d="M419.23,487.38c-1.19,0.82-1.14,0.79-0.68,2.27l2.07,6.58c1.01,3.25,1.66,2.92,3.55,2.02l1.49-0.69
		c0.55,0.09,1.09,0.92,0.85,1.35c-1.53,0.92-3.26,2.12-5.17,3.37c-1.51,1.04-2.89,2.06-4.42,3.26c-0.48,0-1.02-0.63-0.99-1.25
		l1.21-1.17c1.16-1.14,1.4-1.84,1.02-3.77c-0.3-1.53-0.93-3.9-1.73-6.95l-5.31-20.09c-0.49-1.8-0.82-3.18-1.51-3.83
		c1.37-1.41,1.54-4.27,1.64-4.33c0.36-0.25,0.69-0.28,1.04-0.18c2.19,1.49,4.32,3.16,6.51,4.65l20.2,14.02
		c3.23,2.24,3.65,2.35,6.31,1.19l0.78-0.34c0.59,0.06,1.14,0.81,0.99,1.25c-1.94,1.2-3.66,2.33-6.04,3.97
		c-1.96,1.36-3.91,2.83-5.47,3.98c-0.53,0.03-1.16-0.74-1.08-1.19l0.91-0.83c1.48-1.36,1.51-1.78-0.54-3.17l-6.57-4.55
		c-1.29-0.91-1.47-0.79-2.75,0.1L419.23,487.38z M423.48,481.45c1.28-0.88,1.4-1.1,0.25-1.91l-5.82-3.99
		c-2.54-1.78-3.57-2.61-4.02-2.76l-0.09,0.06c0.05,0.44,0.53,2.04,1.28,4.65l1.75,6.6c0.49,1.6,0.58,1.54,1.67,0.78L423.48,481.45z"
		/>
	<path d="M449.31,453.29c0.99,0.01,1.88,0.4,2.75,1.32c1.21,1.29,1.07,2.51,0.73,2.81c-0.29,0.26-0.57,0.36-1.2,0.25
		c-2.01-0.36-4.46-0.56-6.08,0.87c-2.37,2.08-2.7,6.5,0.84,10.28c3.05,3.26,8.11,4.46,11.89,1.13c2.7-2.38,2.75-4.18,2.49-6.08
		c0.34-0.37,1.06-0.49,1.55-0.04c1.56,4.58-0.58,8.52-3.2,10.82c-2.2,1.94-5.15,2.99-7.81,2.91c-2.73-0.09-5.65-1.34-7.83-3.68
		c-4.41-4.71-4.92-12.13,1.77-18.01C446.42,454.81,447.77,453.91,449.31,453.29z"/>
	<path d="M476.3,446.43c2.3,2.23,4.11,2.72,5.47,1.27c0.64-0.69,0.7-1.65,0.82-1.77c0.19-0.2,0.91-0.08,1.17,0.37
		c0.42,1.83-0.76,4.39-1.92,5.64c-0.94,1.01-2.28,1.89-3.87,1.89c-0.55,0.03-0.91,0.01-1.1,0.21c-0.19,0.2-0.24,0.67-0.43,1.6
		c-0.21,1.2-0.76,2.93-2.11,4.38c-2.55,2.75-5.79,2.41-7.87,0.59c-1.5-1.31-2.35-3.08-0.76-6.74c0.81-1.85,1.66-3.89,2.46-5.9
		c0.46-1.06,0.2-1.51-0.22-1.88l-1.04-0.99c-2.05-1.94-4.41-2.97-6.25-1c-1.05,1.13-1.21,2.53-0.16,3.74
		c0.72,0.77,0.91,1.38,0.78,2.08c-0.15,0.89-0.83,2.35-1.65,3.24c-0.49,0.53-1,0.51-1.38,0.19c-0.5-0.44-1.15-1.44-1.2-3.91
		c-0.04-2.31,1.24-6.45,3.16-8.52c2.97-3.19,6.35-3.82,9.86-0.46L476.3,446.43z M471.2,449.15c-0.46-0.4-0.82-0.5-1.01-0.29
		c-0.3,0.32-0.77,1.23-1.15,2.21c-0.64,1.5-1.03,3.06,0.76,4.62c1.08,0.95,3.09,1.38,4.52-0.15c1.35-1.45,0.76-2.77-0.2-3.69
		L471.2,449.15z"/>
	<path d="M493.91,420.65c4.14,2.89,5.78,3.57,6.34,2.82c0.36-0.49,0.75-1.29,0.97-2.14c0.54-0.16,1.69,0.51,1.6,1.19
		c-1.44,2.41-3,6.08-3.45,8.18c-0.21,0.19-0.55,0.28-0.89,0.18l-0.62-0.57c-0.62-0.57-1.01-0.77-1.31-0.85l-0.21,0.19
		c0.02,2.02-0.15,4.39-1.72,6.5c-3.74,5.03-10.25,5.24-14.8,2.06c-6.55-4.58-6.69-12.39-2.6-17.9c0.85-1.15,1.61-1.89,2.22-2.34
		c0.09-0.21-0.03-0.42-0.53-0.77l-5.96-4.17c-3.05-2.13-3.38-2.23-4.71-1.75l-0.87,0.33c-0.38,0.14-1.14-0.33-1.05-0.73
		c0.78-2.07,1.53-5.03,2.11-7.3c0.15-0.3,0.53-0.43,0.82-0.36c1.75,1.36,4.54,3.38,6.5,4.74L493.91,420.65z M484.87,421.38
		c-0.91-0.64-1.64-0.95-2.61-0.95c-1.32,0.01-2.73,0.51-3.74,1.87c-2.23,3-0.59,7.03,3.23,9.7c4.69,3.28,9.55,3.05,11.87-0.08
		c0.79-1.06,1.08-2.66,0.93-3.3c-0.06-0.38-0.41-0.75-1.04-1.2L484.87,421.38z"/>
	<path d="M497.82,406.65c-0.53,0.9-0.54,1.02,0.05,1.34c4.38,2.42,9.61,1.43,12.08-2.77c1.11-1.89,1.39-3.8,0.23-5.88
		c0.13-0.55,0.92-0.8,1.39-0.61c2.95,3.76,2.36,8.06,0.67,10.94c-3.22,5.48-9.55,6.8-15.1,3.73c-5.5-3.04-8.67-9.61-4.95-15.94
		c2.05-3.5,6.5-5.79,10.74-3.45c0.44,0.24,0.7,0.45,0.98,0.85c0.27,0.53-0.17,1.72-1.28,3.61L497.82,406.65z M498.43,401.22
		c0.8-1.37,1.02-2.06,1.02-2.5c-0.03-0.39-0.31-0.8-0.75-1.04c-1.75-0.97-3.8-0.66-5,1.37c-1.86,3.17,0.45,6.38,1.47,6.95
		c0.19,0.11,0.4,0.09,0.73-0.47L498.43,401.22z"/>
	<path d="M507.05,387.64c-2.34-0.91-2.97-1.15-4.27-0.2l-0.62,0.46c-0.27,0.07-1-0.21-1.17-0.52c0.29-2.46,0.17-5.67-0.1-7.65
		c0.15-0.35,0.44-0.48,0.69-0.5c0.95,0.49,1.94,0.87,2.35,1.03c0.36,0.14,0.53,0.03,0.71-0.25c-0.33-3-1.04-4.8,0.38-8.23
		c0.9-2.17,2.78-3.37,4.06-3.69c0.59-0.12,1.03-0.3,1.11-0.5c0.08-0.2,0.05-0.57-0.06-1.31c-0.53-2.96-0.76-5.04,0.22-7.41
		c1.75-4.24,5.46-5.02,9.52-3.45l8.07,3.14c3.85,1.5,4.51,1.52,5.48-0.1l0.62-1.05c0.55-0.31,1.38,0.3,1.51,0.59
		c-1,2.13-1.76,3.83-2.53,5.69c-0.69,1.66-1.34,3.4-1.99,5.26c-0.37,0.32-1.33,0.01-1.55-0.49l0.18-0.87
		c0.4-1.84-0.04-2.24-3.89-3.74l-7.08-2.75c-2.76-1.07-5.22-0.97-6.53,2.21c-0.6,1.46-0.37,3.08,0.16,3.99
		c0.42,0.75,1,1.09,2.45,1.66l7.65,2.97c3.85,1.5,4.56,1.54,5.53-0.08l0.42-0.72c0.51-0.21,1.43,0.2,1.47,0.69
		c-0.83,1.73-1.57,3.37-2.35,5.24c-0.69,1.67-1.35,3.4-1.93,5.11c-0.37,0.32-1.33,0.01-1.55-0.49l0.17-0.7
		c0.45-1.82-0.09-2.26-3.94-3.76l-7.08-2.75c-2.76-1.07-5.21-0.97-6.42,1.95c-0.71,1.72-0.42,3.35,0.13,4.21
		c0.58,0.93,1.03,1.16,3.06,1.95l6.97,2.71c3.85,1.5,4.56,1.54,5.53-0.08l0.42-0.72c0.51-0.21,1.43,0.2,1.47,0.69
		c-0.83,1.73-1.59,3.42-2.37,5.29c-0.69,1.66-1.32,3.35-2.01,5.31c-0.37,0.32-1.33,0.01-1.55-0.49l0.22-0.97
		c0.4-1.84-0.04-2.24-3.89-3.74L507.05,387.64z"/>
	<path d="M507.03,340.71c-1.84-0.47-2.9-2.14-2.39-4.03c0.51-1.89,2.28-2.85,4.12-2.38c1.84,0.47,2.9,2.14,2.39,4.03
		C510.64,340.22,508.87,341.18,507.03,340.71z M532.57,340.79c4.01,1.02,4.61,0.95,5.42-0.76l0.42-0.91
		c0.48-0.27,1.44,0.03,1.54,0.5c-0.63,1.92-1.17,3.69-1.7,5.64c-0.47,1.74-0.9,3.54-1.33,5.57c-0.33,0.37-1.32,0.17-1.6-0.29
		l0.09-0.99c0.16-1.87-0.33-2.22-4.34-3.24l-7.97-2.02c-2.44-0.62-3.09-0.79-4.26,0.32l-0.55,0.53c-0.26,0.1-1.02-0.09-1.23-0.37
		c-0.07-2.94-0.56-5.88-1.08-7.58c0.14-0.3,0.32-0.54,0.63-0.63c1.76,0.56,4.35,1.27,6.57,1.84L532.57,340.79z"/>
	<path d="M537.21,316.21c3.17,0.71,4.97,0.19,5.33-1.74c0.17-0.91-0.3-1.76-0.28-1.92c0.05-0.27,0.72-0.54,1.19-0.29
		c1.35,1.34,1.76,4.11,1.45,5.77c-0.24,1.34-0.9,2.77-2.25,3.59c-0.46,0.31-0.77,0.48-0.82,0.74s0.16,0.69,0.51,1.58
		c0.48,1.13,0.96,2.87,0.61,4.8c-0.67,3.64-3.59,5.02-6.35,4.54c-1.99-0.34-3.67-1.4-4.32-5.33c-0.32-1.99-0.72-4.15-1.13-6.27
		c-0.19-1.14-0.66-1.38-1.21-1.48l-1.42-0.3c-2.8-0.59-5.36-0.26-5.84,2.37c-0.27,1.5,0.35,2.77,1.91,3.26
		c1.03,0.29,1.52,0.7,1.8,1.36c0.36,0.83,0.58,2.42,0.37,3.6c-0.13,0.7-0.57,0.95-1.07,0.87c-0.66-0.11-1.76-0.63-3.15-2.7
		c-1.3-1.94-2.47-6.11-1.97-8.84c0.77-4.23,3.29-6.5,8.11-5.45L537.21,316.21z M534.38,321.14c-0.61-0.1-0.97,0-1.02,0.27
		c-0.08,0.43,0.02,1.44,0.23,2.47c0.28,1.59,0.8,3.12,3.17,3.53c1.43,0.25,3.38-0.41,3.75-2.45c0.35-1.93-0.87-2.74-2.18-3.02
		L534.38,321.14z"/>
</g>
</svg>
