<?xml version="1.0" encoding="utf-8"?>
<!-- Generator: Adobe Illustrator 26.5.0, SVG Export Plug-In . SVG Version: 6.00 Build 0)  -->
<svg version="1.1" id="レイヤー_1" xmlns="http://www.w3.org/2000/svg" xmlns:xlink="http://www.w3.org/1999/xlink" x="0px"
	 y="0px" viewBox="0 0 550 550" style="enable-background:new 0 0 550 550;" xml:space="preserve">
<g>
	<path d="M120.99,296.06c-6.08,0-5.85,0-7.95,6.32l-9.36,28.08c-4.68,13.8-1.64,14.27,7.02,15.67l6.78,1.17
		c1.64,1.64,1.4,5.85-0.47,6.79c-7.49-0.47-16.38-0.47-25.97-0.7c-7.72,0-14.97,0.23-23.16,0.7c-1.64-1.17-1.87-4.68-0.23-6.79
		l7.02-1.17c6.78-1.17,9.36-3.04,12.87-10.76c2.81-6.08,6.55-15.91,11.46-28.54l32.05-83.29c2.81-7.49,5.15-13.1,4.45-17.08
		c8.19-1.64,15.91-11.23,16.38-11.23c1.87,0,3.04,0.7,3.98,1.87c3.74,10.53,6.78,21.52,10.53,32.05l33.69,98.03
		c5.38,15.68,6.55,17.08,18.48,19.42l3.51,0.7c1.87,1.64,1.87,5.62,0.23,6.79c-9.59-0.47-18.25-0.7-30.41-0.7
		c-10.06,0-20.35,0.47-28.54,0.7c-1.87-1.17-2.11-5.38-0.7-6.79l5.15-0.7c8.42-1.17,9.59-2.57,6.08-12.4l-11-31.82
		c-2.1-6.32-3.04-6.32-9.59-6.32H120.99z M150.24,285.53c6.55,0,7.49-0.47,5.62-6.08l-9.83-28.08c-4.21-12.4-5.61-17.78-6.78-19.42
		h-0.47c-0.94,1.64-3.27,8.42-7.25,19.42l-10.53,27.37c-2.34,6.79-1.87,6.79,3.74,6.79H150.24z"/>
	<path d="M263.71,218.62c0-9.83-0.23-10.29-6.32-10.29h-13.1c-21.52,0-27.84,2.57-36.5,21.52c-1.64,1.4-6.55,0.7-7.49-1.64
		c3.98-12.63,7.49-27.14,9.12-35.33c0.47-0.7,1.4-0.94,2.57-0.94c0.94,0,1.87,0.23,2.34,0.94c1.17,5.85,4.45,6.08,20.35,6.08h95.46
		c11.46,0,14.97-0.7,17.78-6.08c0.94-0.47,1.87-0.94,2.81-0.94c1.4,0,2.57,0.47,3.04,1.17c-2.34,9.59-4.21,29.71-3.51,37.2
		c-1.17,1.87-5.15,2.34-7.25,0.7c-3.04-18.25-7.49-22.69-32.52-22.69h-13.33c-6.08,0-6.32,0.47-6.32,10.29v101.07
		c0,24.8,2.11,25.5,13.1,26.67l8.42,0.94c1.64,1.64,1.4,5.85-0.47,6.79c-13.57-0.47-24.1-0.7-34.39-0.7s-21.29,0.23-36.26,0.7
		c-1.87-0.94-2.1-5.62-0.47-6.79l9.83-1.17c11-1.4,13.1-1.64,13.1-26.44V218.62z"/>
	<path d="M385.13,296.06c-6.08,0-5.85,0-7.95,6.32l-9.36,28.08c-4.68,13.8-1.64,14.27,7.02,15.67l6.78,1.17
		c1.64,1.64,1.4,5.85-0.47,6.79c-7.49-0.47-16.38-0.47-25.97-0.7c-7.72,0-14.97,0.23-23.16,0.7c-1.64-1.17-1.87-4.68-0.23-6.79
		l7.02-1.17c6.78-1.17,9.36-3.04,12.87-10.76c2.81-6.08,6.55-15.91,11.46-28.54l32.05-83.29c2.81-7.49,5.15-13.1,4.45-17.08
		c8.19-1.64,15.91-11.23,16.38-11.23c1.87,0,3.04,0.7,3.98,1.87c3.74,10.53,6.79,21.52,10.53,32.05l33.69,98.03
		c5.38,15.68,6.55,17.08,18.48,19.42l3.51,0.7c1.87,1.64,1.87,5.62,0.23,6.79c-9.59-0.47-18.25-0.7-30.41-0.7
		c-10.06,0-20.35,0.47-28.54,0.7c-1.87-1.17-2.11-5.38-0.7-6.79l5.15-0.7c8.42-1.17,9.59-2.57,6.08-12.4l-11-31.82
		c-2.1-6.32-3.04-6.32-9.59-6.32H385.13z M414.38,285.53c6.55,0,7.49-0.47,5.61-6.08l-9.83-28.08c-4.21-12.4-5.61-17.78-6.78-19.42
		h-0.47c-0.94,1.64-3.27,8.42-7.25,19.42l-10.53,27.37c-2.34,6.79-1.87,6.79,3.74,6.79H414.38z"/>
</g>
</svg>
