<?xml version="1.0" encoding="utf-8"?>
<!-- Generator: Adobe Illustrator 26.5.0, SVG Export Plug-In . SVG Version: 6.00 Build 0)  -->
<svg version="1.1" id="レイヤー_1" xmlns="http://www.w3.org/2000/svg" xmlns:xlink="http://www.w3.org/1999/xlink" x="0px"
	 y="0px" viewBox="0 0 536.68 553.3" style="enable-background:new 0 0 536.68 553.3;" xml:space="preserve">
<g>
	<g>
		<path d="M101.5,301.87c-6.08,0-5.85,0-7.95,6.32l-9.36,28.08c-4.68,13.8-1.64,14.27,7.02,15.67l6.78,1.17
			c1.64,1.64,1.4,5.85-0.47,6.79c-7.49-0.47-16.38-0.47-25.97-0.7c-7.72,0-14.97,0.23-23.16,0.7c-1.64-1.17-1.87-4.68-0.23-6.79
			l7.02-1.17c6.78-1.17,9.36-3.04,12.87-10.76c2.81-6.08,6.55-15.91,11.46-28.54l32.05-83.29c2.81-7.49,5.15-13.1,4.45-17.08
			c8.19-1.64,15.91-11.23,16.38-11.23c1.87,0,3.04,0.7,3.98,1.87c3.74,10.53,6.78,21.52,10.53,32.05l33.69,98.03
			c5.38,15.68,6.55,17.08,18.48,19.42l3.51,0.7c1.87,1.64,1.87,5.62,0.23,6.79c-9.59-0.47-18.25-0.7-30.41-0.7
			c-10.06,0-20.35,0.47-28.54,0.7c-1.87-1.17-2.11-5.38-0.7-6.79l5.15-0.7c8.42-1.17,9.59-2.57,6.08-12.4l-11-31.82
			c-2.1-6.32-3.04-6.32-9.59-6.32H101.5z M130.75,291.34c6.55,0,7.49-0.47,5.62-6.08l-9.83-28.08c-4.21-12.4-5.61-17.78-6.78-19.42
			h-0.47c-0.94,1.64-3.27,8.42-7.25,19.42l-10.53,27.37c-2.34,6.79-1.87,6.79,3.74,6.79H130.75z"/>
		<path d="M244.22,224.43c0-9.83-0.23-10.29-6.32-10.29h-13.1c-21.52,0-27.84,2.57-36.5,21.52c-1.64,1.4-6.55,0.7-7.49-1.64
			c3.98-12.63,7.49-27.14,9.12-35.33c0.47-0.7,1.4-0.94,2.57-0.94c0.94,0,1.87,0.23,2.34,0.94c1.17,5.85,4.45,6.08,20.35,6.08h95.46
			c11.46,0,14.97-0.7,17.78-6.08c0.94-0.47,1.87-0.94,2.81-0.94c1.4,0,2.57,0.47,3.04,1.17c-2.34,9.59-4.21,29.71-3.51,37.2
			c-1.17,1.87-5.15,2.34-7.25,0.7c-3.04-18.25-7.49-22.69-32.52-22.69h-13.33c-6.08,0-6.32,0.47-6.32,10.29V325.5
			c0,24.8,2.11,25.5,13.1,26.67l8.42,0.94c1.64,1.64,1.4,5.85-0.47,6.79c-13.57-0.47-24.1-0.7-34.39-0.7s-21.29,0.23-36.26,0.7
			c-1.87-0.94-2.1-5.62-0.47-6.79l9.83-1.17c11-1.4,13.1-1.64,13.1-26.44V224.43z"/>
		<path d="M365.64,301.87c-6.08,0-5.85,0-7.95,6.32l-9.36,28.08c-4.68,13.8-1.64,14.27,7.02,15.67l6.78,1.17
			c1.64,1.64,1.4,5.85-0.47,6.79c-7.49-0.47-16.38-0.47-25.97-0.7c-7.72,0-14.97,0.23-23.16,0.7c-1.64-1.17-1.87-4.68-0.23-6.79
			l7.02-1.17c6.78-1.17,9.36-3.04,12.87-10.76c2.81-6.08,6.55-15.91,11.46-28.54l32.05-83.29c2.81-7.49,5.15-13.1,4.45-17.08
			c8.19-1.64,15.91-11.23,16.38-11.23c1.87,0,3.04,0.7,3.98,1.87c3.74,10.53,6.79,21.52,10.53,32.05l33.69,98.03
			c5.38,15.68,6.55,17.08,18.48,19.42l3.51,0.7c1.87,1.64,1.87,5.62,0.23,6.79c-9.59-0.47-18.25-0.7-30.41-0.7
			c-10.06,0-20.35,0.47-28.54,0.7c-1.87-1.17-2.11-5.38-0.7-6.79l5.15-0.7c8.42-1.17,9.59-2.57,6.08-12.4l-11-31.82
			c-2.1-6.32-3.04-6.32-9.59-6.32H365.64z M394.89,291.34c6.55,0,7.49-0.47,5.61-6.08l-9.83-28.08c-4.21-12.4-5.61-17.78-6.78-19.42
			h-0.47c-0.94,1.64-3.27,8.42-7.25,19.42l-10.53,27.37c-2.34,6.79-1.87,6.79,3.74,6.79H394.89z"/>
	</g>
	<g>
		<g>
			<path d="M4.4,242.31c0.42-0.07,0.87-0.1,1.76,0.01c3.38,0.41,6.37,3.06,5.75,8.17c-0.06,0.48-0.2,1-0.35,1.51
				c0.25,0.68,0.69,1.35,1.42,1.44c0.81,0.1,1.64-0.37,1.84-2.02c0.14-1.17,0.25-2.71,0.45-4.44c0.35-2.9,1.28-6.5,5.66-5.97
				c2.09,0.25,3.89,1.94,4.6,3.13c1.23,1.95,2.13,4.67,1.71,8.13c-0.69,5.68-3.57,7.21-5.66,6.95c-0.6-0.07-1.12-0.22-1.66-0.77
				c-0.36-0.41-1.06-2.05-1.51-2.71c-0.2-0.35-0.69-0.7-0.86-0.35c-0.65,1.35-2.09,2.44-3.66,2.25c-0.4-0.05-0.7-0.25-0.93-0.76
				c-0.25-0.64-1.26-2.77-1.82-2.83c-0.12-0.01-0.36-0.04-0.46,0.11c-0.73,1.3-2.53,2.72-5.15,2.4c-3.62-0.44-5.99-3.79-5.47-8.13
				c0.2-1.61,0.69-2.98,1.34-3.96c0.5-0.8,0.76-1.21,0.82-1.7l0.48-3.94c0.14-0.15,0.44-0.27,0.76-0.23
				c0.81,0.1,1.25,0.48,1.29,0.81L4.4,242.31z M10.47,249.57c0.18-1.53-1.01-2.82-3.82-3.16c-2.74-0.33-4.85,0.6-5.07,2.41
				c-0.17,1.41,1.01,2.82,3.78,3.15C8.46,252.35,10.28,251.1,10.47,249.57z M18.44,250.86c-0.17,1.41-0.15,2.27,0.15,2.8
				c0.44,0.75,1.1,1.36,2.11,1.48c2.45,0.3,4.33-1.68,4.7-4.78c0.41-3.42-0.76-5.52-3.1-5.8c-2.05-0.25-3.29,1.52-3.59,4.02
				L18.44,250.86z"/>
			<path d="M9.28,233.67c-0.14,0.76-0.12,0.84,0.36,0.94c3.59,0.68,6.93-1.24,7.6-4.78c0.3-1.59,0.04-3.01-1.26-4.2
				c-0.04-0.42,0.44-0.78,0.8-0.75c2.93,1.96,3.56,5.14,3.1,7.57c-0.88,4.62-4.89,7.04-9.43,6.17c-4.5-0.86-8.26-4.75-7.24-10.09
				c0.56-2.95,3.05-5.61,6.52-4.95c0.36,0.07,0.59,0.15,0.88,0.37c0.31,0.31,0.3,1.26-0.01,2.85L9.28,233.67z M8.38,229.7
				c0.22-1.15,0.2-1.69,0.09-2c-0.11-0.27-0.4-0.49-0.76-0.56c-1.43-0.27-2.76,0.42-3.09,2.13c-0.51,2.67,1.84,4.4,2.68,4.56
				c0.16,0.03,0.29-0.03,0.39-0.5L8.38,229.7z"/>
			<path d="M17.81,216.93c2.9,0.77,3.41,0.74,3.96-0.54l0.23-0.57c0.35-0.2,1.04,0.03,1.11,0.38c-0.44,1.35-0.84,2.67-1.22,4.12
				c-0.34,1.25-0.65,2.6-1.01,4.26c-0.24,0.27-0.96,0.12-1.16-0.23l0.11-0.89c0.16-1.38-0.23-1.66-3.13-2.43l-5.76-1.54
				c-1.76-0.47-2.23-0.6-3.08,0.23l-0.4,0.4c-0.19,0.08-0.74-0.07-0.89-0.28c-0.02-1.81-0.39-4.21-0.76-5.66
				c0.07-0.27,0.27-0.39,0.45-0.43c0.72,0.28,1.47,0.48,1.78,0.56c0.28,0.07,0.39-0.02,0.49-0.25c-0.53-2.11-1.18-3.46-0.53-5.89
				c0.85-3.17,3.44-4.08,6.49-3.26l6.07,1.62c2.9,0.77,3.41,0.74,3.92-0.55l0.36-0.87c0.35-0.2,1.04,0.03,1.11,0.38
				c-0.52,1.63-0.91,2.95-1.3,4.4c-0.35,1.29-0.66,2.64-0.95,4.03c-0.24,0.27-0.95,0.12-1.16-0.23l0.08-0.61
				c0.16-1.38-0.27-1.67-3.17-2.44l-5.41-1.44c-2-0.54-3.77-0.17-4.4,2.18c-0.32,1.21,0.04,2.36,0.52,2.91
				c0.57,0.7,0.91,0.83,2.36,1.22L17.81,216.93z"/>
			<path d="M18.64,197.17c-0.25,0.73-0.24,0.82,0.22,0.98c3.45,1.19,7.03-0.23,8.21-3.64c0.53-1.53,0.46-2.97-0.65-4.34
				c0.02-0.42,0.55-0.71,0.9-0.63c2.62,2.36,2.79,5.59,1.98,7.93c-1.53,4.45-5.85,6.26-10.22,4.75c-4.33-1.49-7.49-5.88-5.72-11.02
				c0.98-2.84,3.82-5.11,7.16-3.97c0.34,0.12,0.56,0.24,0.82,0.5c0.26,0.35,0.11,1.28-0.41,2.82L18.64,197.17z M18.32,193.12
				c0.38-1.11,0.44-1.65,0.38-1.97c-0.08-0.28-0.33-0.54-0.67-0.66c-1.38-0.48-2.79,0.02-3.36,1.67c-0.89,2.57,1.2,4.61,2,4.89
				c0.15,0.05,0.29,0.02,0.45-0.44L18.32,193.12z"/>
			<path d="M22.4,183.41c-1.69-0.69-2.14-0.88-3.08-0.17l-0.45,0.34c-0.2,0.05-0.72-0.16-0.85-0.39c0.14-1.83,0.13-4.16-0.08-5.56
				c0.09-0.23,0.3-0.4,0.55-0.39c0.7,0.33,1.32,0.63,1.66,0.77c0.26,0.11,0.51,0.03,0.6-0.19c-0.35-1.5-0.96-3.2-0.44-4.48
				c0.54-1.31,1.71-1.71,2.69-1.31c1.46,0.6,1.73,1.98,1.31,2.99c-0.16,0.37-0.41,0.67-0.72,0.89c-1.02,0.68-1.36,1.28-1.45,1.51
				c-0.36,0.86,0.41,1.44,2.25,2.2l5.14,2.11c2.78,1.14,3.25,1.16,3.94-0.09l0.75-1.4c0.37-0.15,1.03,0.16,1.06,0.52
				c-1,2.22-1.56,3.48-2.13,4.87c-0.51,1.24-0.98,2.49-1.49,3.95c-0.27,0.24-0.96,0-1.12-0.37l0.16-0.72
				c0.3-1.37-0.01-1.67-2.79-2.81L22.4,183.41z"/>
			<path d="M37.69,163.16c2.06,1.13,3.42,1.12,4.06-0.2c0.3-0.62,0.15-1.32,0.2-1.43c0.09-0.18,0.61-0.24,0.89,0.03
				c0.67,1.22,0.39,3.29-0.16,4.43c-0.44,0.91-1.19,1.81-2.29,2.13c-0.38,0.13-0.63,0.19-0.72,0.37c-0.09,0.18-0.03,0.53,0.04,1.23
				c0.1,0.9,0.08,2.25-0.55,3.56c-1.2,2.48-3.52,2.89-5.34,2.01c-1.31-0.64-2.27-1.73-1.93-4.67c0.18-1.49,0.34-3.12,0.48-4.72
				c0.1-0.85-0.18-1.12-0.54-1.3l-0.93-0.5c-1.83-0.97-3.68-1.24-4.54,0.55c-0.49,1.02-0.32,2.05,0.67,2.71
				c0.66,0.41,0.92,0.8,0.98,1.33c0.08,0.67-0.09,1.85-0.48,2.65c-0.23,0.47-0.59,0.57-0.92,0.41c-0.44-0.21-1.1-0.8-1.65-2.55
				c-0.51-1.64-0.48-4.87,0.42-6.73c1.4-2.88,3.61-4.02,6.75-2.32L37.69,163.16z M34.71,166.13c-0.4-0.19-0.67-0.19-0.76-0.01
				c-0.14,0.29-0.28,1.04-0.34,1.82c-0.13,1.2-0.08,2.39,1.49,3.15c0.95,0.46,2.43,0.37,3.1-1.02c0.64-1.31-0.04-2.14-0.9-2.6
				L34.71,166.13z"/>
			<path d="M26.26,148.36c-2.37-1.32-2.6-1.4-3.66-0.83l-0.47,0.25c-0.26,0.13-0.85-0.15-0.81-0.45c0.38-1.6,0.66-3.85,0.89-5.59
				c0.08-0.23,0.34-0.37,0.56-0.34c1.38,0.86,3.55,2.12,5.08,2.97l15.69,8.74c2.62,1.46,3.09,1.54,3.94,0.43l0.54-0.72
				c0.39-0.11,1,0.28,0.99,0.64c-0.88,1.41-1.59,2.6-2.32,3.91c-0.65,1.17-1.29,2.39-2.03,3.88c-0.3,0.2-0.96-0.11-1.07-0.5
				l0.31-0.8c0.49-1.3,0.18-1.66-2.44-3.12L26.26,148.36z"/>
			<path d="M49.09,123.67c0.7-0.16,1.39-0.03,2.16,0.5c1.07,0.73,1.19,1.64,1,1.91c-0.16,0.23-0.34,0.36-0.8,0.38
				c-1.47,0.08-3.23,0.35-4.12,1.65c-1.3,1.91-0.77,5.16,2.37,7.31c2.71,1.85,6.48,1.87,8.56-1.18c1.48-2.18,1.21-3.49,0.69-4.83
				c0.17-0.33,0.66-0.53,1.08-0.29c1.89,3.06,1.07,6.27-0.37,8.38c-1.21,1.77-3.1,3.04-4.98,3.42c-1.94,0.4-4.2-0.02-6.15-1.35
				c-3.92-2.67-5.56-7.96-1.88-13.35C47.32,125.26,48.12,124.38,49.09,123.67z"/>
			<path d="M68.24,111.69c4.51,3.58,4.35,8.62,1.35,12.4c-2.9,3.65-7.63,4.87-11.79,1.57c-4.26-3.38-4.36-8.73-1.41-12.45
				C59.22,109.62,64.11,108.42,68.24,111.69z M68.62,122.7c1.74-2.19-0.37-4.89-2.81-6.83c-2.67-2.11-6.55-3.69-8.41-1.34
				c-1.28,1.62-0.64,4.2,2.89,7C63.18,123.82,66.8,124.99,68.62,122.7z"/>
			<path d="M69.19,106.82c-1.35-1.22-1.72-1.55-2.85-1.2l-0.54,0.17c-0.2-0.02-0.62-0.4-0.67-0.65c0.75-1.67,1.52-3.87,1.8-5.26
				c0.16-0.18,0.41-0.28,0.65-0.18c0.54,0.54,1.03,1.04,1.3,1.28c0.21,0.19,0.47,0.21,0.63,0.02c0.18-1.53,0.17-3.34,1.1-4.36
				c0.95-1.05,2.19-1.03,2.97-0.33c1.17,1.06,0.96,2.45,0.22,3.26c-0.27,0.3-0.61,0.49-0.97,0.59c-1.19,0.29-1.71,0.75-1.88,0.93
				c-0.62,0.69-0.09,1.5,1.38,2.83l4.12,3.72c2.23,2.01,2.67,2.19,3.74,1.24l1.18-1.07c0.4-0.02,0.91,0.5,0.82,0.85
				c-1.69,1.75-2.64,2.75-3.65,3.86c-0.9,0.99-1.76,2.01-2.73,3.21c-0.34,0.13-0.91-0.33-0.93-0.73l0.4-0.62
				c0.74-1.19,0.55-1.58-1.68-3.59L69.19,106.82z"/>
			<path d="M78.94,96.2c-1.27-1.31-1.49-1.61-2.73-1.37l-0.57,0.1c-0.28-0.06-0.62-0.41-0.62-0.7c0.86-1.45,1.83-3.95,2.14-5.38
				c0.23-0.22,0.52-0.28,0.75-0.16c0.42,0.61,0.7,1.02,0.95,1.28c0.17,0.18,0.43,0.27,0.6,0.15c0.21-0.54,0.89-3.28,2.41-4.74
				c3.18-3.07,7.33-2.44,10.23,0.57c3.91,4.06,3.8,9.68-0.5,13.81c-0.35,0.34-1.08,0.93-1.4,1.12c-0.21,0.31-0.21,0.66,0.35,1.24
				l2.76,2.86c2.08,2.16,2.51,2.37,3.64,1.5l1.16-0.9c0.4,0.01,0.88,0.56,0.76,0.9c-1.58,1.4-2.74,2.47-3.82,3.51
				c-0.96,0.93-2.08,2.05-3.19,3.24c-0.35,0.11-0.88-0.39-0.87-0.79l0.68-0.82c0.88-1.07,0.66-1.54-1.42-3.7L78.94,96.2z
				 M86.39,97.8c0.87,0.9,1.61,1.03,2.73,0.97c0.69-0.04,1.67-0.48,2.11-0.91c2.02-1.94,1.1-5.11-1.49-7.8
				c-2.67-2.78-5.93-3.3-8.21-1.1c-0.67,0.65-1,1.41-1.01,2.1c0.02,0.49,0.41,1.07,1.59,2.3L86.39,97.8z"/>
			<path d="M108.04,73.86c3.65,4.45,2.42,9.34-1.31,12.4c-3.6,2.96-8.49,3.14-11.86-0.97c-3.44-4.2-2.41-9.46,1.26-12.46
				C99.67,69.93,104.7,69.79,108.04,73.86z M106.08,84.7c2.16-1.77,0.68-4.86-1.3-7.27c-2.16-2.63-5.62-4.99-7.93-3.09
				c-1.6,1.31-1.51,3.97,1.34,7.45C100.52,84.65,103.82,86.55,106.08,84.7z"/>
			<path d="M109.97,69.31c-1.07-1.48-1.35-1.88-2.53-1.78l-0.56,0.05c-0.19-0.06-0.53-0.52-0.51-0.78c1.08-1.48,2.31-3.46,2.87-4.76
				c0.2-0.14,0.47-0.19,0.67-0.04c0.42,0.65,0.79,1.23,1,1.53c0.17,0.23,0.42,0.3,0.61,0.16c0.5-1.46,0.88-3.23,1.99-4.03
				c1.15-0.83,2.36-0.55,2.97,0.31c0.92,1.28,0.42,2.59-0.47,3.24c-0.33,0.24-0.7,0.35-1.08,0.38c-1.22,0.03-1.83,0.37-2.03,0.51
				c-0.76,0.54-0.41,1.44,0.75,3.06l3.24,4.51c1.75,2.44,2.15,2.7,3.39,2.01l1.38-0.79c0.4,0.06,0.79,0.68,0.62,1
				c-2.02,1.36-3.17,2.13-4.38,3c-1.09,0.78-2.15,1.6-3.35,2.56c-0.36,0.06-0.82-0.51-0.75-0.91l0.52-0.53
				c0.98-1,0.87-1.43-0.88-3.86L109.97,69.31z"/>
			<path d="M133.72,60.17c1.15,2.05,2.31,2.76,3.55,1.98c0.58-0.37,0.82-1.05,0.93-1.11c0.17-0.11,0.65,0.12,0.74,0.49
				c-0.08,1.39-1.42,3-2.48,3.67c-0.86,0.54-1.97,0.91-3.07,0.6c-0.39-0.09-0.64-0.17-0.81-0.07c-0.17,0.11-0.3,0.43-0.62,1.06
				c-0.39,0.82-1.12,1.95-2.35,2.73c-2.33,1.47-4.51,0.59-5.59-1.12c-0.78-1.24-1.01-2.67,0.84-4.98c0.94-1.17,1.94-2.47,2.91-3.75
				c0.53-0.67,0.44-1.04,0.23-1.39l-0.53-0.91c-1.03-1.79-2.46-3-4.15-1.94c-0.96,0.6-1.35,1.57-0.87,2.66
				c0.34,0.69,0.35,1.17,0.13,1.64c-0.29,0.61-1.05,1.52-1.8,2c-0.45,0.28-0.8,0.17-1-0.14c-0.26-0.41-0.51-1.26-0.05-3.04
				c0.44-1.66,2.17-4.39,3.92-5.49c2.71-1.71,5.19-1.5,6.95,1.61L133.72,60.17z M129.62,61.12c-0.24-0.38-0.47-0.52-0.64-0.41
				c-0.27,0.17-0.78,0.73-1.25,1.36c-0.74,0.95-1.33,1.99-0.4,3.46c0.56,0.89,1.87,1.6,3.17,0.78c1.23-0.78,1.09-1.84,0.61-2.68
				L129.62,61.12z"/>
			<path d="M138.95,46.8c-0.64,0.35-0.63,0.44-0.01,1.58l3.03,5.46c1.24,2.23,2.66,4.04,4.93,2.78c0.71-0.39,1-0.88,1.35-1.58
				c0.34-0.14,0.71,0.02,0.85,0.45c-0.16,1.39-1.26,3.25-3.42,4.45c-3.37,1.87-5.05,0.25-6.43-2.23l-3.99-7.2
				c-0.69-1.24-0.78-1.24-1.35-0.92l-1.24,0.69c-0.45,0.02-0.84-0.51-0.64-0.9c0.95-1.13,1.51-2.04,1.98-3.04
				c0.4-0.87,0.76-2.05,0.73-3.28c0.2-0.39,0.76-0.56,1.09-0.37l1.18,2.13c0.31,0.57,0.37,0.67,1.05,0.3l3.51-1.95
				c0.27-0.01,0.5,0.23,0.7,0.59c0.2,0.44,0.24,0.84,0.05,1.18L138.95,46.8z"/>
			<path d="M150.48,45.96c-0.69,0.34-0.75,0.41-0.54,0.85c1.59,3.28,5.12,4.81,8.37,3.24c1.46-0.71,2.43-1.76,2.62-3.52
				c0.31-0.29,0.89-0.12,1.09,0.19c0.17,3.52-2,5.92-4.22,7c-4.23,2.05-8.56,0.27-10.57-3.89c-2-4.12-1.11-9.46,3.78-11.83
				c2.7-1.31,6.32-0.9,7.86,2.28c0.16,0.33,0.23,0.56,0.22,0.93c-0.06,0.43-0.83,0.99-2.29,1.69L150.48,45.96z M153.13,42.88
				c1.06-0.51,1.48-0.85,1.67-1.12c0.15-0.25,0.15-0.61-0.01-0.94c-0.64-1.31-1.99-1.96-3.55-1.21c-2.45,1.18-2.43,4.1-2.06,4.87
				c0.07,0.15,0.2,0.22,0.64,0.01L153.13,42.88z"/>
			<path d="M179.48,41.62c0.99,2.62,1.52,4.72,1.43,6.44c-0.14,3.3-2,6.3-4.34,8.61c-0.45,0.08-0.86-0.33-0.89-0.88
				c0.79-0.9,1.46-1.98,1.69-2.98c0.37-1.66,0.1-4.46-1.58-8.9l-3.35-8.88c-0.64-1.71-0.82-2.16-1.98-2.37l-0.55-0.09
				c-0.17-0.11-0.37-0.64-0.29-0.89c1.76-1.31,3.34-2.86,4.16-3.91c0.24-0.05,0.46-0.04,0.65,0.1c0.4,1.28,1.04,3.12,1.63,4.67
				L179.48,41.62z M167.86,24.03c-0.49-1.29,0.09-2.63,1.46-3.15c1.36-0.51,2.69,0.11,3.17,1.41c0.49,1.29-0.09,2.63-1.46,3.15
				C169.67,25.95,168.35,25.32,167.86,24.03z"/>
			<path d="M197.11,31.84c0.67,2.17,1.31,4.09,2.24,3.8c0.54-0.17,1.09-0.47,1.58-0.79c0.37,0.1,0.7,0.89,0.29,1.35
				c-1.64,0.72-4.47,2.15-5.89,3.45c-0.2,0.02-0.37-0.1-0.47-0.28c-0.07-0.49-0.17-1.09-0.33-1.47c-0.13-0.3-0.29-0.38-0.52-0.3
				c-1.32,1.47-2.75,2.89-4.69,3.5c-3.48,1.08-5.21-0.5-6.21-3.71l-1.88-6.04c-0.84-2.71-1.09-2.97-2.15-2.94l-0.59,0.02
				c-0.29-0.12-0.51-0.82-0.24-1.03c2.31-0.76,4.41-1.8,5.16-2.37c0.21-0.02,0.4,0.05,0.5,0.23c0.07,0.49,0.32,1.43,0.91,3.32
				l1.86,5.96c0.71,2.28,1.8,4.28,4.55,3.42c0.89-0.28,1.79-0.94,2.25-1.76c0.27-0.51,0.24-0.88-0.21-2.31l-1.82-5.84
				c-0.77-2.48-1.05-2.56-2.67-2.57l-0.68,0c-0.33-0.11-0.55-0.81-0.29-1.06c2.58-0.85,5.21-1.96,5.86-2.59
				c0.21-0.02,0.4,0.05,0.49,0.23c0.15,0.76,0.46,1.89,0.91,3.32L197.11,31.84z"/>
			<path d="M216.96,26.46c0.81,3.6,1.36,4.76,2.04,4.61c0.43-0.1,1.04-0.36,1.58-0.73c0.37,0.17,0.66,1.1,0.28,1.43
				c-1.97,0.65-4.63,1.96-5.91,2.91c-0.21,0.01-0.44-0.11-0.57-0.33l-0.05-0.61c-0.05-0.61-0.17-0.92-0.29-1.1l-0.21,0
				c-0.99,1.14-2.25,2.38-4.15,2.8c-4.51,1.02-8.13-1.99-9.02-5.94c-1.28-5.69,2.5-10.12,7.44-11.23c1.03-0.23,1.81-0.28,2.35-0.24
				c0.15-0.08,0.19-0.25,0.1-0.69l-1.17-5.18c-0.6-2.65-0.73-2.87-1.68-3.23l-0.63-0.23c-0.27-0.11-0.45-0.73-0.2-0.91
				c1.44-0.78,3.31-2.07,4.75-3.07c0.23-0.09,0.5,0.01,0.62,0.19c0.28,1.6,0.79,4.06,1.17,5.76L216.96,26.46z M211.72,22.54
				c-0.18-0.79-0.42-1.32-0.94-1.78c-0.72-0.63-1.72-1.02-2.95-0.75c-2.69,0.61-3.79,3.64-3.04,6.96c0.92,4.07,3.66,6.28,6.47,5.65
				c0.95-0.21,1.9-0.97,2.14-1.4c0.15-0.24,0.15-0.62,0.03-1.17L211.72,22.54z"/>
			<path d="M228.5,26.38c0.47,2.96,0.69,3.34,2.09,3.36l0.74,0.01c0.33,0.24,0.4,0.96,0.11,1.17c-1.49,0.16-2.86,0.33-4.34,0.57
				c-1.32,0.21-2.68,0.46-4.18,0.79c-0.35-0.11-0.5-0.82-0.26-1.15l0.7-0.23c1.32-0.46,1.42-0.88,0.95-3.84l-0.93-5.88
				c-0.29-1.8-0.36-2.28-1.46-2.72l-0.53-0.2c-0.15-0.14-0.23-0.7-0.11-0.93c1.99-0.93,3.85-2.13,4.86-2.99
				c0.25,0,0.46,0.05,0.61,0.23c0.13,1.33,0.4,3.26,0.66,4.9L228.5,26.38z M221.13,9.46c-0.22-1.36,0.62-2.56,2.06-2.79
				c1.44-0.23,2.61,0.65,2.82,2.01c0.22,1.36-0.62,2.56-2.06,2.79C222.51,11.7,221.34,10.82,221.13,9.46z"/>
			<path d="M244.24,13.27c0.58,0.43,0.93,1.04,1.03,1.97c0.14,1.29-0.48,1.97-0.8,2c-0.28,0.03-0.49-0.03-0.81-0.36
				c-1.01-1.07-2.36-2.23-3.93-2.06c-2.3,0.25-4.43,2.76-4.02,6.55c0.35,3.27,2.78,6.14,6.45,5.75c2.62-0.28,3.44-1.35,4.12-2.6
				c0.36-0.08,0.83,0.15,0.92,0.63c-1.1,3.42-4.08,4.88-6.62,5.16c-2.14,0.23-4.32-0.39-5.84-1.57c-1.56-1.22-2.71-3.21-2.96-5.55
				c-0.51-4.72,2.45-9.4,8.94-10.1C241.88,12.95,243.07,12.99,244.24,13.27z"/>
			<path d="M254.54,23.85c0.16,3,0.35,3.39,1.74,3.56l0.74,0.08c0.3,0.27,0.3,1-0.02,1.18c-1.5,0-2.88,0.04-4.38,0.12
				c-1.34,0.07-2.71,0.19-4.24,0.35c-0.33-0.14-0.41-0.87-0.15-1.17l0.72-0.16c1.36-0.32,1.5-0.73,1.34-3.73l-0.33-5.95
				c-0.1-1.82-0.13-2.31-1.17-2.86l-0.5-0.26c-0.13-0.15-0.16-0.72-0.01-0.93c2.07-0.72,4.05-1.72,5.14-2.47
				c0.25,0.03,0.45,0.1,0.58,0.29c-0.01,1.34,0.06,3.29,0.15,4.95L254.54,23.85z M248.94,6.26c-0.08-1.38,0.88-2.48,2.34-2.56
				c1.46-0.08,2.53,0.92,2.6,2.29c0.07,1.38-0.88,2.48-2.34,2.56C250.09,8.63,249.02,7.63,248.94,6.26z"/>
			<path d="M271.33,23.28c-0.12,2.35,0.49,3.57,1.95,3.57c0.69,0,1.26-0.45,1.38-0.45c0.2,0,0.49,0.45,0.37,0.81
				c-0.81,1.13-2.8,1.78-4.05,1.79c-1.01,0-2.15-0.28-2.92-1.13c-0.28-0.28-0.45-0.49-0.65-0.49c-0.2,0-0.49,0.2-1.09,0.57
				c-0.77,0.49-1.99,1.06-3.45,1.06c-2.76,0-4.14-1.9-4.14-3.93c0-1.46,0.57-2.8,3.36-3.77c1.42-0.49,2.96-1.06,4.46-1.62
				c0.81-0.28,0.93-0.65,0.93-1.05l0.04-1.05c0.08-2.07-0.49-3.85-2.47-3.85c-1.13,0-1.99,0.61-2.15,1.78
				c-0.08,0.77-0.32,1.18-0.77,1.46c-0.57,0.37-1.7,0.73-2.59,0.73c-0.53,0-0.77-0.28-0.77-0.65c0-0.49,0.24-1.34,1.58-2.59
				c1.25-1.18,4.17-2.56,6.24-2.56c3.2,0,5.19,1.5,5.03,5.06L271.33,23.28z M267.36,21.9c0-0.45-0.12-0.69-0.33-0.69
				c-0.32,0-1.05,0.2-1.78,0.49c-1.13,0.41-2.19,0.97-2.19,2.72c0,1.05,0.73,2.35,2.27,2.35c1.46,0,1.9-0.97,1.95-1.95L267.36,21.9z
				"/>
			<path d="M279.63,6.54c0.15-2.71,0.13-2.96-0.85-3.66l-0.43-0.31c-0.23-0.18-0.24-0.83,0.05-0.93c1.6-0.35,3.76-1.08,5.41-1.64
				c0.25-0.03,0.48,0.15,0.55,0.36c-0.17,1.61-0.36,4.12-0.46,5.86l-1.02,17.92c-0.17,2.99-0.03,3.45,1.33,3.73l0.88,0.17
				c0.27,0.3,0.18,1.02-0.15,1.17c-1.65-0.18-3.03-0.29-4.52-0.38c-1.34-0.08-2.71-0.11-4.38-0.13c-0.31-0.18-0.31-0.91-0.01-1.18
				l0.86-0.07c1.39-0.12,1.58-0.56,1.74-3.55L279.63,6.54z"/>
			<path d="M299.66,19.69c0.28-1.8,0.38-2.16-0.55-3l-0.43-0.4c-0.12-0.27-0.05-0.75,0.19-0.92c1.67-0.19,4.25-0.93,5.58-1.54
				c0.32,0.05,0.54,0.25,0.58,0.5c-0.23,0.7-0.39,1.17-0.45,1.53c-0.04,0.24,0.04,0.5,0.24,0.57c0.56-0.16,3.15-1.27,5.23-0.94
				c4.36,0.69,6.37,4.37,5.72,8.49c-0.88,5.56-5.42,8.87-11.3,7.94c-0.48-0.08-1.39-0.3-1.74-0.44c-0.37,0.02-0.65,0.23-0.78,1.03
				l-0.62,3.92c-0.47,2.96-0.38,3.43,1,3.81l1.42,0.39c0.24,0.32,0.08,1.04-0.26,1.15c-2.07-0.41-3.62-0.69-5.1-0.93
				c-1.32-0.21-2.89-0.41-4.5-0.58c-0.29-0.21-0.22-0.94,0.1-1.17l1.06,0.05c1.39,0.05,1.62-0.4,2.09-3.36L299.66,19.69z
				 M302.88,26.6c-0.2,1.24,0.15,1.91,0.88,2.76c0.45,0.52,1.39,1.04,1.99,1.13c2.76,0.43,4.74-2.21,5.32-5.89
				c0.6-3.8-0.95-6.71-4.08-7.21c-0.92-0.15-1.73,0.05-2.29,0.46c-0.38,0.31-0.6,0.97-0.87,2.65L302.88,26.6z"/>
			<path d="M322.89,25.05c-0.75-0.17-0.84-0.15-0.95,0.32c-0.83,3.55,0.96,6.97,4.48,7.78c1.58,0.37,3,0.16,4.25-1.09
				c0.42-0.03,0.77,0.47,0.72,0.83c-2.07,2.85-5.27,3.35-7.68,2.8c-4.58-1.06-6.83-5.17-5.79-9.67c1.03-4.46,5.07-8.06,10.37-6.84
				c2.92,0.68,5.48,3.27,4.69,6.71c-0.08,0.36-0.18,0.58-0.41,0.86c-0.32,0.3-1.26,0.25-2.84-0.12L322.89,25.05z M326.89,24.31
				c1.15,0.27,1.69,0.27,2,0.17c0.27-0.1,0.51-0.38,0.59-0.74c0.33-1.42-0.31-2.78-2.01-3.17c-2.65-0.61-4.46,1.67-4.66,2.5
				c-0.04,0.16,0.01,0.29,0.49,0.4L326.89,24.31z"/>
			<path d="M336.97,27.35c0.51-1.75,0.65-2.22-0.15-3.09l-0.39-0.41c-0.07-0.19,0.09-0.74,0.3-0.88c1.83-0.05,4.15-0.3,5.52-0.66
				c0.23,0.07,0.43,0.25,0.44,0.51c-0.26,0.73-0.49,1.38-0.59,1.73c-0.08,0.27,0.02,0.51,0.25,0.58c1.46-0.5,3.08-1.29,4.41-0.9
				c1.36,0.4,1.88,1.52,1.58,2.53c-0.45,1.52-1.79,1.93-2.84,1.62c-0.39-0.12-0.71-0.34-0.96-0.62c-0.78-0.95-1.42-1.22-1.65-1.29
				c-0.89-0.26-1.39,0.56-1.95,2.47l-1.57,5.33c-0.84,2.88-0.82,3.35,0.5,3.91l1.47,0.6c0.19,0.35-0.05,1.04-0.41,1.11
				c-2.31-0.76-3.62-1.19-5.06-1.61c-1.28-0.38-2.58-0.72-4.08-1.07c-0.27-0.25-0.1-0.96,0.25-1.15l0.74,0.09
				c1.39,0.15,1.66-0.19,2.51-3.07L336.97,27.35z"/>
			<path d="M345.82,40.54c-0.13-0.86,0.33-2.89,0.99-4.51c0.34-0.23,0.92-0.06,1.1,0.3c-0.07,2.39,0.63,4.91,2.65,5.63
				c1.19,0.42,2.42-0.04,2.9-1.38c0.5-1.41-0.44-2.78-1.55-3.9c-1.65-1.66-3.21-3.8-2.35-6.25c1.02-2.99,4.2-3.85,7.38-2.72
				c1.57,0.55,2.86,1.53,3.28,2.02c0.1,0.94-0.13,2.19-0.74,3.91c-0.22,0.26-0.91,0.15-1.1-0.17c0.05-1.96-0.66-3.85-2.15-4.37
				c-1.22-0.43-2.45,0.12-2.84,1.23s0.43,2.31,1.64,3.51c1.71,1.73,3.43,3.8,2.36,6.82c-1.18,3.32-4.64,3.74-7.65,2.67
				C348.17,42.75,346.71,41.89,345.82,40.54z"/>
			<path d="M376.92,44.82c-2.27,5.29-7.18,6.45-11.61,4.55c-4.28-1.84-6.69-6.09-4.6-10.97c2.14-4.99,7.28-6.49,11.64-4.62
				C376.56,35.58,379,39.97,376.92,44.82z M366.4,48.07c2.57,1.1,4.63-1.63,5.86-4.5c1.34-3.13,1.84-7.28-0.91-8.46
				c-1.9-0.81-4.22,0.48-5.99,4.62C363.89,43.11,363.72,46.92,366.4,48.07z"/>
			<path d="M382.9,51.63c-1.39,2.66-1.47,3.16-0.35,3.98l0.5,0.35c0.12,0.38-0.25,1.01-0.62,1c-1.22-0.73-2.42-1.41-3.75-2.1
				c-1.15-0.6-2.39-1.21-3.93-1.92c-0.21-0.29,0.09-0.96,0.47-1.08l0.85,0.31c1.31,0.46,1.67,0.14,3.06-2.52l2.76-5.28
				c0.85-1.61,1.07-2.05,0.46-3.05l-0.3-0.48c-0.03-0.2,0.23-0.7,0.47-0.81c1.77,0.38,4.19,0.55,5.68,0.51
				c0.25,0.13,0.32,0.35,0.32,0.53c-0.43,0.64-0.79,1.33-0.94,1.61c-0.13,0.25-0.06,0.38,0.14,0.53c2.18-0.05,3.63-0.38,5.86,0.78
				c2.91,1.52,3.22,4.25,1.75,7.05l-2.91,5.56c-1.39,2.66-1.47,3.16-0.33,3.94l0.77,0.54c0.12,0.38-0.25,1.01-0.62,1
				c-1.47-0.86-2.67-1.54-4-2.23c-1.18-0.62-2.42-1.22-3.72-1.81c-0.21-0.29,0.09-0.96,0.47-1.08l0.58,0.21
				c1.31,0.46,1.68,0.1,3.08-2.55l2.6-4.95c0.96-1.83,0.99-3.64-1.16-4.77c-1.11-0.58-2.31-0.48-2.95-0.13
				c-0.81,0.4-1.01,0.7-1.71,2.03L382.9,51.63z"/>
		</g>
	</g>
	<path d="M108.11,487.32c-30.47-23.23-54.98-52.37-72.85-86.6C17.39,366.49,7.49,329.72,5.85,291.44l1.84-0.08
		c1.63,38.01,11.46,74.52,29.2,108.5c17.74,33.99,42.08,62.92,72.34,85.99L108.11,487.32z"/>
	<path d="M526.85,268.71l-1.84,0.08c-1.63-38.01-11.46-74.52-29.2-108.51c-17.74-33.99-42.08-62.92-72.34-85.99l1.12-1.47
		c30.47,23.24,54.98,52.37,72.85,86.6C515.31,193.65,525.2,230.42,526.85,268.71z"/>
	<g>
		<path d="M157.02,514.68c-1.33-0.58-1.28-0.56-2.34,0.62l-4.72,5.24c-2.34,2.57-1.72,2.96,0.04,4.09l1.37,0.9
			c0.2,0.51-0.25,1.41-0.75,1.44c-1.59-0.82-3.53-1.66-5.6-2.63c-1.68-0.74-3.29-1.38-5.12-2.05c-0.25-0.41,0.04-1.2,0.6-1.5
			l1.64,0.41c1.59,0.39,2.33,0.23,3.83-1.12c1.19-1.06,2.95-2.85,5.22-5.14l14.93-15.12c1.33-1.37,2.37-2.37,2.6-3.3
			c1.94,0.42,4.54-0.93,4.64-0.89c0.41,0.18,0.6,0.44,0.69,0.79c-0.19,2.65-0.57,5.34-0.76,8l-1.99,24.61
			c-0.32,3.93-0.2,4.35,2.18,6l0.7,0.49c0.25,0.54-0.13,1.4-0.6,1.5c-2.05-1.02-3.91-1.89-6.57-3.05c-2.19-0.96-4.49-1.84-6.29-2.56
			c-0.3-0.43,0.05-1.37,0.49-1.55l1.19,0.34c1.95,0.55,2.34,0.35,2.51-2.13l0.63-7.99c0.14-1.58-0.06-1.67-1.49-2.29L157.02,514.68z
			 M164.41,515.17c1.43,0.63,1.68,0.61,1.81-0.79l0.53-7.06c0.26-3.11,0.47-4.42,0.37-4.88l-0.1-0.05
			c-0.36,0.27-1.52,1.53-3.43,3.55l-4.91,4.97c-1.16,1.26-1.06,1.3,0.17,1.84L164.41,515.17z"/>
		<path d="M187.72,525.96c0.6-2.43,0.76-3.08-0.39-4.23l-0.56-0.54c-0.11-0.26,0.08-1.01,0.36-1.23c2.54-0.06,5.78-0.63,7.76-1.18
			c0.38,0.09,0.54,0.36,0.6,0.61c-0.36,1-0.62,2.03-0.72,2.46c-0.09,0.38,0.04,0.53,0.35,0.66c3-0.75,4.73-1.7,8.41-0.79
			c2.33,0.58,3.8,2.26,4.3,3.48c0.2,0.57,0.45,0.97,0.66,1.03c0.22,0.05,0.58-0.03,1.32-0.25c2.93-0.94,5.01-1.46,7.55-0.83
			c4.54,1.13,5.85,4.66,4.8,8.88l-2.08,8.38c-0.99,4-0.92,4.65,0.85,5.38l1.15,0.46c0.39,0.5-0.12,1.41-0.39,1.57
			c-2.3-0.68-4.12-1.19-6.13-1.69c-1.78-0.44-3.64-0.84-5.61-1.22c-0.38-0.32-0.19-1.31,0.28-1.6l0.91,0.05
			c1.92,0.13,2.27-0.36,3.26-4.36l1.82-7.35c0.71-2.87,0.27-5.27-3.14-6.12c-1.57-0.39-3.17,0.08-4.02,0.73
			c-0.7,0.52-0.97,1.14-1.35,2.65l-1.97,7.95c-0.99,4-0.94,4.71,0.84,5.43l0.78,0.31c0.29,0.47-0.01,1.43-0.5,1.54
			c-1.87-0.58-3.64-1.07-5.64-1.57c-1.79-0.44-3.64-0.84-5.45-1.18c-0.38-0.32-0.19-1.31,0.28-1.59l0.73,0.07
			c1.91,0.18,2.28-0.41,3.28-4.41l1.82-7.36c0.71-2.87,0.27-5.27-2.86-6.05c-1.84-0.46-3.46,0.06-4.26,0.72
			c-0.86,0.7-1.04,1.18-1.56,3.29l-1.8,7.25c-0.99,4-0.94,4.71,0.84,5.43l0.78,0.31c0.28,0.47-0.01,1.43-0.5,1.54
			c-1.86-0.58-3.69-1.09-5.69-1.58c-1.78-0.44-3.58-0.83-5.66-1.23c-0.38-0.32-0.19-1.31,0.28-1.6l1.01,0.08
			c1.92,0.13,2.27-0.36,3.26-4.36L187.72,525.96z"/>
		<path d="M246.93,544.82c-0.49,3.2,0.17,4.95,2.16,5.15c0.94,0.1,1.78-0.43,1.95-0.42c0.28,0.03,0.6,0.68,0.39,1.16
			c-1.27,1.44-4.07,2.05-5.79,1.87c-1.39-0.14-2.9-0.69-3.83-1.96c-0.35-0.43-0.54-0.73-0.82-0.76s-0.69,0.21-1.58,0.62
			c-1.12,0.56-2.86,1.16-4.86,0.96c-3.77-0.39-5.39-3.18-5.1-5.96c0.2-2,1.17-3.75,5.13-4.68c2.01-0.47,4.19-1.03,6.32-1.59
			c1.15-0.27,1.37-0.76,1.42-1.31l0.2-1.44c0.4-2.81-0.13-5.33-2.84-5.61c-1.55-0.16-2.8,0.55-3.19,2.14
			c-0.22,1.04-0.61,1.56-1.26,1.89c-0.83,0.42-2.43,0.76-3.65,0.63c-0.72-0.07-1.01-0.5-0.96-0.99c0.07-0.66,0.52-1.8,2.52-3.33
			c1.88-1.43,6.07-2.91,8.89-2.62c4.38,0.45,6.88,2.78,6.16,7.63L246.93,544.82z M241.69,542.38c0.06-0.61-0.07-0.96-0.35-0.99
			c-0.44-0.04-1.47,0.13-2.51,0.42c-1.61,0.4-3.13,1.02-3.37,3.41c-0.15,1.44,0.67,3.32,2.77,3.53c2,0.21,2.74-1.06,2.93-2.39
			L241.69,542.38z"/>
		<path d="M264.93,533.03c-1-0.02-1.06,0.09-1.09,1.88l-0.15,8.58c-0.06,3.51,0.39,6.64,3.95,6.7c1.11,0.02,1.79-0.36,2.69-0.96
			c0.5,0.06,0.83,0.52,0.7,1.13c-1.14,1.54-3.73,3-7.13,2.94c-5.29-0.09-6.19-3.17-6.12-7.07l0.19-11.31
			c0.03-1.95-0.08-2.01-0.97-2.02l-1.95-0.03c-0.55-0.29-0.65-1.18-0.14-1.51c1.91-0.69,3.2-1.39,4.44-2.27
			c1.07-0.76,2.32-1.91,3.12-3.4c0.51-0.33,1.28-0.15,1.55,0.3l-0.06,3.34c-0.01,0.89-0.02,1.06,1.04,1.08l5.51,0.09
			c0.33,0.17,0.44,0.62,0.43,1.18c-0.07,0.67-0.3,1.16-0.75,1.43L264.93,533.03z"/>
		<path d="M280.95,538.94c-1.06,0.07-1.16,0.14-1.12,0.8c0.35,5,4.07,8.77,9.01,8.43c2.22-0.15,4.01-1,5.15-3.15
			c0.54-0.2,1.19,0.31,1.28,0.81c-1.58,4.58-5.58,6.53-8.98,6.76c-6.45,0.44-11.06-4.04-11.49-10.38
			c-0.43-6.28,3.43-12.64,10.88-13.15c4.12-0.28,8.52,2.09,8.86,6.93c0.03,0.5,0,0.84-0.19,1.3c-0.3,0.52-1.56,0.83-3.79,0.99
			L280.95,538.94z M285.91,536.36c1.61-0.11,2.32-0.33,2.7-0.58c0.32-0.25,0.51-0.71,0.48-1.21c-0.14-2-1.53-3.53-3.92-3.36
			c-3.72,0.26-5.2,3.99-5.12,5.16c0.02,0.22,0.14,0.38,0.8,0.34L285.91,536.36z"/>
		<path d="M301.74,535.33c-0.39-2.48-0.49-3.14-2-3.75l-0.72-0.28c-0.2-0.19-0.32-0.96-0.14-1.27c2.25-1.14,4.97-2.81,6.46-4.07
			c0.33-0.05,0.69,0.06,0.85,0.37c0.11,1.05,0.2,2,0.28,2.49c0.06,0.38,0.32,0.63,0.65,0.57c1.51-1.48,3.07-3.42,4.94-3.71
			c1.93-0.3,3.23,0.79,3.45,2.22c0.34,2.15-1.09,3.44-2.58,3.68c-0.55,0.09-1.07,0-1.56-0.21c-1.52-0.72-2.48-0.68-2.81-0.63
			c-1.26,0.2-1.4,1.52-0.97,4.21l1.19,7.54c0.64,4.07,0.96,4.64,2.92,4.56l2.18-0.12c0.45,0.32,0.55,1.32,0.14,1.61
			c-3.32,0.41-5.2,0.65-7.23,0.97c-1.82,0.29-3.62,0.63-5.7,1.07c-0.47-0.15-0.69-1.13-0.36-1.58l0.96-0.32
			c1.82-0.63,1.95-1.21,1.31-5.28L301.74,535.33z"/>
		<path d="M338.66,535.51c0.63,3.17,1.86,4.59,3.8,4.09c0.92-0.23,1.52-1.02,1.69-1.06c0.27-0.07,0.8,0.43,0.76,0.96
			c-0.69,1.79-3.12,3.32-4.8,3.75c-1.35,0.34-2.96,0.35-4.27-0.52c-0.47-0.28-0.76-0.5-1.03-0.43c-0.27,0.07-0.58,0.43-1.27,1.13
			c-0.86,0.91-2.29,2.08-4.23,2.57c-3.67,0.93-6.15-1.14-6.84-3.84c-0.49-1.95-0.19-3.92,3.21-6.16c1.73-1.13,3.59-2.41,5.39-3.67
			c0.98-0.65,1.02-1.18,0.89-1.72l-0.3-1.42c-0.59-2.78-1.95-4.97-4.6-4.29c-1.51,0.38-2.44,1.48-2.26,3.1
			c0.15,1.05-0.03,1.68-0.53,2.2c-0.63,0.68-2.02,1.55-3.21,1.85c-0.7,0.18-1.12-0.12-1.25-0.6c-0.17-0.65-0.13-1.86,1.23-3.99
			c1.27-1.99,4.7-4.82,7.45-5.52c4.27-1.08,7.42,0.24,8.41,5.05L338.66,535.51z M332.9,535.02c-0.15-0.59-0.39-0.88-0.67-0.81
			c-0.43,0.11-1.34,0.63-2.21,1.25c-1.37,0.92-2.59,2.04-2,4.36c0.36,1.4,1.77,2.89,3.82,2.36c1.94-0.49,2.21-1.94,1.93-3.25
			L332.9,535.02z"/>
		<path d="M359.31,512.84c0.91,0.38,1.58,1.09,2.01,2.3c0.6,1.68-0.01,2.78-0.43,2.93c-0.37,0.13-0.67,0.12-1.2-0.22
			c-1.7-1.11-3.88-2.22-5.92-1.48c-2.99,1.07-5.03,5.12-3.26,10.05c1.53,4.25,5.7,7.3,10.47,5.59c3.41-1.22,4.16-2.92,4.67-4.81
			c0.45-0.22,1.16-0.06,1.44,0.55c-0.36,4.92-3.87,7.84-7.17,9.03c-2.78,1-5.9,0.88-8.31-0.21c-2.47-1.12-4.66-3.42-5.75-6.46
			c-2.2-6.13,0.24-13.35,8.68-16.38C356.05,513.18,357.65,512.84,359.31,512.84z"/>
		<path d="M373.91,515.92c-0.96,0.45-1.03,0.55-0.75,1.16c2.14,4.53,6.98,6.69,11.46,4.57c2.02-0.95,3.37-2.39,3.65-4.8
			c0.43-0.39,1.23-0.15,1.49,0.28c0.19,4.84-2.82,8.11-5.9,9.56c-5.84,2.76-11.77,0.26-14.48-5.49c-2.69-5.69-1.4-13.02,5.35-16.21
			c3.73-1.76,8.7-1.15,10.77,3.23c0.21,0.45,0.31,0.78,0.3,1.28c-0.09,0.6-1.15,1.35-3.17,2.3L373.91,515.92z M377.59,511.72
			c1.46-0.69,2.05-1.15,2.3-1.52c0.21-0.34,0.22-0.84,0-1.3c-0.86-1.82-2.71-2.73-4.87-1.7c-3.38,1.59-3.39,5.61-2.89,6.66
			c0.1,0.2,0.27,0.31,0.87,0.02L377.59,511.72z"/>
		<path d="M411.68,494.27c-1.18,0.84-1.14,0.81-0.67,2.32l2.06,6.74c1,3.33,1.65,3,3.53,2.07l1.48-0.71
			c0.54,0.09,1.08,0.94,0.85,1.38c-1.52,0.94-3.24,2.17-5.14,3.45c-1.5,1.07-2.87,2.11-4.4,3.34c-0.48,0-1.01-0.65-0.98-1.29
			l1.2-1.2c1.15-1.16,1.4-1.88,1.01-3.86c-0.29-1.57-0.92-3.99-1.72-7.12l-5.28-20.59c-0.49-1.84-0.81-3.25-1.5-3.93
			c1.36-1.45,1.54-4.38,1.63-4.44c0.36-0.26,0.69-0.28,1.03-0.19c2.18,1.53,4.29,3.24,6.47,4.77l20.07,14.37
			c3.21,2.3,3.63,2.41,6.27,1.22l0.78-0.35c0.59,0.06,1.14,0.83,0.98,1.28c-1.93,1.23-3.64,2.38-6,4.06
			c-1.95,1.39-3.89,2.9-5.44,4.08c-0.53,0.03-1.15-0.75-1.07-1.22l0.9-0.85c1.47-1.39,1.5-1.82-0.53-3.24l-6.53-4.66
			c-1.28-0.93-1.46-0.8-2.73,0.1L411.68,494.27z M415.9,488.19c1.27-0.9,1.39-1.12,0.25-1.96l-5.78-4.09
			c-2.53-1.83-3.54-2.68-4-2.83l-0.09,0.07c0.05,0.45,0.53,2.09,1.28,4.77l1.74,6.77c0.48,1.64,0.57,1.57,1.66,0.8L415.9,488.19z"/>
		<path d="M441.58,459.33c0.99,0.01,1.87,0.41,2.74,1.36c1.2,1.32,1.06,2.58,0.73,2.87c-0.29,0.26-0.57,0.37-1.2,0.26
			c-2-0.37-4.43-0.57-6.04,0.89c-2.35,2.14-2.69,6.66,0.83,10.54c3.03,3.34,8.06,4.57,11.82,1.16c2.68-2.43,2.73-4.29,2.47-6.23
			c0.33-0.38,1.05-0.5,1.54-0.04c1.55,4.69-0.58,8.73-3.18,11.09c-2.19,1.99-5.12,3.07-7.76,2.98c-2.72-0.09-5.61-1.38-7.79-3.77
			c-4.38-4.83-4.88-12.43,1.76-18.46C438.7,460.89,440.05,459.97,441.58,459.33z"/>
		<path d="M468.4,452.3c2.29,2.29,4.09,2.79,5.43,1.3c0.63-0.7,0.7-1.69,0.81-1.82c0.19-0.21,0.9-0.09,1.16,0.37
			c0.41,1.87-0.75,4.5-1.91,5.78c-0.93,1.04-2.27,1.93-3.85,1.94c-0.55,0.03-0.91,0.01-1.09,0.22c-0.19,0.21-0.24,0.68-0.43,1.64
			c-0.21,1.23-0.75,3-2.1,4.49c-2.54,2.82-5.75,2.47-7.82,0.6c-1.49-1.34-2.33-3.15-0.75-6.9c0.81-1.9,1.65-3.99,2.45-6.04
			c0.45-1.09,0.2-1.55-0.22-1.92l-1.04-1.01c-2.04-1.99-4.38-3.05-6.21-1.02c-1.04,1.16-1.21,2.59-0.16,3.84
			c0.71,0.79,0.9,1.41,0.78,2.13c-0.15,0.92-0.82,2.41-1.64,3.32c-0.49,0.54-1,0.53-1.37,0.19c-0.5-0.45-1.14-1.48-1.19-4
			c-0.04-2.37,1.23-6.61,3.14-8.72c2.95-3.27,6.31-3.92,9.8-0.47L468.4,452.3z M463.34,455.09c-0.46-0.41-0.81-0.51-1-0.3
			c-0.3,0.33-0.76,1.26-1.14,2.27c-0.63,1.53-1.02,3.13,0.76,4.73c1.08,0.97,3.07,1.42,4.49-0.15c1.34-1.49,0.76-2.84-0.2-3.78
			L463.34,455.09z"/>
		<path d="M485.91,425.89c4.11,2.96,5.74,3.66,6.3,2.89c0.36-0.5,0.74-1.32,0.96-2.19c0.53-0.17,1.68,0.53,1.59,1.22
			c-1.44,2.47-2.98,6.23-3.43,8.38c-0.21,0.19-0.55,0.29-0.89,0.18l-0.61-0.58c-0.61-0.58-1.01-0.79-1.3-0.87l-0.21,0.19
			c0.02,2.07-0.15,4.5-1.71,6.67c-3.71,5.15-10.18,5.37-14.71,2.11c-6.51-4.69-6.65-12.69-2.58-18.34c0.85-1.17,1.6-1.94,2.21-2.39
			c0.08-0.21-0.03-0.43-0.53-0.79l-5.92-4.27c-3.03-2.18-3.36-2.29-4.68-1.79l-0.86,0.34c-0.38,0.14-1.13-0.34-1.04-0.75
			c0.77-2.12,1.52-5.16,2.1-7.48c0.15-0.3,0.53-0.44,0.82-0.37c1.74,1.39,4.51,3.46,6.46,4.86L485.91,425.89z M476.93,426.63
			c-0.9-0.65-1.63-0.97-2.59-0.98c-1.31,0.01-2.71,0.52-3.72,1.92c-2.21,3.07-0.59,7.2,3.21,9.94c4.66,3.36,9.49,3.13,11.8-0.08
			c0.78-1.09,1.07-2.73,0.93-3.38c-0.06-0.39-0.41-0.77-1.04-1.23L476.93,426.63z"/>
		<path d="M489.8,411.54c-0.52,0.92-0.53,1.04,0.05,1.37c4.36,2.48,9.55,1.47,12.01-2.84c1.1-1.94,1.38-3.89,0.23-6.03
			c0.13-0.56,0.92-0.82,1.38-0.62c2.93,3.85,2.35,8.26,0.66,11.21c-3.2,5.61-9.49,6.97-15,3.83c-5.47-3.12-8.62-9.85-4.92-16.34
			c2.04-3.58,6.46-5.94,10.67-3.54c0.43,0.25,0.7,0.46,0.97,0.88c0.27,0.54-0.17,1.76-1.27,3.7L489.8,411.54z M490.4,405.98
			c0.8-1.4,1.01-2.12,1.01-2.56c-0.03-0.4-0.3-0.81-0.74-1.06c-1.74-0.99-3.78-0.68-4.97,1.4c-1.85,3.24,0.44,6.54,1.46,7.12
			c0.19,0.11,0.39,0.1,0.72-0.49L490.4,405.98z"/>
		<path d="M498.97,392.06c-2.33-0.93-2.95-1.18-4.24-0.2l-0.61,0.48c-0.27,0.07-0.99-0.22-1.17-0.53c0.29-2.52,0.17-5.81-0.1-7.84
			c0.14-0.36,0.43-0.49,0.68-0.51c0.94,0.5,1.92,0.89,2.34,1.06c0.36,0.14,0.53,0.03,0.7-0.26c-0.33-3.07-1.03-4.92,0.38-8.43
			c0.89-2.22,2.76-3.45,4.04-3.78c0.59-0.12,1.02-0.31,1.11-0.52c0.08-0.21,0.05-0.58-0.06-1.34c-0.53-3.03-0.75-5.16,0.22-7.6
			c1.74-4.34,5.42-5.15,9.46-3.53l8.02,3.21c3.83,1.53,4.48,1.55,5.44-0.1l0.61-1.08c0.55-0.32,1.38,0.31,1.5,0.6
			c-1,2.18-1.75,3.92-2.52,5.83c-0.68,1.71-1.34,3.49-1.98,5.39c-0.37,0.33-1.32,0.01-1.54-0.5l0.18-0.89
			c0.39-1.88-0.04-2.3-3.87-3.83l-7.03-2.82c-2.74-1.1-5.18-1-6.49,2.26c-0.6,1.5-0.36,3.16,0.16,4.09c0.41,0.77,0.99,1.12,2.44,1.7
			l7.6,3.05c3.83,1.53,4.53,1.58,5.49-0.08l0.41-0.73c0.51-0.22,1.42,0.21,1.46,0.7c-0.83,1.77-1.56,3.45-2.33,5.37
			c-0.68,1.71-1.34,3.49-1.92,5.24c-0.37,0.33-1.32,0.01-1.54-0.5l0.17-0.71c0.45-1.86-0.09-2.32-3.92-3.85l-7.03-2.82
			c-2.74-1.1-5.18-1-6.38,2c-0.71,1.76-0.42,3.43,0.13,4.32c0.58,0.95,1.02,1.19,3.04,2l6.93,2.78c3.83,1.54,4.53,1.58,5.49-0.08
			l0.41-0.73c0.51-0.22,1.42,0.21,1.46,0.7c-0.83,1.77-1.58,3.51-2.35,5.42c-0.68,1.71-1.32,3.43-2,5.44
			c-0.37,0.33-1.32,0.01-1.54-0.5l0.22-0.99c0.39-1.88-0.04-2.3-3.87-3.83L498.97,392.06z"/>
		<path d="M498.94,343.98c-1.83-0.48-2.88-2.19-2.37-4.13c0.51-1.94,2.26-2.92,4.09-2.44c1.83,0.48,2.88,2.19,2.37,4.13
			C502.53,343.48,500.78,344.46,498.94,343.98z M524.33,344.06c3.99,1.04,4.58,0.97,5.39-0.78l0.41-0.93
			c0.48-0.28,1.43,0.03,1.53,0.52c-0.63,1.97-1.16,3.78-1.69,5.78c-0.47,1.78-0.89,3.63-1.32,5.7c-0.33,0.38-1.31,0.18-1.59-0.3
			l0.09-1.01c0.16-1.92-0.33-2.27-4.31-3.32l-7.92-2.07c-2.43-0.64-3.07-0.8-4.23,0.33l-0.55,0.55c-0.26,0.11-1.01-0.09-1.23-0.38
			c-0.07-3.01-0.55-6.02-1.08-7.77c0.14-0.31,0.32-0.55,0.63-0.64c1.75,0.57,4.32,1.3,6.53,1.88L524.33,344.06z"/>
		<path d="M528.94,318.88c3.15,0.73,4.94,0.2,5.29-1.78c0.16-0.93-0.3-1.81-0.27-1.97c0.05-0.27,0.72-0.55,1.18-0.3
			c1.34,1.37,1.75,4.21,1.44,5.91c-0.24,1.37-0.9,2.84-2.23,3.68c-0.45,0.32-0.77,0.49-0.82,0.76c-0.05,0.27,0.16,0.71,0.51,1.62
			c0.48,1.16,0.95,2.94,0.6,4.91c-0.66,3.73-3.57,5.14-6.31,4.66c-1.97-0.35-3.65-1.44-4.3-5.46c-0.32-2.04-0.72-4.26-1.13-6.42
			c-0.19-1.17-0.65-1.42-1.2-1.51l-1.42-0.31c-2.78-0.61-5.33-0.26-5.8,2.42c-0.27,1.54,0.35,2.83,1.9,3.34
			c1.02,0.29,1.51,0.72,1.79,1.39c0.36,0.85,0.58,2.48,0.37,3.68c-0.13,0.71-0.57,0.98-1.06,0.89c-0.66-0.12-1.75-0.65-3.13-2.76
			c-1.29-1.98-2.46-6.26-1.96-9.06c0.77-4.33,3.27-6.66,8.06-5.59L528.94,318.88z M526.12,323.93c-0.6-0.11-0.96,0-1.01,0.27
			c-0.08,0.44,0.02,1.48,0.23,2.53c0.28,1.63,0.79,3.2,3.15,3.61c1.42,0.25,3.36-0.42,3.72-2.51c0.35-1.97-0.86-2.81-2.17-3.1
			L526.12,323.93z"/>
	</g>
</g>
</svg>
