<?xml version="1.0" encoding="utf-8"?>
<!-- Generator: Adobe Illustrator 25.0.1, SVG Export Plug-In . SVG Version: 6.00 Build 0)  -->
<svg version="1.1" id="レイヤー_1" xmlns="http://www.w3.org/2000/svg" xmlns:xlink="http://www.w3.org/1999/xlink" x="0px"
	 y="0px" viewBox="0 0 779.8 265.9" style="enable-background:new 0 0 779.8 265.9;" xml:space="preserve">
<style type="text/css">
	.st0{fill:#49CADD;}
	.st1{fill:#333333;}
	.st2{fill:#FFFFFF;}
</style>
<circle class="st0" cx="132.9" cy="132.9" r="132.9"/>
<g>
	<path class="st1" d="M405,172.7c0,10.8-4,20-12,27.7c-8,7.7-17.6,11.5-28.9,11.5h-7.1c-11.3,0-20.9-3.8-28.9-11.5
		c-8-7.6-12-16.8-12-27.6v-47.4c0-10.8,4-20,12-27.6c8-7.6,17.6-11.5,28.9-11.5h7.1c11.3,0,20.9,3.8,28.9,11.5
		c8,7.7,12,16.9,12,27.7v13.8h-27.2c0-9.1-0.7-15.6-2.2-19.4c-2.5-6.7-7.7-10.1-15.5-10.1c-11.1,0-16.6,7.3-16.6,21.8v34.2
		c0,14.5,5.9,21.8,17.7,21.8c8,0,13.1-3.2,15.3-9.7c0.9-3,1.4-9.4,1.4-19.3H405V172.7z"/>
	<path class="st1" d="M525.1,172.8c0,10.8-4,20-12,27.6c-8,7.6-17.6,11.5-28.9,11.5h-7.1c-11.3,0-20.9-3.8-28.9-11.5
		c-8-7.6-12-16.8-12-27.6v-47.4c0-10.8,4-20,12-27.6c8-7.6,17.6-11.5,28.9-11.5h7.1c11.3,0,20.9,3.8,28.9,11.5
		c8,7.6,12,16.8,12,27.6V172.8z M497.9,165.8v-34.2c0-14.5-5.9-21.8-17.7-21.8c-11.1,0-16.6,7.3-16.6,21.8v34.2
		c0,14.5,5.9,21.8,17.7,21.8C492.3,187.5,497.9,180.3,497.9,165.8z"/>
	<path class="st1" d="M649.6,39.9v169.6h-26.1v-7.6c-3.6,6.6-11.1,9.9-22.3,9.9c-11.3,0-20.9-3.8-28.9-11.5c-8-7.6-12-16.8-12-27.6
		v-47.4c0-10.8,4-20,11.9-27.6c7.9-7.6,17.5-11.5,28.6-11.5h7c5,0,9.5,2.4,13.5,7.3V40.2L649.6,39.9z M621.3,124.6
		c0-9.8-5.4-14.8-16.2-14.8c-11.7,0-17.6,7.3-17.6,21.8v34.2c0,14.5,5.5,21.8,16.6,21.8c4.5,0,8.5-1.5,12-4.4
		c3.4-2.9,5.2-6.6,5.2-10.9V124.6z"/>
	<path class="st1" d="M779.8,172.7c0,10.8-4,20-12,27.7c-8,7.7-17.6,11.5-28.9,11.5h-7.1c-11.3,0-20.9-3.8-28.9-11.5
		c-8-7.6-12-16.8-12-27.6v-47.4c0-10.8,4-20,12-27.6c8-7.6,17.6-11.5,28.9-11.5h7.1c11.3,0,20.9,3.8,28.9,11.5
		c8,7.7,12,16.9,12,27.7v36h-61.5v4.4c0,8.1,1.9,13.8,5.7,17c3.8,3.3,10,4.9,18.6,4.9c4.9,0,8.2-5,10-15.1H779.8z M752.5,139.8v-8.3
		c0-14.5-5.9-21.7-17.7-21.7c-11.1,0-16.6,7.3-16.6,21.9v8.1H752.5z"/>
</g>
<g>
	<path class="st2" d="M192,114.1v66.4h-20.5v-61.5c0-11.2-4.6-16.7-13.7-16.7c-3.8,0-7,1.3-9.7,3.9c-2.7,2.6-4,5.7-4,9.3v65.1h-21
		v-65.1c0-3.7-1.3-6.8-3.9-9.4c-2.6-2.5-5.9-3.8-9.9-3.8c-8.4,0-12.7,3.8-12.7,11.4l0.6,66.9h-22V84.2l21.4,0.2v5
		c3.2-3.5,9.2-5.2,18-5.2c3.3,0,7.2,1.3,11.7,3.8c4.5,2.5,7.4,5.1,8.8,7.9c2.4-2.8,5.9-5.5,10.7-8c4.7-2.5,8.9-3.7,12.5-3.7
		c8.8,0,16.6,2.9,23.4,8.7C188.6,98.6,192,105.7,192,114.1z"/>
</g>
<g>
	<path class="st2" d="M249.3,148.7L197,172.9v-16.1l36-16.3l-36-15.8v-16.2l52.1,23.6L249.3,148.7z"/>
</g>
<g>
	<path class="st2" d="M69.6,172.9l-52.2-24.2l0.2-16.7l52-23.6v16.2l-35.8,15.7l35.8,16.2V172.9z"/>
</g>
</svg>
