<?xml version="1.0" encoding="utf-8"?>
<!-- Generator: Adobe Illustrator 25.0.1, SVG Export Plug-In . SVG Version: 6.00 Build 0)  -->
<svg version="1.1" id="_x32_" xmlns="http://www.w3.org/2000/svg" xmlns:xlink="http://www.w3.org/1999/xlink" x="0px" y="0px"
	 viewBox="0 0 512 512" style="enable-background:new 0 0 512 512;" xml:space="preserve">
<style type="text/css">
	.st0{fill:#FFFFFF;}
</style>
<g>
	<path class="st0" d="M510.2,392l-45.6-57.3V93.6c0-11.7-9.5-21.1-21.1-21.1H68.5c-11.7,0-21.1,9.5-21.1,21.1v241.1L1.8,392
		c-1.2,1.5-1.8,3.3-1.8,5.3v25.4c0,9.3,7.5,16.8,16.8,16.8h478.3c9.3,0,16.8-7.5,16.8-16.8v-25.4C512,395.4,511.4,393.5,510.2,392z
		 M77.2,102.3h357.5v202.6H77.2V102.3z M304.1,419.5h-96.2V394h96.2V419.5z"/>
	<path class="st0" d="M204.4,167.4c-0.1,0-0.2,0-0.3,0.1l-57.5,39.3c-0.2,0.1-0.2,0.3-0.2,0.5v10.6c0,0.2,0.1,0.4,0.2,0.5l57.5,39.3
		c0.1,0.1,0.2,0.1,0.3,0.1c0.1,0,0.2,0,0.3-0.1c0.2-0.1,0.3-0.3,0.3-0.5v-16.8c0-0.2-0.1-0.4-0.2-0.5l-39.9-27.3l39.9-27.3
		c0.2-0.1,0.2-0.3,0.2-0.5V168c0-0.2-0.1-0.4-0.3-0.5C204.6,167.4,204.5,167.4,204.4,167.4z"/>
	<path class="st0" d="M306.1,167.5c-0.1-0.1-0.2-0.1-0.3-0.1c-0.1,0-0.2,0-0.3,0.1c-0.2,0.1-0.3,0.3-0.3,0.5v16.8
		c0,0.2,0.1,0.4,0.2,0.5l39.9,27.3l-39.9,27.3c-0.2,0.1-0.2,0.3-0.2,0.5v16.8c0,0.2,0.1,0.4,0.3,0.5c0.1,0,0.2,0.1,0.3,0.1
		c0.1,0,0.2,0,0.3-0.1l57.5-39.3c0.2-0.1,0.3-0.3,0.3-0.5v-10.6c0-0.2-0.1-0.4-0.3-0.5L306.1,167.5z"/>
	<path class="st0" d="M281.4,158.2h-16.1c-0.2,0-0.4,0.1-0.5,0.4l-36.5,105.9c-0.1,0.2,0,0.4,0.1,0.5c0.1,0.1,0.3,0.2,0.5,0.2h16.1
		c0.2,0,0.4-0.2,0.5-0.4L281.9,159c0.1-0.2,0-0.4-0.1-0.5C281.7,158.3,281.6,158.2,281.4,158.2z"/>
</g>
</svg>
