<?xml version="1.0" encoding="utf-8"?>
<!-- Generator: Adobe Illustrator 25.0.1, SVG Export Plug-In . SVG Version: 6.00 Build 0)  -->
<svg version="1.1" id="レイヤー_1" xmlns="http://www.w3.org/2000/svg" xmlns:xlink="http://www.w3.org/1999/xlink" x="0px"
	 y="0px" viewBox="0 0 696.6 696.6" style="enable-background:new 0 0 696.6 696.6;" xml:space="preserve">
<style type="text/css">
	.st0{fill:#FFFFFF;}
	.st1{fill:none;stroke:#FFFFFF;stroke-width:20;stroke-miterlimit:10;}
</style>
<path class="st0" d="M116.8,196.2c21.3,0,42.7,0.4,64-1.1c9.7-0.7,22.5-4.1,32-1.5c9.6,2.6,10,14.8,2,19.5c-8.9,5.2-25.9,4.1-36,4.1
	l20.7,62l44.7,133l24,71l12.7,36c7.9-12.6,11-30.9,15.7-45l31-93c4.3-12.8,17.1-35.7,13.3-49c-7-24.4-17.7-48.1-26.3-72
	c-4.4-12.4-7.7-29.9-15.2-40.7c-6.8-9.8-41.2,4.5-39.5-16.3c1.2-14.7,23.5-9.6,33-8.9c31.7,2.2,63.3,2.3,95,0.9
	c9.8-0.4,28.7-6,36.9,0.5c6.6,5.2,5.6,14.1-2,17.8c-9.3,4.5-24.8,3.8-35,3.8c3.4,23.3,15.2,47.6,22.7,70c15.5,46.4,31,92.8,47,139
	c7.1,20.6,13.8,41.3,20.7,62c3,9,5,21.4,10.7,29c10.3-27,17.5-55.5,26.3-83c12.4-38.8,28.6-81.6,20.9-123
	c-3.6-19.1-10.9-37.3-20.8-54c-10.9-18.4-25.8-37.8-27.3-60c-2-29,20.6-54.4,49.9-53c-4.2-8.4-15.5-15.1-23-20.6
	c-21.3-15.5-44.4-27.6-69-36.8c-89-33.6-192.1-16.1-267,41.5C155.8,146,129.9,169.8,116.8,196.2 M592.8,214.2
	c6.6,52.5-8.9,97.1-25.3,146c-16.8,49.8-33.8,99.5-51.4,149c-9.3,26.1-21.1,53-27.3,80c21.5-10.1,41.4-27.4,58-44
	c62.2-62.2,90.8-151.2,78.3-238c-3.4-23.4-9.6-46.2-19-68C602.6,231.1,599.1,220.4,592.8,214.2 M94.8,235.2
	c-8.1,28.3-18.9,54.2-21.8,84c-8.1,83.2,20.4,166.6,79.8,226c15.1,15.1,31.9,28.3,50,39.7c7.8,4.9,16.9,11.2,26,13.3
	c-1.6-9.2-6.2-18.2-9.3-27c-7.4-20.7-15.1-41.3-22.6-62c-22.2-60.6-44-121.4-66.4-182c-8.4-22.6-16.3-45.4-24.9-68
	C103,252.3,101.1,239.4,94.8,235.2 M353.8,372.2l-60.3,176l-22.7,67c40.4,11.5,82.5,14.1,124,7.7c16.4-2.5,31.9-8,48-11.7l-19.9-54
	l-45.1-124l-21.9-61H353.8z"/>
<circle class="st1" cx="348.3" cy="348.3" r="338.3"/>
</svg>
