<?xml version="1.0" encoding="utf-8"?>
<!-- Generator: Adobe Illustrator 25.0.1, SVG Export Plug-In . SVG Version: 6.00 Build 0)  -->
<svg version="1.1" id="_x32_" xmlns="http://www.w3.org/2000/svg" xmlns:xlink="http://www.w3.org/1999/xlink" x="0px" y="0px"
	 viewBox="0 0 512 512" style="enable-background:new 0 0 512 512;" xml:space="preserve">
<style type="text/css">
	.st0{fill:#e8cd74;}
</style>
<g>
	<path class="st0" d="M497.2,88.4l-73.6-73.6c-19.7-19.7-51.6-19.7-71.4,0l-47.7,47.7L71.2,295.8c-9.7,9.7-17.1,21.3-21.7,34.2
		L2.2,461.6c-4.9,13.7-1.5,29.1,8.8,39.4c10.3,10.3,25.7,13.7,39.4,8.8L182,462.5c12.9-4.6,24.5-12,34.2-21.7L437,220l0,0l12.5-12.5
		l47.7-47.7l0,0C516.9,140,516.9,108.1,497.2,88.4z M96.2,320.8L327.7,89.2l41.3,41.3L133.9,365.6l-41.1-41.1
		C93.9,323.2,95,322,96.2,320.8z M170.1,429.3l-83.8,30.1l-33.6-33.6L82.8,342c0.2-0.6,0.5-1.2,0.7-1.8l88.3,88.3
		C171.2,428.7,170.7,429,170.1,429.3z M191.2,415.8c-1.2,1.2-2.5,2.3-3.7,3.4l-41.1-41.1L381.5,143l41.3,41.3L191.2,415.8z
		 M472.2,134.8L437,170l-1.8,1.8l-95.1-95.1l37-37c5.9-5.9,15.5-5.9,21.4,0l73.6,73.6C478.2,119.3,478.2,128.9,472.2,134.8
		L472.2,134.8z"/>
</g>
</svg>
