<?xml version="1.0" encoding="utf-8"?>
<!-- Generator: Adobe Illustrator 25.0.1, SVG Export Plug-In . SVG Version: 6.00 Build 0)  -->
<svg version="1.1" id="_x32_" xmlns="http://www.w3.org/2000/svg" xmlns:xlink="http://www.w3.org/1999/xlink" x="0px" y="0px"
	 viewBox="0 0 512 512" style="enable-background:new 0 0 512 512;" xml:space="preserve">
<style type="text/css">
	.st0{fill:#FFFFFF;}
</style>
<g>
	<path class="st0" d="M494.4,133.4c-11.5-15.7-29.4-25.7-48.8-27.2L126.2,80.9l-3.1-17.7c-5.3-29.7-28.9-52.7-58.7-57.1L24.6,0.2
		C15.1-1.2,6.3,5.4,4.8,14.8C3.4,24.4,10,33.2,19.5,34.6v0l39.9,5.9c15,2.2,26.9,13.8,29.5,28.7l54,306.1
		c5.1,28.7,30,49.7,59.2,49.7h222c9.6,0,17.4-7.8,17.4-17.4c0-9.6-7.8-17.4-17.4-17.4h-222c-12.3,0-22.8-8.8-24.9-20.9l-5-28.3H417
		c31.2,0,58.4-21.5,65.4-52l23.3-100.8c1.1-5,1.7-10.1,1.7-15.1C507.4,159,502.9,145,494.4,133.4z M296.5,229.9V312H224v-82.1H296.5
		z M224,206.7v-88.9l72.5,5.7v83.2L224,206.7L224,206.7z M319.7,229.9h72.5V312h-72.5V229.9z M319.7,206.7v-81.3l72.5,5.7v75.6
		L319.7,206.7L319.7,206.7z M200.8,115.9v90.7h-52.4l-17-96.2L200.8,115.9z M152.5,229.9h48.3V312H167L152.5,229.9z M454.1,282.4
		c-4,17.3-19.4,29.5-37.1,29.5h-1.7v-82.1h50.9L454.1,282.4z M477.4,181.7l-7,30.2v-5.2h-55.1v-73.7l27.9,2.2
		c11,0.9,21.2,6.5,27.7,15.4c4.8,6.6,7.4,14.5,7.4,22.5C478.4,175.9,478,178.8,477.4,181.7z"/>
	<path class="st0" d="M215.3,450.2c-17.1,0-30.9,13.9-30.9,30.9s13.8,30.9,30.9,30.9s30.9-13.8,30.9-30.9
		C246.3,464,232.4,450.2,215.3,450.2z"/>
	<path class="st0" d="M381.5,450.2c-17.1,0-30.9,13.9-30.9,30.9s13.8,30.9,30.9,30.9c17.1,0,30.9-13.8,30.9-30.9
		C412.5,464,398.6,450.2,381.5,450.2z"/>
</g>
</svg>
