<?xml version="1.0" encoding="utf-8"?>
<!-- Generator: Adobe Illustrator 25.0.1, SVG Export Plug-In . SVG Version: 6.00 Build 0)  -->
<svg version="1.1" id="レイヤー_1" xmlns="http://www.w3.org/2000/svg" xmlns:xlink="http://www.w3.org/1999/xlink" x="0px"
	 y="0px" viewBox="0 0 342.3 195.7" style="enable-background:new 0 0 342.3 195.7;" xml:space="preserve">
<style type="text/css">
	.st0{fill:#FFFFFF;}
</style>
<g>
	<path class="st0" d="M44.2,167.7V195h-7.8v-25.4c0-4.6-1.7-6.9-5.2-6.9c-1.4,0-2.7,0.5-3.7,1.6c-1,1.1-1.5,2.3-1.5,3.8V195h-7.9
		v-26.8c0-1.5-0.5-2.8-1.5-3.9c-1-1-2.2-1.6-3.7-1.6c-3.2,0-4.8,1.6-4.8,4.7L8.3,195H0v-39.7l8.1,0.1v2.1c1.2-1.4,3.5-2.1,6.8-2.1
		c1.3,0,2.7,0.5,4.4,1.6c1.7,1,2.8,2.1,3.3,3.2c0.9-1.2,2.2-2.3,4-3.3c1.8-1,3.4-1.5,4.8-1.5c3.3,0,6.3,1.2,8.9,3.6
		C42.9,161.3,44.2,164.2,44.2,167.7z"/>
	<path class="st0" d="M82.5,195h-8.6v-2.8c-0.1,2.4-2.6,3.6-7.4,3.6c-3.3,0-6.4-1-9.2-3.1c-2.9-2.3-4.4-4.9-4.4-8c0-2,0.6-4,1.7-6
		c1.2-2,2.6-3.6,4.2-4.8c2-1.4,4.7-2.1,8-2.1c2.9,0,5.2,0.4,7,1.2v-2.2c0-4.6-1.9-6.9-5.6-6.9c-1.6,0-2.8,0.4-3.6,1.2
		c-0.6,0.6-1.2,1.8-1.7,3.5h-8.5c0-3.4,1.3-6.3,3.8-8.8c2.5-2.4,5.6-3.6,9.2-3.6h2.2c3.6,0,6.6,1.2,9.2,3.6c2.5,2.4,3.8,5.3,3.8,8.8
		V195z M73.9,183.5c0-1.5-0.6-2.7-1.9-3.8c-1.2-1-2.6-1.6-4.2-1.6s-3.1,0.6-4.5,1.8s-2.2,2.5-2.2,3.9c0,1.4,0.8,2.6,2.3,3.5
		c1.4,0.9,2.8,1.3,4.4,1.3s2.9-0.5,4.2-1.5C73.2,186.1,73.9,184.9,73.9,183.5z"/>
	<path class="st0" d="M120,159.9l-7.2,5.4c-0.9-1.7-2.5-2.6-4.9-2.6c-3.4,0-5.1,1.6-5.1,4.7L103,195H94v-39.7l8.8,0.1v2.1
		c1.3-1.4,3.8-2.1,7.4-2.1C114.3,155.3,117.6,156.8,120,159.9z"/>
	<path class="st0" d="M155.4,195.1l-9-0.1v-2.1c-1.3,1.4-3.8,2.1-7.4,2.1c-3.6,0-6.4-1.2-8.7-3.6c-2.2-2.4-3.4-5.3-3.4-8.8v-27.3
		h8.6v25.4c0,4.6,1.9,6.9,5.7,6.9c3.4,0,5.1-1.6,5.1-4.7v-27.6h9V195.1z"/>
	<path class="st0" d="M182.2,177.4H169v-7.6h13.2V177.4z"/>
	<path class="st0" d="M223,183.3c0,3.4-1.3,6.3-3.8,8.8c-2.5,2.4-5.6,3.6-9.2,3.6h-2.2c-3.6,0-6.6-1.2-9.2-3.6
		c-2.5-2.4-3.8-5.3-3.8-8.7v-15c0-3.4,1.3-6.3,3.8-8.7c2.5-2.4,5.6-3.6,9.2-3.6h2.2c3.6,0,6.6,1.2,9.2,3.6c2.5,2.4,3.8,5.3,3.8,8.8
		v4.4h-8.6c0-2.9-0.2-4.9-0.7-6.1c-0.8-2.1-2.4-3.2-4.9-3.2c-3.5,0-5.3,2.3-5.3,6.9v10.8c0,4.6,1.9,6.9,5.6,6.9c2.5,0,4.1-1,4.8-3.1
		c0.3-0.9,0.4-3,0.4-6.1h8.6V183.3z"/>
	<path class="st0" d="M261.1,183.4c0,3.4-1.3,6.3-3.8,8.7c-2.5,2.4-5.6,3.6-9.2,3.6h-2.2c-3.6,0-6.6-1.2-9.2-3.6
		c-2.5-2.4-3.8-5.3-3.8-8.7v-15c0-3.4,1.3-6.3,3.8-8.7c2.5-2.4,5.6-3.6,9.2-3.6h2.2c3.6,0,6.6,1.2,9.2,3.6c2.5,2.4,3.8,5.3,3.8,8.7
		V183.4z M252.5,181.1v-10.8c0-4.6-1.9-6.9-5.6-6.9c-3.5,0-5.3,2.3-5.3,6.9v10.8c0,4.6,1.9,6.9,5.6,6.9
		C250.7,188,252.5,185.7,252.5,181.1z"/>
	<path class="st0" d="M300.6,141.2V195h-8.3v-2.4c-1.2,2.1-3.5,3.1-7.1,3.1c-3.6,0-6.6-1.2-9.2-3.6c-2.5-2.4-3.8-5.3-3.8-8.7v-15
		c0-3.4,1.3-6.3,3.8-8.7c2.5-2.4,5.5-3.6,9.1-3.6h2.2c1.6,0,3,0.8,4.3,2.3v-17L300.6,141.2z M291.6,168.1c0-3.1-1.7-4.7-5.1-4.7
		c-3.7,0-5.6,2.3-5.6,6.9v10.8c0,4.6,1.8,6.9,5.3,6.9c1.4,0,2.7-0.5,3.8-1.4c1.1-0.9,1.6-2.1,1.6-3.5V168.1z"/>
	<path class="st0" d="M341.8,183.3c0,3.4-1.3,6.3-3.8,8.8c-2.5,2.4-5.6,3.6-9.2,3.6h-2.2c-3.6,0-6.6-1.2-9.2-3.6
		c-2.5-2.4-3.8-5.3-3.8-8.7v-15c0-3.4,1.3-6.3,3.8-8.7c2.5-2.4,5.6-3.6,9.2-3.6h2.2c3.6,0,6.6,1.2,9.2,3.6c2.5,2.4,3.8,5.3,3.8,8.8
		v11.4h-19.5v1.4c0,2.6,0.6,4.4,1.8,5.4c1.2,1,3.2,1.6,5.9,1.6c1.5,0,2.6-1.6,3.2-4.8H341.8z M333.2,172.9v-2.6
		c0-4.6-1.9-6.9-5.6-6.9c-3.5,0-5.3,2.3-5.3,6.9v2.6H333.2z"/>
</g>
<g>
	<path class="st0" d="M257.8,44.2v97.9h-30.3V51.3c0-16.5-6.8-24.7-20.2-24.7c-5.6,0-10.4,1.9-14.3,5.7c-3.9,3.8-5.9,8.4-5.9,13.7
		v96.1h-30.9V46c0-5.5-1.9-10.1-5.7-13.8c-3.8-3.7-8.7-5.6-14.6-5.6c-12.5,0-18.7,5.6-18.7,16.7l0.9,98.7H85.7V0l31.5,0.3v7.4
		c4.7-5.1,13.6-7.7,26.5-7.7c4.9,0,10.7,1.9,17.3,5.6c6.6,3.7,10.9,7.6,13,11.6c3.5-4.2,8.7-8.1,15.7-11.7c7-3.6,13.2-5.4,18.5-5.4
		c13,0,24.5,4.3,34.5,12.8S257.8,31.8,257.8,44.2z"/>
</g>
<g>
	<path class="st0" d="M342.3,95.3L265.2,131v-23.8l53.1-24.1l-53.1-23.3v-24l76.9,34.8L342.3,95.3z"/>
</g>
<g>
	<path class="st0" d="M77.2,131l-77-35.7l0.2-24.7l76.7-34.8v24L24.5,82.9l52.8,24V131z"/>
</g>
</svg>
