<?xml version="1.0" encoding="utf-8"?>
<!-- Generator: Adobe Illustrator 25.0.1, SVG Export Plug-In . SVG Version: 6.00 Build 0)  -->
<svg version="1.1" id="レイヤー_1" xmlns="http://www.w3.org/2000/svg" xmlns:xlink="http://www.w3.org/1999/xlink" x="0px"
	 y="0px" viewBox="0 0 184 194" style="enable-background:new 0 0 184 194;" xml:space="preserve">
<style type="text/css">
	.st0{fill:#131313;}
	.st1{fill:#00bbdd;}
	.st2{fill:#FFFFFF;}
</style>
<g>
	<path class="st0" d="M18.27,169.94c0,2.94-0.63,5.32-1.9,7.12c-1.27,1.8-3.04,2.7-5.32,2.7H5.98v14.02H0.25v-46.34l9.75-0.07
		c2.28,0,4.22,1.03,5.84,3.08c1.62,2.06,2.42,4.53,2.42,7.43V169.94z M12.76,168.04v-8.55c0-2.29-0.22-3.81-0.66-4.56
		c-0.58-0.93-1.79-1.4-3.61-1.4H5.98v20.33l3.42,0.07c1.36,0,2.3-0.58,2.81-1.75C12.57,171.34,12.76,169.96,12.76,168.04z"/>
	<path class="st0" d="M43.73,193.77h-5.51v-11.15c0-2.71-0.73-4.46-2.19-5.26c-0.84-0.42-2.5-0.63-4.98-0.63v17.04h-5.73v-45.71
		l9.75-0.07c2.28,0,4.22,1.03,5.84,3.09c1.62,2.06,2.42,4.54,2.42,7.44v7.86c0,1.4-0.34,2.9-1.02,4.49
		c-0.68,1.59-1.5,2.64-2.45,3.16c1.03,0.61,1.91,1.55,2.65,2.81c0.81,1.4,1.21,2.79,1.21,4.14V193.77z M37.83,164.51v-4.37
		c0-2.3-0.27-3.87-0.82-4.72c-0.55-0.84-1.71-1.27-3.5-1.27h-2.46v16.19l3.44,0.07C36.72,170.43,37.83,168.46,37.83,164.51z"/>
	<path class="st0" d="M69.24,183.9c0,2.89-0.81,5.37-2.42,7.42c-1.62,2.05-3.56,3.08-5.84,3.08h-1.43c-2.28,0-4.23-1.03-5.84-3.08
		c-1.62-2.05-2.42-4.53-2.42-7.42v-26.04c0-2.89,0.81-5.37,2.42-7.42c1.62-2.05,3.56-3.08,5.84-3.08h1.43
		c2.28,0,4.22,1.03,5.84,3.08c1.62,2.05,2.42,4.53,2.42,7.42V183.9z M63.73,182.02v-22.48c0-1.81-0.15-3.14-0.44-3.98
		c-0.48-1.26-1.34-1.89-2.59-1.89c-2.61,0-3.91,1.96-3.91,5.86v22.48c0,3.91,1.19,5.86,3.58,5.86
		C62.61,187.88,63.73,185.93,63.73,182.02z"/>
	<path class="st0" d="M84.95,178.84h-8.43v-6.45h8.43V178.84z"/>
	<path class="st0" d="M110.02,183.89c0,2.9-0.81,5.38-2.43,7.43c-1.62,2.06-3.56,3.08-5.84,3.08h-1.43c-2.28,0-4.23-1.03-5.84-3.08
		c-1.62-2.05-2.42-4.53-2.42-7.42v-26.04c0-2.89,0.81-5.37,2.42-7.42c1.62-2.05,3.56-3.08,5.84-3.08h1.43
		c2.28,0,4.22,1.03,5.84,3.08c1.62,2.06,2.43,4.53,2.43,7.43v7.22h-5.4c0-0.42,0-1.1,0-2.06c0-0.95,0-1.66,0-2.13
		c0-4.83-1.23-7.25-3.69-7.25c-2.24,0-3.36,1.96-3.36,5.86v22.48c0,3.91,1.21,5.86,3.64,5.86c2.28,0,3.42-1.96,3.42-5.89v-6.1h5.4
		V183.89z"/>
	<path class="st0" d="M134.93,183.9c0,2.89-0.81,5.37-2.42,7.42c-1.62,2.05-3.56,3.08-5.84,3.08h-1.43c-2.28,0-4.23-1.03-5.84-3.08
		c-1.62-2.05-2.42-4.53-2.42-7.42v-26.04c0-2.89,0.81-5.37,2.42-7.42c1.62-2.05,3.56-3.08,5.84-3.08h1.43
		c2.28,0,4.22,1.03,5.84,3.08c1.62,2.05,2.42,4.53,2.42,7.42V183.9z M129.42,182.02v-22.48c0-1.81-0.15-3.14-0.44-3.98
		c-0.48-1.26-1.34-1.89-2.59-1.89c-2.61,0-3.91,1.96-3.91,5.86v22.48c0,3.91,1.19,5.86,3.58,5.86
		C128.3,187.88,129.42,185.93,129.42,182.02z"/>
	<path class="st0" d="M160.17,183.94c0,2.95-0.63,5.32-1.9,7.13c-1.27,1.8-3.04,2.7-5.32,2.7h-10.8v-45.71l9.75-0.07
		c2.28,0,4.22,1.03,5.84,3.09c1.62,2.06,2.42,4.54,2.42,7.44V183.94z M154.66,182.05v-21.92c0-2.25-0.22-3.77-0.67-4.57
		c-0.59-0.94-1.8-1.41-3.61-1.41h-2.72v33.72l3.61,0.07c1.37,0,2.31-0.58,2.83-1.76C154.47,185.35,154.66,183.97,154.66,182.05z"/>
	<path class="st0" d="M183.75,187.25v6.52h-16.7v-45.5l16.7-0.07v6.52h-10.97v12.27h10.97v6.52h-10.97v13.74H183.75z"/>
</g>
<circle class="st1" cx="92" cy="64.6" r="64"/>
<g>
	<path class="st2" d="M71.54,82.57L49.7,72.44l0.07-7l21.77-9.87v6.8l-14.97,6.57l14.97,6.8V82.57z"/>
	<path class="st2" d="M107.07,37.4L88.66,93.84h-7.84l18.44-56.52L107.07,37.4z"/>
	<path class="st2" d="M134.3,72.44l-21.84,10.13v-6.76l15.05-6.84l-15.05-6.61v-6.8l21.77,9.87L134.3,72.44z"/>
</g>
<g>
</g>
<g>
</g>
<g>
</g>
<g>
</g>
<g>
</g>
<g>
</g>
<g>
</g>
<g>
</g>
<g>
</g>
<g>
</g>
<g>
</g>
<g>
</g>
<g>
</g>
<g>
</g>
<g>
</g>
</svg>
