<?xml version="1.0" encoding="utf-8"?>
<!-- Generator: Adobe Illustrator 25.0.1, SVG Export Plug-In . SVG Version: 6.00 Build 0)  -->
<svg version="1.1" id="レイヤー_1" xmlns="http://www.w3.org/2000/svg" xmlns:xlink="http://www.w3.org/1999/xlink" x="0px"
	 y="0px" viewBox="0 0 342 304" style="enable-background:new 0 0 342 304;" xml:space="preserve">
<style type="text/css">
	.st0{fill:#FFFFFF;}
	.st1{fill:#49CADD;}
</style>
<g>
	<path class="st0" d="M44.3,275.3v27.3h-7.8v-25.4c0-4.6-1.7-6.9-5.2-6.9c-1.4,0-2.7,0.5-3.7,1.6c-1,1.1-1.5,2.3-1.5,3.8v26.8h-7.9
		v-26.8c0-1.5-0.5-2.8-1.5-3.9c-1-1-2.2-1.6-3.7-1.6c-3.2,0-4.8,1.6-4.8,4.7l0.2,27.6H0.1V263l8.1,0.1v2.1c1.2-1.4,3.5-2.1,6.8-2.1
		c1.3,0,2.7,0.5,4.4,1.6c1.7,1,2.8,2.1,3.3,3.2c0.9-1.2,2.2-2.3,4-3.3c1.8-1,3.4-1.5,4.8-1.5c3.3,0,6.3,1.2,8.9,3.6
		C43,269,44.3,271.9,44.3,275.3z"/>
	<path class="st0" d="M82.6,302.7h-8.6v-2.8c-0.1,2.4-2.6,3.6-7.4,3.6c-3.3,0-6.4-1-9.2-3.1c-2.9-2.3-4.4-4.9-4.4-8c0-2,0.6-4,1.7-6
		c1.2-2,2.6-3.6,4.2-4.8c2-1.4,4.7-2.1,8-2.1c2.9,0,5.2,0.4,7,1.2v-2.2c0-4.6-1.9-6.9-5.6-6.9c-1.6,0-2.8,0.4-3.6,1.2
		c-0.6,0.6-1.2,1.8-1.7,3.5h-8.5c0-3.4,1.3-6.3,3.8-8.8c2.5-2.4,5.6-3.6,9.2-3.6h2.2c3.6,0,6.6,1.2,9.2,3.6c2.5,2.4,3.8,5.3,3.8,8.8
		V302.7z M73.9,291.2c0-1.5-0.6-2.7-1.9-3.8c-1.2-1-2.6-1.6-4.2-1.6s-3.1,0.6-4.5,1.8s-2.2,2.5-2.2,3.9c0,1.4,0.8,2.6,2.3,3.5
		c1.4,0.9,2.8,1.3,4.4,1.3s2.9-0.5,4.2-1.5C73.3,293.8,73.9,292.6,73.9,291.2z"/>
	<path class="st0" d="M120,267.6l-7.2,5.4c-0.9-1.7-2.5-2.6-4.9-2.6c-3.4,0-5.1,1.6-5.1,4.7l0.3,27.6h-9.1V263l8.8,0.1v2.1
		c1.3-1.4,3.8-2.1,7.4-2.1C114.4,263,117.7,264.5,120,267.6z"/>
	<path class="st0" d="M155.5,302.8l-9-0.1v-2.1c-1.3,1.4-3.8,2.1-7.4,2.1c-3.6,0-6.4-1.2-8.7-3.6c-2.2-2.4-3.4-5.3-3.4-8.8v-27.3
		h8.6v25.4c0,4.6,1.9,6.9,5.7,6.9c3.4,0,5.1-1.6,5.1-4.7v-27.6h9V302.8z"/>
	<path class="st0" d="M182.3,285.1h-13.2v-7.6h13.2V285.1z"/>
	<path class="st0" d="M223.1,291c0,3.4-1.3,6.3-3.8,8.8c-2.5,2.4-5.6,3.6-9.2,3.6h-2.2c-3.6,0-6.6-1.2-9.2-3.6
		c-2.5-2.4-3.8-5.3-3.8-8.7v-15c0-3.4,1.3-6.3,3.8-8.7c2.5-2.4,5.6-3.6,9.2-3.6h2.2c3.6,0,6.6,1.2,9.2,3.6c2.5,2.4,3.8,5.3,3.8,8.8
		v4.4h-8.6c0-2.9-0.2-4.9-0.7-6.1c-0.8-2.1-2.4-3.2-4.9-3.2c-3.5,0-5.3,2.3-5.3,6.9v10.8c0,4.6,1.9,6.9,5.6,6.9c2.5,0,4.1-1,4.8-3.1
		c0.3-0.9,0.4-3,0.4-6.1h8.6V291z"/>
	<path class="st0" d="M261.2,291.1c0,3.4-1.3,6.3-3.8,8.7c-2.5,2.4-5.6,3.6-9.2,3.6H246c-3.6,0-6.6-1.2-9.2-3.6
		c-2.5-2.4-3.8-5.3-3.8-8.7v-15c0-3.4,1.3-6.3,3.8-8.7c2.5-2.4,5.6-3.6,9.2-3.6h2.2c3.6,0,6.6,1.2,9.2,3.6c2.5,2.4,3.8,5.3,3.8,8.7
		V291.1z M252.6,288.8V278c0-4.6-1.9-6.9-5.6-6.9c-3.5,0-5.3,2.3-5.3,6.9v10.8c0,4.6,1.9,6.9,5.6,6.9
		C250.8,295.7,252.6,293.4,252.6,288.8z"/>
	<path class="st0" d="M300.6,248.9v53.8h-8.3v-2.4c-1.2,2.1-3.5,3.1-7.1,3.1c-3.6,0-6.6-1.2-9.2-3.6c-2.5-2.4-3.8-5.3-3.8-8.7v-15
		c0-3.4,1.3-6.3,3.8-8.7c2.5-2.4,5.5-3.6,9.1-3.6h2.2c1.6,0,3,0.8,4.3,2.3v-17L300.6,248.9z M291.7,275.8c0-3.1-1.7-4.7-5.1-4.7
		c-3.7,0-5.6,2.3-5.6,6.9v10.8c0,4.6,1.8,6.9,5.3,6.9c1.4,0,2.7-0.5,3.8-1.4c1.1-0.9,1.6-2.1,1.6-3.5V275.8z"/>
	<path class="st0" d="M341.9,291c0,3.4-1.3,6.3-3.8,8.8c-2.5,2.4-5.6,3.6-9.2,3.6h-2.2c-3.6,0-6.6-1.2-9.2-3.6
		c-2.5-2.4-3.8-5.3-3.8-8.7v-15c0-3.4,1.3-6.3,3.8-8.7c2.5-2.4,5.6-3.6,9.2-3.6h2.2c3.6,0,6.6,1.2,9.2,3.6c2.5,2.4,3.8,5.3,3.8,8.8
		v11.4h-19.5v1.4c0,2.6,0.6,4.4,1.8,5.4c1.2,1,3.2,1.6,5.9,1.6c1.5,0,2.6-1.6,3.2-4.8H341.9z M333.3,280.6V278
		c0-4.6-1.9-6.9-5.6-6.9c-3.5,0-5.3,2.3-5.3,6.9v2.6H333.3z"/>
</g>
<circle class="st1" cx="175.1" cy="117.1" r="116.5"/>
<g>
	<path class="st0" d="M226.9,103.3v57.7H209v-53.5c0-9.7-4-14.6-11.9-14.6c-3.3,0-6.1,1.1-8.5,3.4c-2.3,2.3-3.5,4.9-3.5,8.1v56.7
		h-18.2v-56.7c0-3.2-1.1-6-3.4-8.1c-2.2-2.2-5.1-3.3-8.6-3.3c-7.3,0-11,3.3-11,9.9l0.5,58.2h-19.1V77.2l18.6,0.2v4.4
		c2.8-3,8-4.5,15.6-4.5c2.9,0,6.3,1.1,10.2,3.3c3.9,2.2,6.4,4.5,7.6,6.8c2.1-2.5,5.2-4.8,9.3-6.9c4.1-2.1,7.8-3.2,10.9-3.2
		c7.6,0,14.4,2.5,20.4,7.6C223.9,89.8,226.9,96,226.9,103.3z"/>
</g>
<g>
	<path class="st0" d="M276.7,133.4l-45.5,21.1v-14l31.3-14.2l-31.3-13.7V98.4l45.3,20.5L276.7,133.4z"/>
</g>
<g>
	<path class="st0" d="M120.4,154.5L75,133.4l0.1-14.5l45.2-20.5v14.1l-31.1,13.7l31.1,14.1V154.5z"/>
</g>
</svg>
