<?xml version="1.0" encoding="utf-8"?>
<!-- Generator: Adobe Illustrator 25.0.1, SVG Export Plug-In . SVG Version: 6.00 Build 0)  -->
<svg version="1.1" id="レイヤー_1" xmlns="http://www.w3.org/2000/svg" xmlns:xlink="http://www.w3.org/1999/xlink" x="0px"
	 y="0px" viewBox="0 0 512.2 512.2" style="enable-background:new 0 0 512.2 512.2;" xml:space="preserve">
<style type="text/css">
	.st0{fill:#49CADD;}
	.st1{fill:#FFFFFF;}
</style>
<circle class="st0" cx="256.1" cy="256.1" r="256.1"/>
<g>
	<path class="st1" d="M128.6,328.6V356h-7.8v-25.4c0-4.6-1.7-6.9-5.2-6.9c-1.4,0-2.7,0.5-3.7,1.6c-1,1.1-1.5,2.3-1.5,3.8V356h-7.9
		v-26.8c0-1.5-0.5-2.8-1.5-3.9c-1-1-2.2-1.6-3.7-1.6c-3.2,0-4.8,1.6-4.8,4.7l0.2,27.6h-8.3v-39.7l8.1,0.1v2.1
		c1.2-1.4,3.5-2.1,6.8-2.1c1.3,0,2.7,0.5,4.4,1.6c1.7,1,2.8,2.1,3.3,3.2c0.9-1.2,2.2-2.3,4-3.3c1.8-1,3.4-1.5,4.8-1.5
		c3.3,0,6.3,1.2,8.9,3.6C127.3,322.2,128.6,325.2,128.6,328.6z"/>
	<path class="st1" d="M166.8,356h-8.6v-2.8c-0.1,2.4-2.6,3.6-7.4,3.6c-3.3,0-6.4-1-9.2-3.1c-2.9-2.3-4.4-4.9-4.4-8c0-2,0.6-4,1.7-6
		c1.2-2,2.6-3.6,4.2-4.8c2-1.4,4.7-2.1,8-2.1c2.9,0,5.2,0.4,7,1.2v-2.2c0-4.6-1.9-6.9-5.6-6.9c-1.6,0-2.8,0.4-3.6,1.2
		c-0.6,0.6-1.2,1.8-1.7,3.5h-8.5c0-3.4,1.3-6.3,3.8-8.8c2.5-2.4,5.6-3.6,9.2-3.6h2.2c3.6,0,6.6,1.2,9.2,3.6c2.5,2.4,3.8,5.3,3.8,8.8
		V356z M158.2,344.4c0-1.5-0.6-2.7-1.9-3.8c-1.2-1-2.6-1.6-4.2-1.6s-3.1,0.6-4.5,1.8s-2.2,2.5-2.2,3.9c0,1.4,0.8,2.6,2.3,3.5
		c1.4,0.9,2.8,1.3,4.4,1.3s2.9-0.5,4.2-1.5C157.6,347.1,158.2,345.8,158.2,344.4z"/>
	<path class="st1" d="M204.3,320.9l-7.2,5.4c-0.9-1.7-2.5-2.6-4.9-2.6c-3.4,0-5.1,1.6-5.1,4.7l0.3,27.6h-9.1v-39.7l8.8,0.1v2.1
		c1.3-1.4,3.8-2.1,7.4-2.1C198.7,316.3,201.9,317.8,204.3,320.9z"/>
	<path class="st1" d="M239.8,356l-9-0.1v-2.1c-1.3,1.4-3.8,2.1-7.4,2.1c-3.6,0-6.4-1.2-8.7-3.6c-2.2-2.4-3.4-5.3-3.4-8.8v-27.3h8.6
		v25.4c0,4.6,1.9,6.9,5.7,6.9c3.4,0,5.1-1.6,5.1-4.7v-27.6h9V356z"/>
	<path class="st1" d="M266.5,338.3h-13.2v-7.6h13.2V338.3z"/>
	<path class="st1" d="M307.4,344.3c0,3.4-1.3,6.3-3.8,8.8c-2.5,2.4-5.6,3.6-9.2,3.6h-2.2c-3.6,0-6.6-1.2-9.2-3.6
		c-2.5-2.4-3.8-5.3-3.8-8.7v-15c0-3.4,1.3-6.3,3.8-8.7c2.5-2.4,5.6-3.6,9.2-3.6h2.2c3.6,0,6.6,1.2,9.2,3.6c2.5,2.4,3.8,5.3,3.8,8.8
		v4.4h-8.6c0-2.9-0.2-4.9-0.7-6.1c-0.8-2.1-2.4-3.2-4.9-3.2c-3.5,0-5.3,2.3-5.3,6.9v10.8c0,4.6,1.9,6.9,5.6,6.9c2.5,0,4.1-1,4.8-3.1
		c0.3-0.9,0.4-3,0.4-6.1h8.6V344.3z"/>
	<path class="st1" d="M345.5,344.3c0,3.4-1.3,6.3-3.8,8.7c-2.5,2.4-5.6,3.6-9.2,3.6h-2.2c-3.6,0-6.6-1.2-9.2-3.6
		c-2.5-2.4-3.8-5.3-3.8-8.7v-15c0-3.4,1.3-6.3,3.8-8.7c2.5-2.4,5.6-3.6,9.2-3.6h2.2c3.6,0,6.6,1.2,9.2,3.6c2.5,2.4,3.8,5.3,3.8,8.7
		V344.3z M336.8,342.1v-10.8c0-4.6-1.9-6.9-5.6-6.9c-3.5,0-5.3,2.3-5.3,6.9v10.8c0,4.6,1.9,6.9,5.6,6.9
		C335.1,349,336.8,346.7,336.8,342.1z"/>
	<path class="st1" d="M384.9,302.2V356h-8.3v-2.4c-1.2,2.1-3.5,3.1-7.1,3.1c-3.6,0-6.6-1.2-9.2-3.6c-2.5-2.4-3.8-5.3-3.8-8.7v-15
		c0-3.4,1.3-6.3,3.8-8.7c2.5-2.4,5.5-3.6,9.1-3.6h2.2c1.6,0,3,0.8,4.3,2.3v-17L384.9,302.2z M375.9,329.1c0-3.1-1.7-4.7-5.1-4.7
		c-3.7,0-5.6,2.3-5.6,6.9v10.8c0,4.6,1.8,6.9,5.3,6.9c1.4,0,2.7-0.5,3.8-1.4c1.1-0.9,1.6-2.1,1.6-3.5V329.1z"/>
	<path class="st1" d="M426.2,344.3c0,3.4-1.3,6.3-3.8,8.8c-2.5,2.4-5.6,3.6-9.2,3.6H411c-3.6,0-6.6-1.2-9.2-3.6
		c-2.5-2.4-3.8-5.3-3.8-8.7v-15c0-3.4,1.3-6.3,3.8-8.7c2.5-2.4,5.6-3.6,9.2-3.6h2.2c3.6,0,6.6,1.2,9.2,3.6c2.5,2.4,3.8,5.3,3.8,8.8
		v11.4h-19.5v1.4c0,2.6,0.6,4.4,1.8,5.4c1.2,1,3.2,1.6,5.9,1.6c1.5,0,2.6-1.6,3.2-4.8H426.2z M417.5,333.9v-2.6
		c0-4.6-1.9-6.9-5.6-6.9c-3.5,0-5.3,2.3-5.3,6.9v2.6H417.5z"/>
</g>
<g>
	<path class="st1" d="M342.2,205.2v97.9h-30.3v-90.8c0-16.5-6.8-24.7-20.2-24.7c-5.6,0-10.4,1.9-14.3,5.7c-3.9,3.8-5.9,8.4-5.9,13.7
		v96.1h-30.9V207c0-5.5-1.9-10.1-5.7-13.8c-3.8-3.7-8.7-5.6-14.6-5.6c-12.5,0-18.7,5.6-18.7,16.7l0.9,98.7H170V161l31.5,0.3v7.4
		c4.7-5.1,13.6-7.7,26.5-7.7c4.9,0,10.7,1.9,17.3,5.6c6.6,3.7,10.9,7.6,13,11.6c3.5-4.2,8.7-8.1,15.7-11.7c7-3.6,13.2-5.4,18.5-5.4
		c13,0,24.5,4.3,34.5,12.8C337.1,182.3,342.2,192.8,342.2,205.2z"/>
</g>
<g>
	<path class="st1" d="M426.6,256.2l-77.1,35.7v-23.8l53.1-24.1l-53.1-23.3v-24l76.9,34.8L426.6,256.2z"/>
</g>
<g>
	<path class="st1" d="M161.6,291.9l-77-35.7l0.2-24.7l76.7-34.8v24l-52.8,23.2l52.8,24V291.9z"/>
</g>
</svg>
