<?xml version="1.0" encoding="utf-8"?>
<!-- Generator: Adobe Illustrator 24.1.1, SVG Export Plug-In . SVG Version: 6.00 Build 0)  -->
<svg version="1.1" id="レイヤー_1" xmlns="http://www.w3.org/2000/svg" xmlns:xlink="http://www.w3.org/1999/xlink" x="0px"
	 y="0px" viewBox="0 0 201.93 57.06" style="enable-background:new 0 0 201.93 57.06;" xml:space="preserve">
<style type="text/css">
	.st0{fill:#FFFFFF;}
</style>
<g>
	<path class="st0" d="M0,0v57.06h201.93V0H0z M200.17,55.29H1.77V1.77h198.4V55.29z"/>
	<g>
		<g>
			<path class="st0" d="M40.87,22.49c0,0.19,0.04,4.68,0.04,4.9c0,0.62,0.31,0.7,0.78,0.7h0.82c0.08,0,0.16,0.04,0.16,0.14v0.49
				c0,0.12-0.08,0.16-0.2,0.16c-0.23,0-1.01-0.06-2.85-0.06c-1.95,0-2.81,0.06-3,0.06c-0.12,0-0.16-0.04-0.16-0.14v-0.53
				c0-0.08,0.04-0.12,0.16-0.12h0.78c0.39,0,0.82-0.04,0.9-0.57c0.04-0.27,0.08-4.49,0.08-5.54v-1.37c0-0.47-0.04-3.98-0.06-4.23
				c-0.06-0.47-0.25-0.66-0.8-0.66H36.5c-0.12,0-0.16-0.04-0.16-0.14v-0.51c0-0.1,0.04-0.14,0.12-0.14c0.23,0,1.25,0.06,3.16,0.06
				c1.87,0,2.5-0.06,2.77-0.06c0.12,0,0.16,0.08,0.16,0.18v0.45c0,0.12-0.08,0.16-0.16,0.16h-0.74c-0.43,0-0.74,0.16-0.74,0.53
				c0,0.19-0.04,4.49-0.04,4.72V22.49z"/>
			<path class="st0" d="M46.63,19.99c0,3.32,0.16,6.05,0.19,6.65c0.04,0.98,0.27,1.44,0.98,1.44h0.51c0.16,0,0.16,0.08,0.16,0.18
				v0.45c0,0.12,0,0.16-0.16,0.16c-0.2,0-1.37-0.06-2.11-0.06c-0.51,0-1.83,0.06-2.03,0.06c-0.08,0-0.12-0.04-0.12-0.18v-0.49
				c0-0.04,0.04-0.12,0.12-0.12h0.66c0.51,0,0.78-0.43,0.88-1.62c0.02-0.35,0.14-3.08,0.14-6.2v-2.48c0-1.17-0.66-2.07-1.52-2.07
				h-0.62c-0.08-0.02-0.12-0.06-0.12-0.14v-0.53c0-0.08,0.04-0.12,0.12-0.12c0.1,0,0.25,0.02,0.6,0.04C44.66,15,45.19,15,46.05,15
				c0.33,0,0.62-0.02,0.86-0.04c0.25,0,0.43-0.02,0.55-0.02c0.23,0,0.35,0.06,0.47,0.18c0.19,0.2,4.02,4.99,4.41,5.54
				c0.27,0.31,3.32,4.1,3.63,4.49h0.08v-2.03c0-1.72,0-2.69-0.04-3.67c-0.04-0.74-0.12-2.65-0.21-2.99
				c-0.14-0.47-0.57-0.74-1.03-0.74h-0.62c-0.12,0-0.12-0.08-0.12-0.18V15.1c0-0.12,0-0.16,0.16-0.16c0.23,0,0.86,0.06,2.18,0.06
				c1.17,0,1.64-0.06,1.87-0.06c0.16,0,0.2,0.08,0.2,0.14v0.45c0,0.12-0.04,0.2-0.12,0.2h-0.55c-0.39,0-0.59,0.31-0.64,1.03
				c-0.1,1.33-0.29,4.6-0.29,6.59v5.15c0,0.27,0,0.55-0.23,0.55c-0.27,0-0.51-0.16-0.66-0.31c-0.16-0.2-1.21-1.41-2.42-2.85
				c-1.37-1.68-2.89-3.51-3.12-3.82c-0.27-0.27-3.39-4.17-3.63-4.45h-0.12V19.99z"/>
			<path class="st0" d="M61.41,19.84c0-0.51-0.08-3.28-0.12-3.57c-0.04-0.47-0.31-0.55-0.7-0.55h-1.05c-0.08,0-0.16-0.04-0.16-0.14
				v-0.53c0-0.08,0.08-0.12,0.18-0.12c0.57,0,1.58,0.06,2.95,0.06c0.98,0,1.95-0.06,2.93-0.06c2.61,0,4.72,0.25,6.52,1.78
				c1.29,1.05,2.18,2.69,2.18,4.95c0,2.22-0.62,3.71-1.91,5.11c-1.91,2.07-4.95,2.09-6.28,2.09c-0.74,0-2.73-0.06-3.71-0.06
				c-1.72,0-2.5,0.06-2.77,0.06c-0.08,0-0.12-0.04-0.12-0.18v-0.49c0-0.08,0.04-0.12,0.16-0.12h1.13c0.39,0,0.59-0.16,0.64-0.49
				c0.06-0.39,0.14-4.8,0.14-6.28V19.84z M63.86,21.75c0,0.23,0.04,3.55,0.04,4.76c0,0.39,0.08,0.7,0.35,1.09
				c0.23,0.37,0.98,0.53,1.72,0.53c1.52,0,3.08-0.68,4.06-1.97c0.82-1.05,1.4-2.65,1.4-4.45c0-1.56-0.66-3.24-1.56-4.25
				c-1.05-1.13-2.77-1.83-4.37-1.83c-0.43,0-0.94,0-1.25,0.2c-0.27,0.16-0.35,0.47-0.35,0.86c-0.04,0.82-0.04,3.36-0.04,3.67V21.75z
				"/>
			<path class="st0" d="M78.77,22.49c0,0.19,0.04,4.68,0.04,4.9c0,0.62,0.31,0.7,0.78,0.7h0.82c0.08,0,0.16,0.04,0.16,0.14v0.49
				c0,0.12-0.08,0.16-0.2,0.16c-0.23,0-1.01-0.06-2.85-0.06c-1.95,0-2.81,0.06-3,0.06c-0.12,0-0.16-0.04-0.16-0.14v-0.53
				c0-0.08,0.04-0.12,0.16-0.12h0.78c0.39,0,0.82-0.04,0.9-0.57c0.04-0.27,0.08-4.49,0.08-5.54v-1.37c0-0.47-0.04-3.98-0.06-4.23
				c-0.06-0.47-0.25-0.66-0.8-0.66H74.4c-0.12,0-0.16-0.04-0.16-0.14v-0.51c0-0.1,0.04-0.14,0.12-0.14c0.23,0,1.25,0.06,3.16,0.06
				c1.87,0,2.5-0.06,2.77-0.06c0.12,0,0.16,0.08,0.16,0.18v0.45c0,0.12-0.08,0.16-0.16,0.16h-0.74c-0.43,0-0.74,0.16-0.74,0.53
				c0,0.19-0.04,4.49-0.04,4.72V22.49z"/>
			<path class="st0" d="M85.89,23.45c-0.16,0.45-1.11,3.24-1.21,3.77c-0.04,0.16-0.04,0.31-0.04,0.41c0,0.25,0.31,0.47,0.7,0.47
				h0.82c0.16,0,0.2,0.04,0.2,0.1v0.49c0,0.12-0.04,0.2-0.16,0.2c-0.27,0-1.09-0.06-2.46-0.06c-1.44,0-1.87,0.06-2.15,0.06
				c-0.12,0-0.12-0.12-0.12-0.25v-0.37c0-0.12,0.04-0.16,0.12-0.16h0.59c0.55,0,0.9-0.27,1.25-0.88c0.2-0.35,1.6-3.86,2.19-5.5
				l1.91-5.11c0.04-0.2,0.16-0.55,0.04-0.66c-0.06-0.06-0.12-0.18-0.12-0.23c0-0.08,0.04-0.16,0.2-0.19
				c0.62-0.16,1.7-0.74,1.93-0.98c0.12-0.12,0.2-0.2,0.29-0.2c0.12,0,0.19,0.23,0.23,0.35c0.35,1.21,1.87,5.58,2.22,6.83
				c0.47,1.52,1.72,5.15,1.99,5.68c0.35,0.66,0.86,0.9,1.25,0.9h0.62c0.12,0,0.16,0.04,0.16,0.14v0.41c0,0.12-0.04,0.23-0.2,0.23
				c-0.35,0-0.74-0.06-2.89-0.06c-1.64,0-2.3,0.06-2.73,0.06c-0.16,0-0.2-0.12-0.2-0.23v-0.39c0-0.12,0.04-0.16,0.16-0.16H91
				c0.55,0,0.7-0.2,0.58-0.72c-0.16-0.7-0.94-3.2-1.17-3.92H85.89z M90.22,22.67c-0.19-0.57-1.52-5.01-1.64-5.4
				c-0.08-0.23-0.12-0.35-0.19-0.35c-0.12,0-0.2,0.08-0.25,0.25c-0.08,0.25-1.83,5.05-1.97,5.5H90.22z"/>
			<path class="st0" d="M100.31,19.99c0,3.32,0.16,6.05,0.19,6.65c0.04,0.98,0.27,1.44,0.98,1.44h0.51c0.16,0,0.16,0.08,0.16,0.18
				v0.45c0,0.12,0,0.16-0.16,0.16c-0.2,0-1.37-0.06-2.11-0.06c-0.51,0-1.83,0.06-2.03,0.06c-0.08,0-0.12-0.04-0.12-0.18v-0.49
				c0-0.04,0.04-0.12,0.12-0.12h0.66c0.51,0,0.78-0.43,0.88-1.62c0.02-0.35,0.14-3.08,0.14-6.2v-2.48c0-1.17-0.66-2.07-1.52-2.07
				h-0.62c-0.08-0.02-0.12-0.06-0.12-0.14v-0.53c0-0.08,0.04-0.12,0.12-0.12c0.1,0,0.25,0.02,0.6,0.04C98.34,15,98.87,15,99.73,15
				c0.33,0,0.62-0.02,0.86-0.04c0.25,0,0.43-0.02,0.55-0.02c0.23,0,0.35,0.06,0.47,0.18c0.19,0.2,4.02,4.99,4.41,5.54
				c0.27,0.31,3.32,4.1,3.63,4.49h0.08v-2.03c0-1.72,0-2.69-0.04-3.67c-0.04-0.74-0.12-2.65-0.21-2.99
				c-0.14-0.47-0.57-0.74-1.03-0.74h-0.62c-0.12,0-0.12-0.08-0.12-0.18V15.1c0-0.12,0-0.16,0.16-0.16c0.23,0,0.86,0.06,2.18,0.06
				c1.17,0,1.64-0.06,1.87-0.06c0.16,0,0.2,0.08,0.2,0.14v0.45c0,0.12-0.04,0.2-0.12,0.2h-0.55c-0.39,0-0.59,0.31-0.64,1.03
				c-0.1,1.33-0.29,4.6-0.29,6.59v5.15c0,0.27,0,0.55-0.23,0.55c-0.27,0-0.51-0.16-0.66-0.31c-0.16-0.2-1.21-1.41-2.42-2.85
				c-1.37-1.68-2.89-3.51-3.12-3.82c-0.27-0.27-3.39-4.17-3.63-4.45h-0.12V19.99z"/>
			<path class="st0" d="M119.69,22.02c-0.21,0-0.27,0.08-0.27,0.25v0.84c0,0.7,0.04,2.97,0.08,4.31c0.02,0.47,0.23,0.66,0.66,0.66
				h0.7c0.16,0,0.2,0.04,0.2,0.14v0.45c0,0.12-0.04,0.2-0.2,0.2c-0.35,0-1.01-0.06-2.61-0.06c-1.91,0-2.5,0.06-2.89,0.06
				c-0.16,0-0.19-0.08-0.19-0.18v-0.45c0-0.12,0.04-0.16,0.19-0.16h1.01c0.47,0,0.55-0.47,0.55-0.92c0-0.94,0.04-3.16,0.04-4.41
				v-2.5c0-0.59-0.04-3-0.04-3.3c0-0.98-0.12-1.25-0.74-1.25h-0.86c-0.16,0-0.2-0.08-0.2-0.18v-0.41c0-0.08,0.04-0.2,0.2-0.2
				c0.35,0,0.98,0.06,2.89,0.06c1.76,0,2.46-0.06,2.81-0.06c0.16,0,0.19,0.08,0.19,0.18v0.41c0,0.12-0.04,0.2-0.19,0.2h-0.7
				c-0.7,0-0.78,0.31-0.8,1.07c-0.02,0.27-0.1,2.85-0.1,3.36v0.78c0,0.2,0.06,0.27,0.23,0.27h6.44c0.31,0,0.39-0.06,0.39-0.27v-0.59
				c0-0.7-0.08-3.43-0.1-3.65c-0.02-0.62-0.1-0.98-0.53-0.98h-0.9c-0.14,0-0.16-0.06-0.16-0.18V15.1c0-0.1,0.02-0.16,0.16-0.16
				c0.35,0,1.21,0.06,2.77,0.06c1.48,0,2.26-0.06,2.57-0.06c0.2,0,0.23,0.08,0.23,0.18v0.41c0,0.12-0.04,0.2-0.23,0.2h-0.7
				c-0.59,0-0.62,0.31-0.62,1c0,0.27-0.04,2.93-0.04,3.55v2.11c0,0.86,0.04,3.63,0.04,4.74c0,0.7,0.19,0.98,0.78,0.98h0.78
				c0.12,0,0.16,0.06,0.16,0.14v0.45c0,0.12-0.04,0.2-0.2,0.2c-0.31,0-0.98-0.06-2.65-0.06c-1.83,0-2.46,0.06-3,0.06
				c-0.12,0-0.16-0.1-0.16-0.18v-0.45c0-0.1,0.02-0.16,0.16-0.16h1.05c0.47,0,0.49-0.35,0.51-0.88c0.04-0.94,0.08-4.06,0.08-4.41
				v-0.55c0-0.18-0.16-0.23-0.43-0.23H119.69z"/>
			<path class="st0" d="M136.78,22.49c0,0.19,0.04,4.68,0.04,4.9c0,0.62,0.31,0.7,0.78,0.7h0.82c0.08,0,0.16,0.04,0.16,0.14v0.49
				c0,0.12-0.08,0.16-0.19,0.16c-0.23,0-1.02-0.06-2.85-0.06c-1.95,0-2.81,0.06-3,0.06c-0.12,0-0.16-0.04-0.16-0.14v-0.53
				c0-0.08,0.04-0.12,0.16-0.12h0.78c0.39,0,0.82-0.04,0.9-0.57c0.04-0.27,0.08-4.49,0.08-5.54v-1.37c0-0.47-0.04-3.98-0.06-4.23
				c-0.06-0.47-0.25-0.66-0.8-0.66h-1.01c-0.12,0-0.16-0.04-0.16-0.14v-0.51c0-0.1,0.04-0.14,0.12-0.14c0.23,0,1.25,0.06,3.16,0.06
				c1.87,0,2.5-0.06,2.77-0.06c0.12,0,0.16,0.08,0.16,0.18v0.45c0,0.12-0.08,0.16-0.16,0.16h-0.74c-0.43,0-0.74,0.16-0.74,0.53
				c0,0.19-0.04,4.49-0.04,4.72V22.49z"/>
			<path class="st0" d="M152.57,24.79c0.04,0.04,0.04,0.08,0.04,0.2c-0.08,0.12-0.86,3.36-0.98,3.88c-0.51-0.02-6.13-0.06-8.12-0.06
				c-1.76,0-2.46,0.06-2.69,0.06c-0.16,0-0.16-0.04-0.16-0.18v-0.45c0-0.12,0-0.16,0.12-0.16h0.78c0.7,0,0.82-0.27,0.82-0.53
				c0-0.35,0.08-5.23,0.08-6.4v-1.09c0-1.25-0.04-3.32-0.08-3.65c-0.04-0.51-0.12-0.7-0.62-0.7h-0.82c-0.12,0-0.16-0.12-0.16-0.18
				V15.1c0-0.12,0.04-0.16,0.16-0.16c0.2,0,0.9,0.06,2.69,0.06c2.11,0,2.93-0.06,3.08-0.06c0.16,0,0.2,0.08,0.2,0.18v0.45
				c0,0.08-0.04,0.16-0.2,0.16h-1.05c-0.59,0-0.66,0.2-0.66,0.72c0,0.27-0.08,3.2-0.08,4.57v1.68c0,0.35,0,4.57,0.08,5.4h1.09
				c1.09,0,2.5,0,3.28-0.1c1.09-0.16,2.34-2.5,2.61-3.24c0.08-0.08,0.12-0.12,0.23-0.08L152.57,24.79z"/>
			<path class="st0" d="M165.55,24.79c0.04,0.04,0.04,0.08,0.04,0.2c-0.08,0.12-0.86,3.36-0.98,3.88c-0.51-0.02-6.13-0.06-8.12-0.06
				c-1.76,0-2.46,0.06-2.69,0.06c-0.16,0-0.16-0.04-0.16-0.18v-0.45c0-0.12,0-0.16,0.12-0.16h0.78c0.7,0,0.82-0.27,0.82-0.53
				c0-0.35,0.08-5.23,0.08-6.4v-1.09c0-1.25-0.04-3.32-0.08-3.65c-0.04-0.51-0.12-0.7-0.62-0.7h-0.82c-0.12,0-0.16-0.12-0.16-0.18
				V15.1c0-0.12,0.04-0.16,0.16-0.16c0.2,0,0.9,0.06,2.69,0.06c2.11,0,2.93-0.06,3.08-0.06c0.16,0,0.2,0.08,0.2,0.18v0.45
				c0,0.08-0.04,0.16-0.2,0.16h-1.05c-0.59,0-0.66,0.2-0.66,0.72c0,0.27-0.08,3.2-0.08,4.57v1.68c0,0.35,0,4.57,0.08,5.4h1.09
				c1.09,0,2.5,0,3.28-0.1c1.09-0.16,2.34-2.5,2.61-3.24c0.08-0.08,0.12-0.12,0.23-0.08L165.55,24.79z"/>
		</g>
		<g>
			<g>
				<path class="st0" d="M38.91,39c0,0.65,0.03,2.56,0.04,2.76c0.01,0.18,0.14,0.29,0.3,0.29h0.5c0.05,0,0.1,0.03,0.1,0.06v0.35
					c0,0.05-0.03,0.1-0.08,0.1c-0.16,0-0.55-0.04-1.67-0.04c-1.12,0-1.54,0.04-1.67,0.04c-0.05,0-0.08-0.03-0.08-0.09v-0.35
					c0-0.05,0.03-0.08,0.08-0.08h0.47c0.24,0,0.34-0.1,0.35-0.25c0.01-0.1,0.04-2.48,0.04-4.1v-0.76c0-0.24-0.03-2.74-0.03-2.86
					c0-0.16-0.08-0.31-0.39-0.31h-0.39c-0.08,0-0.1-0.03-0.1-0.09v-0.35c0-0.05,0.03-0.08,0.1-0.08c0.16,0,0.55,0.04,1.67,0.04
					c1.02,0,1.44-0.04,1.62-0.04c0.08,0,0.1,0.03,0.1,0.09v0.33c0,0.08-0.03,0.1-0.1,0.1h-0.42c-0.26,0-0.39,0.08-0.39,0.38
					c0,0.21-0.05,2.25-0.05,2.87v0.57h0.24c0.16,0,0.29-0.05,0.44-0.18c0.25-0.21,2.52-3.04,2.67-3.24
					c0.18-0.26,0.03-0.42-0.21-0.42h-0.2c-0.05,0-0.07-0.03-0.07-0.09v-0.31c0-0.08,0.03-0.1,0.08-0.1c0.16,0,0.68,0.04,1.54,0.04
					c0.52,0,0.97-0.04,1.12-0.04c0.08,0,0.1,0.03,0.1,0.09v0.33c0,0.08-0.05,0.1-0.1,0.1h-0.26c-0.18,0-0.47,0.05-0.73,0.22
					c-0.61,0.41-2.46,2.53-2.95,3.19c0.52,0.65,3.19,4.1,3.58,4.56c0.24,0.29,0.57,0.31,0.78,0.31h0.29c0.08,0,0.1,0.05,0.1,0.09
					v0.33c0,0.08-0.03,0.1-0.1,0.1c-0.13,0-0.6-0.04-1.8-0.04c-1.1,0-1.59,0.04-1.78,0.04c-0.05,0-0.08-0.03-0.08-0.1v-0.33
					c0-0.05,0.03-0.08,0.08-0.08h0.18c0.24,0,0.26-0.23,0.21-0.34c-0.13-0.26-2.25-3.29-2.46-3.5c-0.13-0.13-0.29-0.18-0.44-0.18
					h-0.24V39z"/>
				<path class="st0" d="M48.11,36.62c0,2.22,0.1,4.05,0.13,4.45c0.03,0.65,0.18,0.97,0.65,0.97h0.34c0.1,0,0.1,0.05,0.1,0.12v0.3
					c0,0.08,0,0.1-0.1,0.1c-0.13,0-0.91-0.04-1.41-0.04c-0.34,0-1.23,0.04-1.36,0.04c-0.05,0-0.08-0.03-0.08-0.12v-0.33
					c0-0.03,0.03-0.08,0.08-0.08h0.44c0.34,0,0.52-0.29,0.59-1.08c0.01-0.24,0.09-2.06,0.09-4.15v-1.66c0-0.78-0.44-1.38-1.02-1.38
					h-0.42c-0.05-0.01-0.08-0.04-0.08-0.09v-0.35c0-0.05,0.03-0.08,0.08-0.08c0.07,0,0.17,0.01,0.41,0.03
					c0.24,0.01,0.59,0.01,1.16,0.01c0.22,0,0.42-0.01,0.57-0.03c0.17,0,0.29-0.01,0.37-0.01c0.16,0,0.24,0.04,0.31,0.12
					c0.13,0.13,2.69,3.34,2.95,3.71c0.18,0.21,2.22,2.74,2.43,3h0.05v-1.36c0-1.15,0-1.8-0.03-2.46c-0.03-0.5-0.08-1.78-0.14-2
					c-0.09-0.31-0.38-0.5-0.69-0.5h-0.42c-0.08,0-0.08-0.05-0.08-0.12v-0.3c0-0.08,0-0.1,0.1-0.1c0.16,0,0.57,0.04,1.46,0.04
					c0.78,0,1.1-0.04,1.25-0.04c0.1,0,0.13,0.05,0.13,0.09v0.3c0,0.08-0.03,0.13-0.08,0.13h-0.37c-0.26,0-0.39,0.21-0.43,0.69
					c-0.06,0.89-0.2,3.08-0.2,4.42v3.45c0,0.18,0,0.37-0.16,0.37c-0.18,0-0.34-0.1-0.44-0.21c-0.1-0.13-0.81-0.94-1.62-1.91
					c-0.91-1.12-1.93-2.35-2.09-2.56c-0.18-0.18-2.27-2.8-2.43-2.98h-0.08V36.62z"/>
				<path class="st0" d="M59.78,38.3c0,0.13,0.03,3.13,0.03,3.28c0,0.42,0.21,0.47,0.52,0.47h0.55c0.05,0,0.1,0.03,0.1,0.09v0.33
					c0,0.08-0.05,0.1-0.13,0.1c-0.16,0-0.68-0.04-1.91-0.04c-1.31,0-1.88,0.04-2.01,0.04c-0.08,0-0.1-0.03-0.1-0.09v-0.35
					c0-0.05,0.03-0.08,0.1-0.08h0.52c0.26,0,0.55-0.03,0.6-0.38c0.03-0.18,0.05-3,0.05-3.71v-0.91c0-0.31-0.03-2.66-0.04-2.83
					c-0.04-0.31-0.17-0.44-0.54-0.44h-0.68c-0.08,0-0.1-0.03-0.1-0.09v-0.34c0-0.07,0.03-0.09,0.08-0.09c0.16,0,0.84,0.04,2.12,0.04
					c1.25,0,1.67-0.04,1.85-0.04c0.08,0,0.1,0.05,0.1,0.12v0.3c0,0.08-0.05,0.1-0.1,0.1h-0.5c-0.29,0-0.5,0.1-0.5,0.35
					c0,0.13-0.03,3-0.03,3.16V38.3z"/>
				<path class="st0" d="M65.62,33.83h-0.37c-0.42,0-1.36,0-1.91,0.18c-0.42,0.18-0.91,1.05-1.16,1.49
					c-0.04,0.07-0.08,0.12-0.14,0.09l-0.26-0.09c-0.05-0.03-0.06-0.07-0.05-0.13l0.63-2.4c0.03-0.18,0.1-0.24,0.16-0.24
					c0.08,0,0.13,0.05,0.21,0.13c0.26,0.26,0.52,0.33,0.89,0.34c0.71,0.03,1.25,0.08,2.53,0.08h0.71c1.44,0,1.99-0.05,2.59-0.08
					c0.25-0.01,0.74-0.2,0.94-0.34c0.1-0.08,0.16-0.13,0.24-0.13c0.08,0,0.1,0.05,0.13,0.21c0.03,0.23,0.29,1.85,0.39,2.48
					c0.01,0.08-0.01,0.1-0.05,0.12l-0.26,0.09c-0.05,0.01-0.08-0.03-0.12-0.1c-0.18-0.37-0.67-1.2-1.03-1.46
					c-0.37-0.21-1.54-0.23-2.01-0.23h-0.37v6.96c0,0.99,0.13,1.25,0.44,1.25h0.76c0.05,0,0.08,0.05,0.08,0.12v0.27
					c0,0.08-0.03,0.13-0.13,0.13c-0.13,0-0.55-0.04-1.96-0.04c-1.33,0-1.88,0.04-2.06,0.04c-0.08,0-0.1-0.03-0.1-0.12v-0.3
					c0-0.08,0.04-0.1,0.09-0.1h0.74c0.26,0,0.42-0.16,0.43-0.35c0.04-0.34,0.04-4.34,0.04-4.6V33.83z"/>
				<path class="st0" d="M75.77,33.83H75.4c-0.42,0-1.36,0-1.91,0.18c-0.42,0.18-0.91,1.05-1.16,1.49
					c-0.04,0.07-0.08,0.12-0.14,0.09l-0.26-0.09c-0.05-0.03-0.06-0.07-0.05-0.13l0.63-2.4c0.03-0.18,0.1-0.24,0.16-0.24
					c0.08,0,0.13,0.05,0.21,0.13c0.26,0.26,0.52,0.33,0.89,0.34c0.71,0.03,1.25,0.08,2.53,0.08H77c1.44,0,1.99-0.05,2.59-0.08
					c0.25-0.01,0.74-0.2,0.94-0.34c0.1-0.08,0.16-0.13,0.24-0.13c0.08,0,0.1,0.05,0.13,0.21c0.03,0.23,0.29,1.85,0.39,2.48
					c0.01,0.08-0.01,0.1-0.05,0.12l-0.26,0.09c-0.05,0.01-0.08-0.03-0.12-0.1c-0.18-0.37-0.67-1.2-1.03-1.46
					c-0.37-0.21-1.54-0.23-2.01-0.23h-0.37v6.96c0,0.99,0.13,1.25,0.44,1.25h0.76c0.05,0,0.08,0.05,0.08,0.12v0.27
					c0,0.08-0.03,0.13-0.13,0.13c-0.13,0-0.55-0.04-1.96-0.04c-1.33,0-1.88,0.04-2.06,0.04c-0.08,0-0.1-0.03-0.1-0.12v-0.3
					c0-0.08,0.04-0.1,0.09-0.1h0.74c0.26,0,0.42-0.16,0.43-0.35c0.04-0.34,0.04-4.34,0.04-4.6V33.83z"/>
				<path class="st0" d="M85.06,38.3c0,0.13,0.03,3.13,0.03,3.28c0,0.42,0.21,0.47,0.52,0.47h0.55c0.05,0,0.1,0.03,0.1,0.09v0.33
					c0,0.08-0.05,0.1-0.13,0.1c-0.16,0-0.68-0.04-1.91-0.04c-1.31,0-1.88,0.04-2.01,0.04c-0.08,0-0.1-0.03-0.1-0.09v-0.35
					c0-0.05,0.03-0.08,0.1-0.08h0.52c0.26,0,0.55-0.03,0.6-0.38c0.03-0.18,0.05-3,0.05-3.71v-0.91c0-0.31-0.03-2.66-0.04-2.83
					c-0.04-0.31-0.17-0.44-0.54-0.44h-0.68c-0.08,0-0.1-0.03-0.1-0.09v-0.34c0-0.07,0.03-0.09,0.08-0.09c0.16,0,0.84,0.04,2.12,0.04
					c1.25,0,1.67-0.04,1.85-0.04c0.08,0,0.1,0.05,0.1,0.12v0.3c0,0.08-0.05,0.1-0.1,0.1h-0.5c-0.29,0-0.5,0.1-0.5,0.35
					c0,0.13-0.03,3-0.03,3.16V38.3z"/>
				<path class="st0" d="M89.04,36.62c0,2.22,0.1,4.05,0.13,4.45c0.03,0.65,0.18,0.97,0.65,0.97h0.34c0.1,0,0.1,0.05,0.1,0.12v0.3
					c0,0.08,0,0.1-0.1,0.1c-0.13,0-0.91-0.04-1.41-0.04c-0.34,0-1.23,0.04-1.36,0.04c-0.05,0-0.08-0.03-0.08-0.12v-0.33
					c0-0.03,0.03-0.08,0.08-0.08h0.44c0.34,0,0.52-0.29,0.59-1.08c0.01-0.24,0.09-2.06,0.09-4.15v-1.66c0-0.78-0.44-1.38-1.02-1.38
					h-0.42C87.03,33.75,87,33.72,87,33.67v-0.35c0-0.05,0.03-0.08,0.08-0.08c0.07,0,0.17,0.01,0.41,0.03
					c0.24,0.01,0.59,0.01,1.16,0.01c0.22,0,0.42-0.01,0.57-0.03c0.17,0,0.29-0.01,0.37-0.01c0.16,0,0.24,0.04,0.31,0.12
					c0.13,0.13,2.69,3.34,2.95,3.71c0.18,0.21,2.22,2.74,2.43,3h0.05v-1.36c0-1.15,0-1.8-0.03-2.46c-0.03-0.5-0.08-1.78-0.14-2
					c-0.09-0.31-0.38-0.5-0.69-0.5h-0.42c-0.08,0-0.08-0.05-0.08-0.12v-0.3c0-0.08,0-0.1,0.1-0.1c0.16,0,0.57,0.04,1.46,0.04
					c0.78,0,1.1-0.04,1.25-0.04c0.1,0,0.13,0.05,0.13,0.09v0.3c0,0.08-0.03,0.13-0.08,0.13h-0.37c-0.26,0-0.39,0.21-0.43,0.69
					c-0.07,0.89-0.2,3.08-0.2,4.42v3.45c0,0.18,0,0.37-0.16,0.37c-0.18,0-0.34-0.1-0.44-0.21c-0.1-0.13-0.81-0.94-1.62-1.91
					c-0.91-1.12-1.93-2.35-2.09-2.56c-0.18-0.18-2.27-2.8-2.43-2.98h-0.08V36.62z"/>
				<path class="st0" d="M106.5,41.24c0,0.18,0.05,0.31,0.05,0.42c0,0.1-0.08,0.16-0.21,0.21c-1.07,0.55-2.14,0.86-3.71,0.86
					c-1.28,0-2.87-0.44-3.76-1.52c-0.81-0.89-1.2-2.01-1.2-3.55c0-1.2,0.52-2.46,1.49-3.29c0.94-0.84,2.14-1.28,3.71-1.28
					c1.25,0,2.25,0.39,2.67,0.71c0.16,0.12,0.24,0.08,0.31-0.03l0.16-0.21c0.07-0.09,0.1-0.13,0.18-0.13c0.13,0,0.16,0.08,0.16,0.18
					l0.13,2.61c0,0.1,0,0.17-0.05,0.18l-0.31,0.05c-0.08,0.01-0.1-0.03-0.13-0.1c-0.18-0.52-0.52-1.25-1.05-1.8
					c-0.44-0.47-1.18-0.91-2.17-0.91c-0.81,0-1.52,0.21-2.22,1.02c-0.63,0.71-1.07,1.8-1.07,2.95c0,1.54,0.42,2.87,1.18,3.63
					c0.63,0.6,1.25,0.89,2.09,0.89c0.84,0,1.33-0.1,1.78-0.34c0.29-0.16,0.31-0.52,0.31-1.2v-0.95c0-0.47-0.13-0.6-0.47-0.6h-0.55
					c-0.08,0-0.1-0.05-0.1-0.12v-0.3c0-0.08,0.03-0.1,0.08-0.1c0.16,0,0.78,0.04,1.85,0.04c1.1,0,1.54-0.04,1.67-0.04
					c0.1,0,0.13,0.03,0.13,0.09v0.33c0,0.08-0.03,0.1-0.1,0.1h-0.44c-0.23,0-0.39,0.1-0.39,0.48V41.24z"/>
			</g>
			<g>
				<path class="st0" d="M110.88,39.55c0.05,0,0.08,0.03,0.08,0.1c0.03,0.42,0.13,0.91,0.5,1.49c0.39,0.63,1.07,0.94,1.72,0.94
					c0.71,0,1.7-0.44,1.7-1.53c0-1.2-0.55-1.59-1.93-2.12c-0.42-0.16-1.28-0.52-1.91-1.1c-0.44-0.42-0.65-1.07-0.65-1.87
					c0-0.73,0.29-1.33,0.91-1.83c0.52-0.44,1.1-0.63,1.85-0.63c0.86,0,1.38,0.21,1.65,0.31c0.13,0.05,0.21,0.03,0.27-0.04l0.17-0.17
					c0.05-0.05,0.1-0.08,0.18-0.08c0.08,0,0.1,0.08,0.1,0.21c0,0.21,0.21,2.04,0.21,2.17c0,0.05-0.03,0.08-0.08,0.09l-0.21,0.07
					c-0.05,0.01-0.1,0-0.13-0.08c-0.13-0.37-0.34-0.89-0.81-1.38c-0.34-0.37-0.76-0.55-1.36-0.55c-1.04,0-1.46,0.84-1.46,1.32
					c0,0.44,0.05,0.84,0.37,1.18c0.34,0.34,1.07,0.65,1.59,0.81c0.76,0.24,1.38,0.5,1.88,1.02c0.42,0.44,0.65,0.99,0.65,1.87
					c0,1.59-1.05,2.9-2.77,2.9c-1.07,0-1.7-0.24-2.22-0.63c-0.16-0.1-0.24-0.16-0.31-0.16c-0.08,0-0.13,0.1-0.21,0.24
					c-0.08,0.13-0.13,0.16-0.24,0.16s-0.16-0.08-0.16-0.21c0.03-0.16,0.21-2.27,0.23-2.43c0.01-0.08,0.03-0.1,0.08-0.1L110.88,39.55
					z"/>
				<path class="st0" d="M119.68,38.68c0.01,0.71,0.04,1.99,0.04,2.22c0,0.68,0.24,0.94,0.52,1.02c0.21,0.05,0.52,0.1,1.02,0.1
					c0.23,0,0.84-0.03,1.1-0.05c0.24-0.03,0.73-0.16,1.07-0.44c0.24-0.21,0.97-1.07,1.21-1.38c0.05-0.07,0.09-0.08,0.14-0.05
					l0.21,0.13c0.04,0.03,0.05,0.07,0.03,0.13l-0.63,1.96c-0.04,0.12-0.13,0.2-0.29,0.2c-0.07,0-0.35-0.01-1.16-0.03
					c-0.82,0-2.17-0.01-4.35-0.01c-0.48,0-0.84,0.01-1.11,0.01c-0.26,0.01-0.44,0.03-0.56,0.03c-0.08,0-0.1-0.03-0.1-0.1v-0.31
					c0-0.08,0.03-0.1,0.13-0.1h0.44c0.6,0,0.65-0.08,0.65-0.56v-4.39c0-1.07-0.03-2.69-0.05-2.87c-0.05-0.35-0.18-0.46-0.57-0.46
					h-0.5c-0.05,0-0.08-0.03-0.08-0.09v-0.34c0-0.07,0.01-0.09,0.08-0.09c0.29,0,0.76,0.05,1.83,0.04h0.37
					c0.57,0,3.58-0.03,4.15-0.03c0.21,0,0.46-0.01,0.52-0.01c0.07,0,0.09,0.03,0.1,0.08c0.05,0.17,0.55,1.95,0.6,2.08
					c0.03,0.08,0.01,0.12-0.04,0.14l-0.24,0.1c-0.04,0.01-0.08,0-0.12-0.07c-0.05-0.08-1.12-1.28-1.44-1.46
					c-0.27-0.16-0.63-0.33-0.99-0.34l-1.99-0.05l-0.03,3.77c0.39,0,1.33-0.03,1.49-0.07c0.29-0.05,0.44-0.16,0.6-0.47
					c0.08-0.17,0.21-0.5,0.21-0.73c0-0.08,0.05-0.1,0.1-0.1l0.34,0.03c0.05,0,0.09,0.03,0.08,0.1c-0.03,0.21-0.03,1.07-0.03,1.41
					c0,0.52,0.05,1.15,0.08,1.44c0,0.07-0.03,0.08-0.1,0.09l-0.29,0.05c-0.05,0.01-0.08-0.01-0.1-0.09
					c-0.05-0.21-0.14-0.5-0.21-0.65c-0.12-0.26-0.37-0.44-0.65-0.47c-0.47-0.05-1.1-0.08-1.51-0.08L119.68,38.68z"/>
				<path class="st0" d="M128.28,39.04c0,0.78,0.03,2.25,0.05,2.44c0.04,0.26,0.13,0.5,0.34,0.5h0.65c0.08,0,0.1,0.04,0.1,0.09v0.31
					c0,0.09-0.04,0.12-0.14,0.12c-0.17,0-0.43-0.04-1.79-0.04c-1.28,0-1.59,0.04-1.72,0.04c-0.08,0-0.1-0.04-0.1-0.12v-0.3
					c0-0.07,0.03-0.1,0.08-0.1h0.44c0.29,0,0.5-0.08,0.5-0.43c0.03-1.31,0.03-2.53,0.03-3.76v-3.43c0-0.44-0.18-0.65-0.42-0.65
					h-0.51c-0.07,0-0.09-0.03-0.09-0.08v-0.35c0-0.07,0.03-0.09,0.09-0.09c0.09,0,0.51,0.04,1.79,0.04c0.73,0,1.93-0.04,2.33-0.04
					c1.04,0,1.85,0.35,2.38,0.82c0.47,0.42,0.71,0.97,0.71,1.46c0,1.65-0.99,2.32-2.43,2.56v0.05c0.37,0.13,0.6,0.37,0.78,0.6
					c0.16,0.21,0.97,1.44,1.07,1.59c0.08,0.13,0.91,1.31,1.11,1.49c0.25,0.22,0.61,0.25,0.93,0.25c0.08,0,0.1,0.04,0.1,0.09v0.27
					c0,0.09-0.03,0.13-0.1,0.13c-0.1,0-0.44-0.04-1.28-0.04c-0.37,0-0.86,0.03-1.15,0.04c-0.16-0.12-0.41-0.47-0.57-0.74
					c-0.24-0.37-0.74-1.31-0.86-1.52c-0.13-0.23-0.5-0.84-0.71-1.12c-0.33-0.46-0.63-0.81-1.18-0.81c-0.05,0-0.27,0.01-0.42,0.03
					V39.04z M128.3,37.87c0.18,0.03,0.34,0.05,0.5,0.05c2.04,0,2.46-1.65,2.46-2.25c0-0.6-0.25-1.16-0.57-1.46
					c-0.47-0.42-1.07-0.56-1.72-0.56c-0.21,0-0.37,0.01-0.47,0.08c-0.1,0.07-0.16,0.22-0.16,0.38L128.3,37.87z"/>
				<g>
					<path class="st0" d="M139.4,33.28c0-0.08,0.03-0.1,0.1-0.1c0.1,0,0.7,0.04,1.54,0.04c1.1,0,1.44-0.04,1.54-0.04
						c0.08,0,0.1,0.03,0.1,0.09v0.33c0,0.07-0.03,0.1-0.1,0.1h-0.31c-0.31,0-0.65,0.13-0.95,0.6c-0.43,0.69-1.21,2.73-1.58,3.59
						c-0.26,0.57-1.83,4.39-1.96,4.66c-0.05,0.1-0.16,0.17-0.26,0.17c-0.16,0-0.22-0.14-0.29-0.3c-0.44-1.11-1.54-4.1-1.99-5.32
						c-0.34-0.94-0.91-2.61-1.06-2.99c-0.12-0.29-0.27-0.42-0.56-0.42h-0.31c-0.05,0-0.08-0.04-0.08-0.12v-0.3
						c0-0.08,0.03-0.1,0.08-0.1c0.13,0,0.57,0.04,1.93,0.04c1.23,0,1.83-0.04,1.93-0.04c0.1,0,0.13,0.04,0.13,0.1v0.29
						c0,0.09-0.03,0.13-0.1,0.13h-0.63c-0.34,0-0.55,0.13-0.55,0.33c0,0.1,0,0.26,0.04,0.44c0.09,0.47,0.59,2.01,0.85,2.77
						c0.18,0.5,0.89,2.56,1.1,3.27h0.03v-0.03c0.31-0.73,1.15-2.9,1.28-3.29c0.21-0.61,1.02-2.59,1.02-3.12
						c0-0.16-0.13-0.37-0.5-0.37h-0.35c-0.05,0-0.09-0.05-0.09-0.12V33.28z"/>
					<path class="st0" d="M146.56,38.23c0,0.13,0.03,3.13,0.03,3.28c0,0.42,0.21,0.47,0.52,0.47h0.55c0.05,0,0.1,0.03,0.1,0.09v0.33
						c0,0.08-0.05,0.1-0.13,0.1c-0.16,0-0.68-0.04-1.91-0.04c-1.31,0-1.88,0.04-2.01,0.04c-0.08,0-0.1-0.03-0.1-0.09v-0.35
						c0-0.05,0.03-0.08,0.1-0.08h0.52c0.26,0,0.55-0.03,0.6-0.38c0.03-0.18,0.05-3,0.05-3.71v-0.91c0-0.31-0.03-2.66-0.04-2.83
						c-0.04-0.31-0.17-0.44-0.54-0.44h-0.68c-0.08,0-0.1-0.03-0.1-0.09v-0.34c0-0.07,0.03-0.09,0.08-0.09
						c0.16,0,0.84,0.04,2.12,0.04c1.25,0,1.67-0.04,1.85-0.04c0.08,0,0.1,0.05,0.1,0.12v0.3c0,0.08-0.05,0.1-0.1,0.1h-0.5
						c-0.29,0-0.5,0.1-0.5,0.35c0,0.13-0.03,3-0.03,3.16V38.23z"/>
					<path class="st0" d="M156.7,40.33c0.04,0.04,0.05,0.08,0.03,0.13c-0.78,1.12-2.04,2.19-3.89,2.19c-1.67,0-2.61-0.5-3.42-1.23
						c-0.97-0.86-1.41-2.38-1.41-3.53c0-1.28,0.42-2.51,1.33-3.5c0.71-0.76,1.83-1.38,3.4-1.38c1.2,0,2.17,0.37,2.64,0.63
						c0.18,0.1,0.24,0.1,0.26,0l0.1-0.34c0.03-0.08,0.05-0.08,0.21-0.08c0.16,0,0.18,0.03,0.18,0.21c0,0.23,0.26,2.32,0.31,2.72
						c0.01,0.08,0,0.12-0.05,0.13l-0.25,0.08c-0.07,0.03-0.1-0.03-0.14-0.13c-0.16-0.47-0.47-1.12-1.02-1.7
						c-0.57-0.55-1.25-0.97-2.27-0.97c-2.09,0-2.95,1.88-2.95,3.76c0,0.81,0.23,2.35,1.2,3.4c0.86,0.91,1.62,1.02,2.25,1.02
						c1.44,0,2.57-0.72,3.12-1.52c0.07-0.09,0.12-0.13,0.16-0.09L156.7,40.33z"/>
					<path class="st0" d="M160.23,38.68c0.01,0.71,0.04,1.99,0.04,2.22c0,0.68,0.23,0.94,0.52,1.02c0.21,0.05,0.52,0.1,1.02,0.1
						c0.23,0,0.84-0.03,1.1-0.05c0.23-0.03,0.73-0.16,1.07-0.44c0.24-0.21,0.97-1.07,1.21-1.38c0.05-0.07,0.09-0.08,0.14-0.05
						l0.21,0.13c0.04,0.03,0.05,0.07,0.03,0.13l-0.63,1.96c-0.04,0.12-0.13,0.2-0.29,0.2c-0.07,0-0.35-0.01-1.16-0.03
						c-0.82,0-2.17-0.01-4.35-0.01c-0.48,0-0.84,0.01-1.11,0.01c-0.26,0.01-0.44,0.03-0.56,0.03c-0.08,0-0.1-0.03-0.1-0.1v-0.31
						c0-0.08,0.03-0.1,0.13-0.1h0.44c0.6,0,0.65-0.08,0.65-0.56v-4.39c0-1.07-0.03-2.69-0.05-2.87c-0.05-0.35-0.18-0.46-0.57-0.46
						h-0.5c-0.05,0-0.08-0.03-0.08-0.09v-0.34c0-0.07,0.01-0.09,0.08-0.09c0.29,0,0.76,0.05,1.83,0.04h0.37
						c0.57,0,3.58-0.03,4.15-0.03c0.21,0,0.46-0.01,0.52-0.01c0.07,0,0.09,0.03,0.1,0.08c0.05,0.17,0.55,1.95,0.6,2.08
						c0.03,0.08,0.01,0.12-0.04,0.14l-0.23,0.1c-0.04,0.01-0.08,0-0.12-0.07c-0.05-0.08-1.12-1.28-1.44-1.46
						c-0.27-0.16-0.63-0.33-0.99-0.34l-1.99-0.05l-0.03,3.77c0.39,0,1.33-0.03,1.49-0.07c0.29-0.05,0.44-0.16,0.6-0.47
						c0.08-0.17,0.21-0.5,0.21-0.73c0-0.08,0.05-0.1,0.1-0.1l0.34,0.03c0.05,0,0.09,0.03,0.08,0.1c-0.03,0.21-0.03,1.07-0.03,1.41
						c0,0.52,0.05,1.15,0.08,1.44c0,0.07-0.03,0.08-0.1,0.09l-0.29,0.05c-0.05,0.01-0.08-0.01-0.1-0.09
						c-0.05-0.21-0.14-0.5-0.21-0.65c-0.12-0.26-0.37-0.44-0.65-0.47c-0.47-0.05-1.1-0.08-1.51-0.08L160.23,38.68z"/>
				</g>
			</g>
		</g>
	</g>
</g>
<g>
</g>
<g>
</g>
<g>
</g>
<g>
</g>
<g>
</g>
<g>
</g>
<g>
</g>
<g>
</g>
<g>
</g>
<g>
</g>
<g>
</g>
<g>
</g>
<g>
</g>
<g>
</g>
<g>
</g>
</svg>
