<?xml version="1.0" encoding="utf-8"?>
<!-- Generator: Adobe Illustrator 24.1.1, SVG Export Plug-In . SVG Version: 6.00 Build 0)  -->
<svg version="1.1" id="レイヤー_1" xmlns="http://www.w3.org/2000/svg" xmlns:xlink="http://www.w3.org/1999/xlink" x="0px"
	 y="0px" viewBox="0 0 33.85 33.85" style="enable-background:new 0 0 33.85 33.85;" xml:space="preserve">
<style type="text/css">
	.st0{fill:#999999;}
</style>
<g>
	<path class="st0" d="M24.28,3.08c3.58,0,6.49,2.91,6.49,6.49v14.72c0,3.58-2.91,6.49-6.49,6.49H9.57c-3.58,0-6.49-2.91-6.49-6.49
		V9.57c0-3.58,2.91-6.49,6.49-6.49H24.28 M24.28,0H9.57C4.28,0,0,4.28,0,9.57v14.72c0,5.28,4.28,9.57,9.57,9.57h14.72
		c5.28,0,9.57-4.28,9.57-9.57V9.57C33.85,4.28,29.57,0,24.28,0L24.28,0z"/>
	<path class="st0" d="M16.93,11.51c2.99,0,5.42,2.43,5.42,5.42s-2.43,5.42-5.42,5.42s-5.42-2.43-5.42-5.42S13.94,11.51,16.93,11.51
		 M16.93,8.43c-4.69,0-8.49,3.8-8.49,8.49s3.8,8.49,8.49,8.49s8.49-3.8,8.49-8.49S21.61,8.43,16.93,8.43L16.93,8.43z"/>
	<circle class="st0" cx="26.02" cy="7.9" r="1.94"/>
</g>
</svg>
