<?xml version="1.0" encoding="utf-8"?>
<!-- Generator: Adobe Illustrator 24.1.1, SVG Export Plug-In . SVG Version: 6.00 Build 0)  -->
<svg version="1.1" id="レイヤー_1" xmlns="http://www.w3.org/2000/svg" xmlns:xlink="http://www.w3.org/1999/xlink" x="0px"
	 y="0px" viewBox="0 0 29.4 29.4" style="enable-background:new 0 0 29.4 29.4;" xml:space="preserve">
<g>
	<path d="M21.09,2.67c3.11,0,5.64,2.53,5.64,5.64v12.78c0,3.11-2.53,5.64-5.64,5.64H8.31c-3.11,0-5.64-2.53-5.64-5.64V8.31
		c0-3.11,2.53-5.64,5.64-5.64H21.09 M21.09,0H8.31C3.72,0,0,3.72,0,8.31v12.78c0,4.59,3.72,8.31,8.31,8.31h12.78
		c4.59,0,8.31-3.72,8.31-8.31V8.31C29.4,3.72,25.68,0,21.09,0L21.09,0z"/>
	<path d="M14.7,10c2.59,0,4.7,2.11,4.7,4.7s-2.11,4.7-4.7,4.7S10,17.29,10,14.7S12.11,10,14.7,10 M14.7,7.33
		c-4.07,0-7.37,3.3-7.37,7.37s3.3,7.37,7.37,7.37s7.37-3.3,7.37-7.37S18.77,7.33,14.7,7.33L14.7,7.33z"/>
	<circle cx="22.6" cy="6.86" r="1.68"/>
</g>
<g>
</g>
<g>
</g>
<g>
</g>
<g>
</g>
<g>
</g>
<g>
</g>
<g>
</g>
<g>
</g>
<g>
</g>
<g>
</g>
<g>
</g>
<g>
</g>
<g>
</g>
<g>
</g>
<g>
</g>
</svg>
